<?xml version="1.0" encoding="UTF-8"?>
<!DOCTYPE svg PUBLIC "-//W3C//DTD SVG 1.1//EN" "http://www.w3.org/Graphics/SVG/1.1/DTD/svg11.dtd">
<svg xmlns="http://www.w3.org/2000/svg" version="1.1" width="557px" height="386px" style="shape-rendering:geometricPrecision; text-rendering:geometricPrecision; image-rendering:optimizeQuality; fill-rule:evenodd; clip-rule:evenodd" xmlns:xlink="http://www.w3.org/1999/xlink">
<g><path style="opacity:1" fill="#000000" d="M -0.5,-0.5 C 185.167,-0.5 370.833,-0.5 556.5,-0.5C 556.5,128.167 556.5,256.833 556.5,385.5C 370.833,385.5 185.167,385.5 -0.5,385.5C -0.5,256.833 -0.5,128.167 -0.5,-0.5 Z"/></g>
<g><path style="opacity:1" fill="#0b0b0b" d="M 314.5,72.5 C 312.236,71.7814 309.903,71.448 307.5,71.5C 307.167,71.5 306.833,71.5 306.5,71.5C 304.708,70.6909 302.708,70.1909 300.5,70C 262.331,69.1689 224.331,69.3355 186.5,70.5C 186.5,159.167 186.5,247.833 186.5,336.5C 221.998,337.664 257.664,337.831 293.5,337C 296.036,336.814 298.369,336.314 300.5,335.5C 304.198,335.448 307.865,335.114 311.5,334.5C 310.916,338.466 309.249,339.133 306.5,336.5C 299.611,337.292 292.778,338.292 286,339.5C 253.572,338.338 221.072,338.171 188.5,339C 187.54,340.419 186.707,341.919 186,343.5C 185.5,342.5 185,341.5 184.5,340.5C 184.5,249.167 184.5,157.833 184.5,66.5C 185,65.5 185.5,64.5 186,63.5C 186.707,65.0806 187.54,66.5806 188.5,68C 229.915,68.3863 271.248,68.7196 312.5,69C 311.167,69.3333 309.833,69.6667 308.5,70C 311.051,70.0023 313.051,70.8356 314.5,72.5 Z"/></g>
<g><path style="opacity:1" fill="#333333" d="M 186.5,70.5 C 224.331,69.3355 262.331,69.1689 300.5,70C 302.708,70.1909 304.708,70.6909 306.5,71.5C 266.514,70.5477 226.514,70.2144 186.5,70.5 Z"/></g>
<g><path style="opacity:1" fill="#fdfdfd" d="M 186.5,70.5 C 226.514,70.2144 266.514,70.5477 306.5,71.5C 306.833,71.5 307.167,71.5 307.5,71.5C 311.445,73.6262 315.778,74.6262 320.5,74.5C 323.426,75.4608 326.426,76.1274 329.5,76.5C 329.973,77.9063 330.973,78.573 332.5,78.5C 336.953,80.2263 341.286,82.2263 345.5,84.5C 349.806,88.6346 354.306,92.6346 359,96.5C 362.716,101.938 365.882,107.605 368.5,113.5C 368.41,116.152 369.076,118.485 370.5,120.5C 373.491,133.663 372.824,146.663 368.5,159.5C 367.094,159.973 366.427,160.973 366.5,162.5C 364.671,166.828 362.338,170.828 359.5,174.5C 357.413,175.585 356.08,177.251 355.5,179.5C 348.765,184.23 341.765,188.563 334.5,192.5C 331.888,193.371 329.221,194.037 326.5,194.5C 326.5,195.5 326.5,196.5 326.5,197.5C 328.5,197.5 330.5,197.5 332.5,197.5C 335.254,198.946 338.254,199.946 341.5,200.5C 353.675,205.008 363.842,212.342 372,222.5C 373.18,224.86 374.347,227.193 375.5,229.5C 375.427,231.027 376.094,232.027 377.5,232.5C 377.893,234.284 378.559,235.95 379.5,237.5C 379.41,240.152 380.076,242.485 381.5,244.5C 382.716,255.173 382.716,265.84 381.5,276.5C 380.841,279.455 380.508,282.455 380.5,285.5C 378.103,288.288 376.436,291.621 375.5,295.5C 367.241,310.086 355.241,320.42 339.5,326.5C 335.851,327.267 332.518,328.6 329.5,330.5C 323.648,332.421 317.648,333.755 311.5,334.5C 307.865,335.114 304.198,335.448 300.5,335.5C 262.514,336.45 224.514,336.783 186.5,336.5C 186.5,247.833 186.5,159.167 186.5,70.5 Z"/></g>
<g><path style="opacity:1" fill="#c6c6c6" d="M 307.5,71.5 C 309.903,71.448 312.236,71.7814 314.5,72.5C 316.698,72.8751 318.698,73.5418 320.5,74.5C 315.778,74.6262 311.445,73.6262 307.5,71.5 Z"/></g>
<g><path style="opacity:1" fill="#767676" d="M 329.5,76.5 C 331.027,76.427 332.027,77.0937 332.5,78.5C 330.973,78.573 329.973,77.9063 329.5,76.5 Z"/></g>
<g><path style="opacity:1" fill="#1b1b1b" d="M 368.5,113.5 C 365.882,107.605 362.716,101.938 359,96.5C 354.306,92.6346 349.806,88.6346 345.5,84.5C 349.356,82.8503 351.522,84.1837 352,88.5C 357.312,90.9874 361.479,95.3207 364.5,101.5C 365.376,102.251 366.376,102.751 367.5,103C 366.692,103.308 366.025,103.808 365.5,104.5C 366.305,106.472 367.639,107.972 369.5,109C 368.62,110.356 368.286,111.856 368.5,113.5 Z"/></g>
<g><path style="opacity:1" fill="#a7a7a7" d="M 287.5,111.5 C 291.489,111.116 295.155,111.783 298.5,113.5C 294.64,113.192 290.974,112.525 287.5,111.5 Z"/></g>
<g><path style="opacity:1" fill="#010101" d="M 286.5,111.5 C 286.833,111.5 287.167,111.5 287.5,111.5C 290.974,112.525 294.64,113.192 298.5,113.5C 308.35,115.682 316.017,121.015 321.5,129.5C 323.271,137.353 323.938,145.353 323.5,153.5C 319.759,164.907 312.092,172.241 300.5,175.5C 295.516,176.275 290.516,176.942 285.5,177.5C 268.833,177.5 252.167,177.5 235.5,177.5C 235.5,155.5 235.5,133.5 235.5,111.5C 252.5,111.5 269.5,111.5 286.5,111.5 Z"/></g>
<g><path style="opacity:1" fill="#313131" d="M 286.5,111.5 C 269.5,111.5 252.5,111.5 235.5,111.5C 235.5,133.5 235.5,155.5 235.5,177.5C 252.167,177.5 268.833,177.5 285.5,177.5C 285.5,177.833 285.5,178.167 285.5,178.5C 268.5,178.5 251.5,178.5 234.5,178.5C 234.5,156.167 234.5,133.833 234.5,111.5C 251.833,110.167 269.167,110.167 286.5,111.5 Z"/></g>
<g><path style="opacity:1" fill="#787878" d="M 368.5,113.5 C 369.924,115.515 370.59,117.848 370.5,120.5C 369.076,118.485 368.41,116.152 368.5,113.5 Z"/></g>
<g><path style="opacity:1" fill="#484848" d="M 321.5,129.5 C 322.558,130.6 323.392,131.934 324,133.5C 324.821,140.346 324.654,147.013 323.5,153.5C 323.938,145.353 323.271,137.353 321.5,129.5 Z"/></g>
<g><path style="opacity:1" fill="#7d7d7d" d="M 368.5,159.5 C 368.573,161.027 367.906,162.027 366.5,162.5C 366.427,160.973 367.094,159.973 368.5,159.5 Z"/></g>
<g><path style="opacity:1" fill="#767676" d="M 300.5,175.5 C 300.082,176.222 299.416,176.722 298.5,177C 294.83,177.548 291.163,178.048 287.5,178.5C 286.833,178.5 286.167,178.5 285.5,178.5C 285.5,178.167 285.5,177.833 285.5,177.5C 290.516,176.942 295.516,176.275 300.5,175.5 Z"/></g>
<g><path style="opacity:1" fill="#4d4d4d" d="M 359.5,174.5 C 358.92,176.749 357.587,178.415 355.5,179.5C 356.08,177.251 357.413,175.585 359.5,174.5 Z"/></g>
<g><path style="opacity:1" fill="#969696" d="M 234.5,111.5 C 234.5,133.833 234.5,156.167 234.5,178.5C 251.5,178.5 268.5,178.5 285.5,178.5C 286.167,178.5 286.833,178.5 287.5,178.5C 269.674,179.497 251.674,179.83 233.5,179.5C 233.169,156.661 233.503,133.994 234.5,111.5 Z"/></g>
<g><path style="opacity:1" fill="#474747" d="M 334.5,192.5 C 332.615,194.311 330.281,195.478 327.5,196C 329.382,196.198 331.048,196.698 332.5,197.5C 330.5,197.5 328.5,197.5 326.5,197.5C 326.5,196.5 326.5,195.5 326.5,194.5C 329.221,194.037 331.888,193.371 334.5,192.5 Z"/></g>
<g><path style="opacity:1" fill="#7a7a7a" d="M 332.5,197.5 C 335.992,197.446 338.992,198.446 341.5,200.5C 338.254,199.946 335.254,198.946 332.5,197.5 Z"/></g>
<g><path style="opacity:1" fill="#7b7b7b" d="M 287.5,219.5 C 269.833,219.5 252.167,219.5 234.5,219.5C 234.5,244.833 234.5,270.167 234.5,295.5C 251.5,295.5 268.5,295.5 285.5,295.5C 268.341,296.497 251.008,296.83 233.5,296.5C 233.5,270.5 233.5,244.5 233.5,218.5C 251.674,218.17 269.674,218.503 287.5,219.5 Z"/></g>
<g><path style="opacity:1" fill="#020202" d="M 287.5,219.5 C 292.822,219.98 298.155,220.313 303.5,220.5C 305.102,222.074 307.102,222.741 309.5,222.5C 322.148,224.982 330.482,232.316 334.5,244.5C 334.5,252.833 334.5,261.167 334.5,269.5C 330.377,279.788 323.044,286.955 312.5,291C 308.291,291.881 304.291,293.047 300.5,294.5C 295.537,295.254 290.537,295.587 285.5,295.5C 268.5,295.5 251.5,295.5 234.5,295.5C 234.5,270.167 234.5,244.833 234.5,219.5C 252.167,219.5 269.833,219.5 287.5,219.5 Z"/></g>
<g><path style="opacity:1" fill="#939393" d="M 303.5,220.5 C 305.898,220.259 307.898,220.926 309.5,222.5C 307.102,222.741 305.102,222.074 303.5,220.5 Z"/></g>
<g><path style="opacity:1" fill="#818181" d="M 375.5,229.5 C 376.906,229.973 377.573,230.973 377.5,232.5C 376.094,232.027 375.427,231.027 375.5,229.5 Z"/></g>
<g><path style="opacity:1" fill="#8d8d8d" d="M 379.5,237.5 C 380.924,239.515 381.59,241.848 381.5,244.5C 380.076,242.485 379.41,240.152 379.5,237.5 Z"/></g>
<g><path style="opacity:1" fill="#454545" d="M 334.5,244.5 C 337.066,252.822 337.066,261.155 334.5,269.5C 334.5,261.167 334.5,252.833 334.5,244.5 Z"/></g>
<g><path style="opacity:1" fill="#b5b5b5" d="M 381.5,244.5 C 382.975,249.757 383.642,255.257 383.5,261C 383.674,266.421 383.007,271.587 381.5,276.5C 382.716,265.84 382.716,255.173 381.5,244.5 Z"/></g>
<g><path style="opacity:1" fill="#313131" d="M 380.5,285.5 C 381.412,286.738 381.579,288.072 381,289.5C 378.908,291.475 377.075,293.475 375.5,295.5C 376.436,291.621 378.103,288.288 380.5,285.5 Z"/></g>
<g><path style="opacity:1" fill="#dadada" d="M 300.5,294.5 C 300.082,295.222 299.416,295.722 298.5,296C 276.685,297.687 255.019,297.854 233.5,296.5C 251.008,296.83 268.341,296.497 285.5,295.5C 290.537,295.587 295.537,295.254 300.5,294.5 Z"/></g>
<g><path style="opacity:1" fill="#575757" d="M 339.5,326.5 C 336.691,328.897 333.358,330.23 329.5,330.5C 332.518,328.6 335.851,327.267 339.5,326.5 Z"/></g>
<g><path style="opacity:1" fill="#343434" d="M 300.5,335.5 C 298.369,336.314 296.036,336.814 293.5,337C 257.664,337.831 221.998,337.664 186.5,336.5C 224.514,336.783 262.514,336.45 300.5,335.5 Z"/></g>
</svg>
