<?xml version="1.0" encoding="UTF-8"?>
<!DOCTYPE svg PUBLIC "-//W3C//DTD SVG 1.1//EN" "http://www.w3.org/Graphics/SVG/1.1/DTD/svg11.dtd">
<svg xmlns="http://www.w3.org/2000/svg" version="1.1" width="532px" height="431px" style="shape-rendering:geometricPrecision; text-rendering:geometricPrecision; image-rendering:optimizeQuality; fill-rule:evenodd; clip-rule:evenodd" xmlns:xlink="http://www.w3.org/1999/xlink">
<g><path style="opacity:1" fill="#ab2c2e" d="M -0.5,-0.5 C 176.833,-0.5 354.167,-0.5 531.5,-0.5C 531.5,143.167 531.5,286.833 531.5,430.5C 354.167,430.5 176.833,430.5 -0.5,430.5C -0.5,286.833 -0.5,143.167 -0.5,-0.5 Z"/></g>
<g><path style="opacity:1" fill="#daa1a3" d="M 66.5,55.5 C 60.3776,55.2683 54.3776,55.9349 48.5,57.5C 54.2717,54.5197 60.2717,53.8531 66.5,55.5 Z"/></g>
<g><path style="opacity:1" fill="#fcf7f7" d="M 66.5,55.5 C 68.8945,56.0147 71.2278,56.6814 73.5,57.5C 77.2115,60.3146 81.2115,60.9813 85.5,59.5C 86.3382,59.1583 86.6716,58.4916 86.5,57.5C 87.5,57.5 88.5,57.5 89.5,57.5C 89.5,66.8333 89.5,76.1667 89.5,85.5C 88.5,85.5 87.5,85.5 86.5,85.5C 85.03,72.7198 78.3633,63.8864 66.5,59C 57.9914,56.756 51.9914,59.5893 48.5,67.5C 45.7232,72.0064 44.2232,77.0064 44,82.5C 43.1751,92.6753 43.3417,102.675 44.5,112.5C 44.5053,119.706 46.3387,126.372 50,132.5C 57.9523,139.975 66.4523,140.475 75.5,134C 80.2699,129.736 83.6032,124.569 85.5,118.5C 86.6411,116.333 87.6411,114 88.5,111.5C 89.8333,120.5 89.8333,129.5 88.5,138.5C 87.8165,138.137 87.1499,137.804 86.5,137.5C 86.2089,136.351 85.3756,135.684 84,135.5C 72.7364,141.476 60.9031,142.976 48.5,140C 32.0493,131.456 23.716,117.789 23.5,99C 23.8915,80.163 32.2248,66.3297 48.5,57.5C 54.3776,55.9349 60.3776,55.2683 66.5,55.5 Z"/></g>
<g><path style="opacity:1" fill="#c46869" d="M 73.5,57.5 C 77.3735,58.7613 81.3735,59.428 85.5,59.5C 81.2115,60.9813 77.2115,60.3146 73.5,57.5 Z"/></g>
<g><path style="opacity:1" fill="#d79fa3" d="M 86.5,57.5 C 87.5676,56.5655 88.901,56.2322 90.5,56.5C 90.8271,66.3478 90.4938,76.0144 89.5,85.5C 89.5,76.1667 89.5,66.8333 89.5,57.5C 88.5,57.5 87.5,57.5 86.5,57.5 Z"/></g>
<g><path style="opacity:1" fill="#fbf5f6" d="M 396.5,64.5 C 404.201,64.3622 407.367,68.0289 406,75.5C 403.565,80.2238 399.731,81.7238 394.5,80C 388.731,73.8002 389.398,68.6335 396.5,64.5 Z"/></g>
<g><path style="opacity:1" fill="#cd8184" d="M 48.5,67.5 C 46.6209,72.9838 45.4542,78.6505 45,84.5C 44.5002,93.8274 44.3335,103.161 44.5,112.5C 43.3417,102.675 43.1751,92.6753 44,82.5C 44.2232,77.0064 45.7232,72.0064 48.5,67.5 Z"/></g>
<g><path style="opacity:1" fill="#fcf7f7" d="M 155.5,133.5 C 154.326,134.514 153.66,135.847 153.5,137.5C 145.523,143.354 138.19,142.687 131.5,135.5C 124.005,141.442 115.672,142.942 106.5,140C 98.0744,135.394 95.5744,128.56 99,119.5C 100.777,117.21 102.944,115.543 105.5,114.5C 114.174,112.508 122.84,111.174 131.5,110.5C 131.821,105.305 131.487,100.305 130.5,95.5C 130.084,93.2475 128.751,91.7475 126.5,91C 122.5,90.3333 118.5,90.3333 114.5,91C 113.328,91.4186 112.328,92.0853 111.5,93C 117.336,95.22 118.836,99.0533 116,104.5C 112.744,106.429 109.244,106.929 105.5,106C 104.619,105.292 103.953,104.458 103.5,103.5C 103.113,99.5559 103.78,95.8892 105.5,92.5C 110.273,88.2466 115.939,86.5799 122.5,87.5C 128.819,87.0802 134.819,88.2469 140.5,91C 142.709,92.8734 144.542,95.04 146,97.5C 146.333,109.833 146.667,122.167 147,134.5C 150.552,135.972 152.218,134.638 152,130.5C 153.011,129.663 154.178,129.33 155.5,129.5C 155.5,130.833 155.5,132.167 155.5,133.5 Z"/></g>
<g><path style="opacity:1" fill="#fcf9f9" d="M 266.5,101.5 C 266.5,113.167 266.5,124.833 266.5,136.5C 269.167,136.5 271.833,136.5 274.5,136.5C 274.5,137.5 274.5,138.5 274.5,139.5C 264.167,139.5 253.833,139.5 243.5,139.5C 243.263,138.209 243.596,137.209 244.5,136.5C 246.5,136.5 248.5,136.5 250.5,136.5C 250.667,122.496 250.5,108.496 250,94.5C 246.376,90.533 242.876,90.533 239.5,94.5C 236.757,96.2393 234.757,98.5726 233.5,101.5C 232.778,101.918 232.278,102.584 232,103.5C 231.174,114.674 231.341,125.674 232.5,136.5C 234.5,136.5 236.5,136.5 238.5,136.5C 238.5,137.5 238.5,138.5 238.5,139.5C 228.167,139.5 217.833,139.5 207.5,139.5C 207.5,138.5 207.5,137.5 207.5,136.5C 210.167,136.5 212.833,136.5 215.5,136.5C 215.5,121.5 215.5,106.5 215.5,91.5C 212.833,91.5 210.167,91.5 207.5,91.5C 207.5,90.5 207.5,89.5 207.5,88.5C 215.5,88.5 223.5,88.5 231.5,88.5C 231.192,90.924 231.526,93.2573 232.5,95.5C 233.107,95.3764 233.44,95.0431 233.5,94.5C 241.116,86.2653 250.116,84.432 260.5,89C 264.524,92.2132 266.524,96.3799 266.5,101.5 Z"/></g>
<g><path style="opacity:1" fill="#fbf6f6" d="M 324.5,111.5 C 313.833,111.5 303.167,111.5 292.5,111.5C 292.178,117.358 292.511,123.025 293.5,128.5C 295.39,136.452 300.39,139.286 308.5,137C 315.741,134.391 320.075,129.225 321.5,121.5C 322.325,120.614 323.325,120.281 324.5,120.5C 321.226,136.914 311.226,143.748 294.5,141C 277.616,134.401 271.45,122.234 276,104.5C 284.641,87.2861 297.474,83.1194 314.5,92C 321.14,96.8062 324.474,103.306 324.5,111.5 Z"/></g>
<g><path style="opacity:1" fill="#fcf7f7" d="M 464.5,111.5 C 453.833,111.5 443.167,111.5 432.5,111.5C 432.181,116.363 432.514,121.03 433.5,125.5C 434.618,136.738 440.618,140.404 451.5,136.5C 452.833,136.5 453.5,137.167 453.5,138.5C 436.287,145.311 423.787,140.311 416,123.5C 415.501,118.511 415.334,113.511 415.5,108.5C 417.074,106.898 417.741,104.898 417.5,102.5C 425.823,87.5184 437.823,83.6851 453.5,91C 460.48,96.1242 464.146,102.958 464.5,111.5 Z"/></g>
<g><path style="opacity:1" fill="#e8c7cb" d="M 156.5,88.5 C 164.5,88.5 172.5,88.5 180.5,88.5C 180.198,91.0593 180.532,93.3926 181.5,95.5C 181.44,96.0431 181.107,96.3764 180.5,96.5C 179.526,94.2573 179.192,91.924 179.5,89.5C 171.757,88.8701 164.424,89.5367 157.5,91.5C 156.596,90.791 156.263,89.791 156.5,88.5 Z"/></g>
<g><path style="opacity:1" fill="#ca7c80" d="M 231.5,88.5 C 232.167,90.5 232.833,92.5 233.5,94.5C 233.44,95.0431 233.107,95.3764 232.5,95.5C 231.526,93.2573 231.192,90.924 231.5,88.5 Z"/></g>
<g><path style="opacity:1" fill="#fefcfc" d="M 382.5,136.5 C 385.167,136.5 387.833,136.5 390.5,136.5C 390.5,121.5 390.5,106.5 390.5,91.5C 388.5,91.5 386.5,91.5 384.5,91.5C 384.5,90.5 384.5,89.5 384.5,88.5C 391.833,88.5 399.167,88.5 406.5,88.5C 406.5,104.5 406.5,120.5 406.5,136.5C 409.167,136.5 411.833,136.5 414.5,136.5C 414.5,137.5 414.5,138.5 414.5,139.5C 403.833,139.5 393.167,139.5 382.5,139.5C 382.5,138.5 382.5,137.5 382.5,136.5 Z"/></g>
<g><path style="opacity:1" fill="#fcf9f9" d="M 191.5,139.5 C 179.833,139.5 168.167,139.5 156.5,139.5C 156.5,138.5 156.5,137.5 156.5,136.5C 159.167,136.5 161.833,136.5 164.5,136.5C 164.5,121.5 164.5,106.5 164.5,91.5C 162.167,91.5 159.833,91.5 157.5,91.5C 164.424,89.5367 171.757,88.8701 179.5,89.5C 179.192,91.924 179.526,94.2573 180.5,96.5C 181.107,96.3764 181.44,96.0431 181.5,95.5C 185.999,87.3876 192.665,84.8876 201.5,88C 204.915,92.0638 205.415,96.5638 203,101.5C 193.326,106.74 188.159,103.74 187.5,92.5C 183.747,96.0063 181.58,100.34 181,105.5C 180.5,115.828 180.334,126.161 180.5,136.5C 184.167,136.5 187.833,136.5 191.5,136.5C 191.5,137.5 191.5,138.5 191.5,139.5 Z"/></g>
<g><path style="opacity:1" fill="#ad3032" d="M 306.5,96.5 C 306.5,100.167 306.5,103.833 306.5,107.5C 302.167,107.5 297.833,107.5 293.5,107.5C 293.5,103.167 293.5,98.8333 293.5,94.5C 296.267,90.2556 299.934,89.4223 304.5,92C 306.037,93.1096 306.703,94.6096 306.5,96.5 Z"/></g>
<g><path style="opacity:1" fill="#ab2c2f" d="M 446.5,96.5 C 446.5,100.167 446.5,103.833 446.5,107.5C 442.167,107.5 437.833,107.5 433.5,107.5C 433.5,103.833 433.5,100.167 433.5,96.5C 435.234,90.6394 438.9,89.1394 444.5,92C 445.582,93.3297 446.249,94.8297 446.5,96.5 Z"/></g>
<g><path style="opacity:1" fill="#ca7a7d" d="M 156.5,88.5 C 156.263,89.791 156.596,90.791 157.5,91.5C 159.833,91.5 162.167,91.5 164.5,91.5C 164.5,106.5 164.5,121.5 164.5,136.5C 161.833,136.5 159.167,136.5 156.5,136.5C 156.5,137.5 156.5,138.5 156.5,139.5C 168.167,139.5 179.833,139.5 191.5,139.5C 179.678,140.495 167.678,140.828 155.5,140.5C 155.657,139.127 155.49,137.793 155,136.5C 154.617,137.056 154.117,137.389 153.5,137.5C 153.66,135.847 154.326,134.514 155.5,133.5C 157.635,135.369 160.302,136.036 163.5,135.5C 163.5,121.167 163.5,106.833 163.5,92.5C 160.833,92.5 158.167,92.5 155.5,92.5C 155.232,90.901 155.566,89.5676 156.5,88.5 Z"/></g>
<g><path style="opacity:1" fill="#bb5258" d="M 207.5,91.5 C 210.167,91.5 212.833,91.5 215.5,91.5C 215.5,106.5 215.5,121.5 215.5,136.5C 212.833,136.5 210.167,136.5 207.5,136.5C 209.607,135.532 211.941,135.198 214.5,135.5C 214.5,121.167 214.5,106.833 214.5,92.5C 211.941,92.8016 209.607,92.4682 207.5,91.5 Z"/></g>
<g><path style="opacity:1" fill="#be5b62" d="M 384.5,91.5 C 386.5,91.5 388.5,91.5 390.5,91.5C 390.5,106.5 390.5,121.5 390.5,136.5C 387.833,136.5 385.167,136.5 382.5,136.5C 384.607,135.532 386.941,135.198 389.5,135.5C 389.5,121.167 389.5,106.833 389.5,92.5C 387.585,92.7845 385.919,92.4511 384.5,91.5 Z"/></g>
<g><path style="opacity:1" fill="#b74a4d" d="M 244.5,136.5 C 245.919,135.549 247.585,135.216 249.5,135.5C 249.667,122.163 249.5,108.829 249,95.5C 246.113,93.161 242.946,92.8276 239.5,94.5C 242.876,90.533 246.376,90.533 250,94.5C 250.5,108.496 250.667,122.496 250.5,136.5C 248.5,136.5 246.5,136.5 244.5,136.5 Z"/></g>
<g><path style="opacity:1" fill="#e7c0c2" d="M 105.5,92.5 C 103.78,95.8892 103.113,99.5559 103.5,103.5C 102.883,103.389 102.383,103.056 102,102.5C 100.755,98.2353 101.922,94.902 105.5,92.5 Z"/></g>
<g><path style="opacity:1" fill="#c8767c" d="M 130.5,95.5 C 131.487,100.305 131.821,105.305 131.5,110.5C 130.5,110.5 129.5,110.5 128.5,110.5C 130.36,105.807 131.026,100.807 130.5,95.5 Z"/></g>
<g><path style="opacity:1" fill="#c2666c" d="M 266.5,101.5 C 267.495,112.654 267.828,123.988 267.5,135.5C 270.059,135.198 272.393,135.532 274.5,136.5C 271.833,136.5 269.167,136.5 266.5,136.5C 266.5,124.833 266.5,113.167 266.5,101.5 Z"/></g>
<g><path style="opacity:1" fill="#ca7b7e" d="M 233.5,101.5 C 232.587,113.136 232.254,124.803 232.5,136.5C 231.341,125.674 231.174,114.674 232,103.5C 232.278,102.584 232.778,101.918 233.5,101.5 Z"/></g>
<g><path style="opacity:1" fill="#c9787c" d="M 293.5,94.5 C 293.5,98.8333 293.5,103.167 293.5,107.5C 297.833,107.5 302.167,107.5 306.5,107.5C 306.5,103.833 306.5,100.167 306.5,96.5C 307.483,100.298 307.817,104.298 307.5,108.5C 302.5,108.5 297.5,108.5 292.5,108.5C 292.181,103.637 292.514,98.97 293.5,94.5 Z"/></g>
<g><path style="opacity:1" fill="#d59396" d="M 417.5,102.5 C 417.741,104.898 417.074,106.898 415.5,108.5C 415.259,106.102 415.926,104.102 417.5,102.5 Z"/></g>
<g><path style="opacity:1" fill="#c8767b" d="M 433.5,96.5 C 433.5,100.167 433.5,103.833 433.5,107.5C 437.833,107.5 442.167,107.5 446.5,107.5C 446.5,103.833 446.5,100.167 446.5,96.5C 447.483,100.298 447.817,104.298 447.5,108.5C 442.5,108.5 437.5,108.5 432.5,108.5C 432.183,104.298 432.517,100.298 433.5,96.5 Z"/></g>
<g><path style="opacity:1" fill="#e4b9bb" d="M 128.5,110.5 C 129.5,110.5 130.5,110.5 131.5,110.5C 122.84,111.174 114.174,112.508 105.5,114.5C 106.842,113.207 108.509,112.374 110.5,112C 116.445,110.838 122.445,110.338 128.5,110.5 Z"/></g>
<g><path style="opacity:1" fill="#e9c8cb" d="M 86.5,137.5 C 87.1499,137.804 87.8165,138.137 88.5,138.5C 89.8333,129.5 89.8333,120.5 88.5,111.5C 87.6411,114 86.6411,116.333 85.5,118.5C 85.8333,115.833 86.1667,113.167 86.5,110.5C 87.8333,110.5 89.1667,110.5 90.5,110.5C 90.5,120.5 90.5,130.5 90.5,140.5C 88.0274,140.912 86.6941,139.912 86.5,137.5 Z"/></g>
<g><path style="opacity:1" fill="#c87577" d="M 324.5,111.5 C 314.347,112.494 304.014,112.828 293.5,112.5C 293.5,117.833 293.5,123.167 293.5,128.5C 292.511,123.025 292.178,117.358 292.5,111.5C 303.167,111.5 313.833,111.5 324.5,111.5 Z"/></g>
<g><path style="opacity:1" fill="#ca7b7d" d="M 464.5,111.5 C 454.347,112.494 444.014,112.828 433.5,112.5C 433.5,116.833 433.5,121.167 433.5,125.5C 432.514,121.03 432.181,116.363 432.5,111.5C 443.167,111.5 453.833,111.5 464.5,111.5 Z"/></g>
<g><path style="opacity:1" fill="#ae3334" d="M 120.5,114.5 C 123.833,114.5 127.167,114.5 130.5,114.5C 130.5,119.167 130.5,123.833 130.5,128.5C 129.858,133.808 126.858,136.808 121.5,137.5C 119.303,137.152 117.47,136.152 116,134.5C 114.483,128.92 114.149,123.253 115,117.5C 116.488,115.84 118.321,114.84 120.5,114.5 Z"/></g>
<g><path style="opacity:1" fill="#cc7d83" d="M 120.5,114.5 C 123.962,113.518 127.629,113.185 131.5,113.5C 131.821,118.695 131.487,123.695 130.5,128.5C 130.5,123.833 130.5,119.167 130.5,114.5C 127.167,114.5 123.833,114.5 120.5,114.5 Z"/></g>
<g><path style="opacity:1" fill="#faf3f3" d="M 335.5,123.5 C 332.876,125.198 332.876,127.031 335.5,129C 344.494,129.5 353.494,129.666 362.5,129.5C 372.962,132.069 377.128,138.736 375,149.5C 372.833,161 366,167.833 354.5,170C 345.427,171.763 337.094,170.096 329.5,165C 322.801,155.865 324.468,148.865 334.5,144C 328.412,139.748 326.246,133.915 328,126.5C 330.222,122.612 333.388,119.779 337.5,118C 329.719,112.649 327.552,105.482 331,96.5C 340.438,86.7881 351.438,84.7881 364,90.5C 369.423,86.5842 374.756,86.5842 380,90.5C 381.467,97.2016 378.967,99.535 372.5,97.5C 371.205,95.6721 370.205,93.6721 369.5,91.5C 368.328,91.9186 367.328,92.5853 366.5,93.5C 374.086,106.513 370.752,115.68 356.5,121C 351.313,121.637 346.146,121.471 341,120.5C 338.345,120.124 336.512,121.124 335.5,123.5 Z"/></g>
<g><path style="opacity:1" fill="#ad3133" d="M 346.5,90.5 C 349.93,90.1065 353.096,90.7732 356,92.5C 356.667,99.8333 356.667,107.167 356,114.5C 353.091,117.394 349.591,118.227 345.5,117C 344.874,116.25 344.374,115.416 344,114.5C 343.333,107.5 343.333,100.5 344,93.5C 345.045,92.6266 345.878,91.6266 346.5,90.5 Z"/></g>
<g><path style="opacity:1" fill="#f1dadb" d="M 453.5,138.5 C 453.5,137.167 452.833,136.5 451.5,136.5C 456.834,132.514 460.168,127.181 461.5,120.5C 462.833,120.5 464.167,120.5 465.5,120.5C 463.992,128.187 459.992,134.187 453.5,138.5 Z"/></g>
<g><path style="opacity:1" fill="#c66f70" d="M 335.5,123.5 C 335.286,125.144 335.62,126.644 336.5,128C 345.343,128.17 354.01,128.67 362.5,129.5C 353.494,129.666 344.494,129.5 335.5,129C 332.876,127.031 332.876,125.198 335.5,123.5 Z"/></g>
<g><path style="opacity:1" fill="#ac2e31" d="M 336.5,144.5 C 347.245,144.071 357.912,144.571 368.5,146C 370.915,155.274 367.582,161.607 358.5,165C 352.28,167.789 345.946,168.123 339.5,166C 333.158,162.638 330.992,157.472 333,150.5C 334.442,148.609 335.609,146.609 336.5,144.5 Z"/></g>
<g><path style="opacity:1" fill="#ddacb0" d="M 23.5,159.5 C 33.3247,158.342 43.3247,158.175 53.5,159C 54.8672,161.301 55.5339,163.801 55.5,166.5C 54.4217,164.461 53.4217,162.294 52.5,160C 42.8391,159.5 33.1724,159.334 23.5,159.5 Z"/></g>
<g><path style="opacity:1" fill="#e0b6ba" d="M 90.5,159.5 C 99.3178,158.507 108.318,158.173 117.5,158.5C 117.5,159.833 117.5,161.167 117.5,162.5C 115.167,162.5 112.833,162.5 110.5,162.5C 112.369,161.835 114.369,161.169 116.5,160.5C 107.859,159.502 99.1922,159.169 90.5,159.5 Z"/></g>
<g><path style="opacity:1" fill="#dcaaae" d="M 192.5,159.5 C 184.472,159.169 176.472,159.502 168.5,160.5C 171.306,161.168 173.972,161.834 176.5,162.5C 176.167,162.5 175.833,162.5 175.5,162.5C 172.833,162.5 170.167,162.5 167.5,162.5C 167.5,161.167 167.5,159.833 167.5,158.5C 176.017,158.174 184.35,158.507 192.5,159.5 Z"/></g>
<g><path style="opacity:1" fill="#fdf9f9" d="M 23.5,159.5 C 33.1724,159.334 42.8391,159.5 52.5,160C 53.4217,162.294 54.4217,164.461 55.5,166.5C 56.5375,167.93 57.2041,169.597 57.5,171.5C 57.677,175.708 59.0103,179.374 61.5,182.5C 64.9064,192.554 68.4064,202.554 72,212.5C 78.077,194.767 84.2437,177.101 90.5,159.5C 99.1922,159.169 107.859,159.502 116.5,160.5C 114.369,161.169 112.369,161.835 110.5,162.5C 109.502,187.328 109.169,212.328 109.5,237.5C 112.167,237.5 114.833,237.5 117.5,237.5C 117.5,238.5 117.5,239.5 117.5,240.5C 106.833,240.5 96.1667,240.5 85.5,240.5C 85.5,239.5 85.5,238.5 85.5,237.5C 88.1667,237.5 90.8333,237.5 93.5,237.5C 93.6666,213.164 93.5,188.831 93,164.5C 91.9614,165.244 91.4614,166.244 91.5,167.5C 82.9744,191.743 74.6411,216.076 66.5,240.5C 65.1667,240.5 63.8333,240.5 62.5,240.5C 62.7373,239.209 62.404,238.209 61.5,237.5C 61.5,237.167 61.5,236.833 61.5,236.5C 61.0652,233.843 60.0652,231.509 58.5,229.5C 58.233,227.035 57.5664,224.701 56.5,222.5C 55.7333,218.851 54.3999,215.518 52.5,212.5C 51.6204,208.635 50.287,204.968 48.5,201.5C 48.5905,198.848 47.9238,196.515 46.5,194.5C 46.5,194.167 46.5,193.833 46.5,193.5C 45.917,190.053 44.5837,187.053 42.5,184.5C 40.4903,178.486 38.4903,172.486 36.5,166.5C 36.5386,165.244 36.0386,164.244 35,163.5C 34.1703,186.67 34.337,209.67 35.5,232.5C 35.7329,234.062 36.3995,235.395 37.5,236.5C 39.2549,237.792 41.2549,238.792 43.5,239.5C 36.8665,240.497 30.1998,240.83 23.5,240.5C 23.5,239.5 23.5,238.5 23.5,237.5C 27.1398,237.525 29.4731,235.858 30.5,232.5C 31.4975,209.339 31.8309,186.006 31.5,162.5C 28.8333,162.5 26.1667,162.5 23.5,162.5C 23.5,161.5 23.5,160.5 23.5,159.5 Z"/></g>
<g><path style="opacity:1" fill="#fefcfc" d="M 192.5,159.5 C 192.5,185.5 192.5,211.5 192.5,237.5C 195.167,237.5 197.833,237.5 200.5,237.5C 200.5,238.5 200.5,239.5 200.5,240.5C 189.833,240.5 179.167,240.5 168.5,240.5C 168.5,239.5 168.5,238.5 168.5,237.5C 171.167,237.5 173.833,237.5 176.5,237.5C 176.5,212.5 176.5,187.5 176.5,162.5C 173.972,161.834 171.306,161.168 168.5,160.5C 176.472,159.502 184.472,159.169 192.5,159.5 Z"/></g>
<g><path style="opacity:1" fill="#fdfcfc" d="M 202.5,159.5 C 210.167,159.5 217.833,159.5 225.5,159.5C 225.169,185.672 225.502,211.672 226.5,237.5C 229.167,237.5 231.833,237.5 234.5,237.5C 234.5,238.5 234.5,239.5 234.5,240.5C 223.833,240.5 213.167,240.5 202.5,240.5C 202.5,239.5 202.5,238.5 202.5,237.5C 205.167,237.5 207.833,237.5 210.5,237.5C 210.831,212.328 210.498,187.328 209.5,162.5C 207.167,162.5 204.833,162.5 202.5,162.5C 202.5,161.5 202.5,160.5 202.5,159.5 Z"/></g>
<g><path style="opacity:1" fill="#eed6d8" d="M 202.5,159.5 C 210.316,158.508 218.316,158.174 226.5,158.5C 226.5,184.833 226.5,211.167 226.5,237.5C 225.502,211.672 225.169,185.672 225.5,159.5C 217.833,159.5 210.167,159.5 202.5,159.5 Z"/></g>
<g><path style="opacity:1" fill="#c46e71" d="M 226.5,158.5 C 227.498,184.328 227.831,210.328 227.5,236.5C 230.059,236.198 232.393,236.532 234.5,237.5C 231.833,237.5 229.167,237.5 226.5,237.5C 226.5,211.167 226.5,184.833 226.5,158.5 Z"/></g>
<g><path style="opacity:1" fill="#ba5056" d="M 23.5,162.5 C 26.1667,162.5 28.8333,162.5 31.5,162.5C 31.8309,186.006 31.4975,209.339 30.5,232.5C 30.5,209.5 30.5,186.5 30.5,163.5C 27.9407,163.802 25.6074,163.468 23.5,162.5 Z"/></g>
<g><path style="opacity:1" fill="#d49496" d="M 110.5,162.5 C 110.5,187.167 110.5,211.833 110.5,236.5C 113.059,236.198 115.393,236.532 117.5,237.5C 114.833,237.5 112.167,237.5 109.5,237.5C 109.169,212.328 109.502,187.328 110.5,162.5 Z"/></g>
<g><path style="opacity:1" fill="#cc7e80" d="M 175.5,162.5 C 175.833,162.5 176.167,162.5 176.5,162.5C 176.5,187.5 176.5,212.5 176.5,237.5C 173.833,237.5 171.167,237.5 168.5,237.5C 170.607,236.532 172.941,236.198 175.5,236.5C 175.5,211.833 175.5,187.167 175.5,162.5 Z"/></g>
<g><path style="opacity:1" fill="#bb555b" d="M 209.5,162.5 C 210.498,187.328 210.831,212.328 210.5,237.5C 207.833,237.5 205.167,237.5 202.5,237.5C 204.607,236.532 206.941,236.198 209.5,236.5C 209.5,211.833 209.5,187.167 209.5,162.5 Z"/></g>
<g><path style="opacity:1" fill="#d1898f" d="M 36.5,166.5 C 35.5026,188.327 35.1693,210.327 35.5,232.5C 34.337,209.67 34.1703,186.67 35,163.5C 36.0386,164.244 36.5386,165.244 36.5,166.5 Z"/></g>
<g><path style="opacity:1" fill="#c8787d" d="M 85.5,237.5 C 87.6074,236.532 89.9407,236.198 92.5,236.5C 92.8308,213.327 92.4975,190.327 91.5,167.5C 91.4614,166.244 91.9614,165.244 93,164.5C 93.5,188.831 93.6666,213.164 93.5,237.5C 90.8333,237.5 88.1667,237.5 85.5,237.5 Z"/></g>
<g><path style="opacity:1" fill="#dda7a9" d="M 57.5,171.5 C 59.2043,174.939 60.5376,178.605 61.5,182.5C 59.0103,179.374 57.677,175.708 57.5,171.5 Z"/></g>
<g><path style="opacity:1" fill="#d7979a" d="M 42.5,184.5 C 44.5837,187.053 45.917,190.053 46.5,193.5C 44.4163,190.947 43.083,187.947 42.5,184.5 Z"/></g>
<g><path style="opacity:1" fill="#ca7b7d" d="M 149.5,188.5 C 144.797,188.437 140.13,188.771 135.5,189.5C 138.017,188.027 140.85,187.36 144,187.5C 146.033,187.506 147.866,187.839 149.5,188.5 Z"/></g>
<g><path style="opacity:1" fill="#c77274" d="M 268.5,188.5 C 263.438,188.274 258.438,188.608 253.5,189.5C 253.611,188.883 253.944,188.383 254.5,188C 259.352,187.185 264.019,187.352 268.5,188.5 Z"/></g>
<g><path style="opacity:1" fill="#d89b9e" d="M 339.5,188.5 C 334.13,188.392 328.797,188.725 323.5,189.5C 323.918,188.778 324.584,188.278 325.5,188C 330.352,187.185 335.019,187.352 339.5,188.5 Z"/></g>
<g><path style="opacity:1" fill="#fcf7f7" d="M 149.5,188.5 C 157.112,191.779 162.778,197.112 166.5,204.5C 166.833,207.167 167.167,209.833 167.5,212.5C 156.986,212.172 146.653,212.506 136.5,213.5C 136.171,220.241 136.671,226.908 138,233.5C 142.897,238.765 148.73,239.932 155.5,237C 160.404,233.36 163.404,228.526 164.5,222.5C 165.325,221.614 166.325,221.281 167.5,221.5C 166.545,232.762 160.545,239.428 149.5,241.5C 143.678,241.79 138.012,241.123 132.5,239.5C 127.855,236.855 124.188,233.188 121.5,228.5C 120.871,225.603 119.871,222.936 118.5,220.5C 117.244,206.199 122.91,195.865 135.5,189.5C 140.13,188.771 144.797,188.437 149.5,188.5 Z"/></g>
<g><path style="opacity:1" fill="#fcf8f9" d="M 268.5,188.5 C 276.918,190.925 283.252,195.925 287.5,203.5C 288.307,209.464 288.64,215.464 288.5,221.5C 286.135,232.862 279.135,239.528 267.5,241.5C 262.13,241.608 256.797,241.275 251.5,240.5C 245.283,238.281 240.616,234.281 237.5,228.5C 236.871,225.603 235.871,222.936 234.5,220.5C 234.21,214.678 234.877,209.012 236.5,203.5C 239.767,195.898 245.434,191.231 253.5,189.5C 258.438,188.608 263.438,188.274 268.5,188.5 Z"/></g>
<g><path style="opacity:1" fill="#fcf8f8" d="M 339.5,188.5 C 342.391,189.789 344.725,191.789 346.5,194.5C 346.892,196.179 347.392,197.846 348,199.5C 348.5,212.162 348.667,224.829 348.5,237.5C 351.167,237.5 353.833,237.5 356.5,237.5C 356.5,238.5 356.5,239.5 356.5,240.5C 346.5,240.5 336.5,240.5 326.5,240.5C 326.5,239.5 326.5,238.5 326.5,237.5C 328.5,237.5 330.5,237.5 332.5,237.5C 332.667,223.496 332.5,209.496 332,195.5C 326.48,192.194 321.813,193.194 318,198.5C 316.295,200.577 315.128,202.91 314.5,205.5C 313.506,215.987 313.172,226.654 313.5,237.5C 315.833,237.5 318.167,237.5 320.5,237.5C 320.5,238.833 320.5,240.167 320.5,241.5C 310.167,241.5 299.833,241.5 289.5,241.5C 289.5,240.167 289.5,238.833 289.5,237.5C 292.167,237.5 294.833,237.5 297.5,237.5C 297.5,222.833 297.5,208.167 297.5,193.5C 295.302,192.835 292.969,192.168 290.5,191.5C 297.803,190.503 305.137,190.169 312.5,190.5C 312.5,192.833 312.5,195.167 312.5,197.5C 313.791,197.737 314.791,197.404 315.5,196.5C 315.5,196.167 315.5,195.833 315.5,195.5C 317.8,193.016 320.467,191.016 323.5,189.5C 328.797,188.725 334.13,188.392 339.5,188.5 Z"/></g>
<g><path style="opacity:1" fill="#eccfd2" d="M 313.5,189.5 C 312.99,192.388 313.656,194.721 315.5,196.5C 314.791,197.404 313.791,197.737 312.5,197.5C 312.5,195.167 312.5,192.833 312.5,190.5C 305.137,190.169 297.803,190.503 290.5,191.5C 292.969,192.168 295.302,192.835 297.5,193.5C 297.167,193.5 296.833,193.5 296.5,193.5C 294.167,193.5 291.833,193.5 289.5,193.5C 289.5,192.167 289.5,190.833 289.5,189.5C 297.5,189.5 305.5,189.5 313.5,189.5 Z"/></g>
<g><path style="opacity:1" fill="#ca7e83" d="M 313.5,189.5 C 314.167,191.5 314.833,193.5 315.5,195.5C 315.5,195.833 315.5,196.167 315.5,196.5C 313.656,194.721 312.99,192.388 313.5,189.5 Z"/></g>
<g><path style="opacity:1" fill="#d0878a" d="M 266.5,192.5 C 263.098,192.342 259.764,192.676 256.5,193.5C 256.611,192.883 256.944,192.383 257.5,192C 260.696,191.195 263.696,191.362 266.5,192.5 Z"/></g>
<g><path style="opacity:1" fill="#ad3133" d="M 139.5,191.5 C 143.192,190.971 146.358,191.971 149,194.5C 150.325,199.401 150.825,204.401 150.5,209.5C 145.833,209.5 141.167,209.5 136.5,209.5C 136.334,204.821 136.501,200.155 137,195.5C 138.481,194.529 139.315,193.196 139.5,191.5 Z"/></g>
<g><path style="opacity:1" fill="#ad3032" d="M 266.5,192.5 C 268.696,193.854 270.196,195.854 271,198.5C 271.667,209.167 271.667,219.833 271,230.5C 268.604,237.861 263.771,240.028 256.5,237C 254.959,235.421 253.792,233.587 253,231.5C 252.333,220.5 252.333,209.5 253,198.5C 253.697,196.416 254.864,194.749 256.5,193.5C 259.764,192.676 263.098,192.342 266.5,192.5 Z"/></g>
<g><path style="opacity:1" fill="#bc585c" d="M 296.5,193.5 C 296.833,193.5 297.167,193.5 297.5,193.5C 297.5,208.167 297.5,222.833 297.5,237.5C 294.833,237.5 292.167,237.5 289.5,237.5C 291.607,236.532 293.941,236.198 296.5,236.5C 296.5,222.167 296.5,207.833 296.5,193.5 Z"/></g>
<g><path style="opacity:1" fill="#ca787b" d="M 46.5,194.5 C 47.9238,196.515 48.5905,198.848 48.5,201.5C 47.0762,199.485 46.4095,197.152 46.5,194.5 Z"/></g>
<g><path style="opacity:1" fill="#cb8186" d="M 314.5,205.5 C 314.5,215.833 314.5,226.167 314.5,236.5C 316.735,236.205 318.735,236.539 320.5,237.5C 318.167,237.5 315.833,237.5 313.5,237.5C 313.172,226.654 313.506,215.987 314.5,205.5 Z"/></g>
<g><path style="opacity:1" fill="#c87477" d="M 236.5,203.5 C 234.877,209.012 234.21,214.678 234.5,220.5C 233.355,216.689 233.188,212.689 234,208.5C 234.374,206.509 235.207,204.842 236.5,203.5 Z"/></g>
<g><path style="opacity:1" fill="#c3686f" d="M 166.5,204.5 C 168.265,207.123 168.932,210.123 168.5,213.5C 157.833,213.5 147.167,213.5 136.5,213.5C 146.653,212.506 156.986,212.172 167.5,212.5C 167.167,209.833 166.833,207.167 166.5,204.5 Z"/></g>
<g><path style="opacity:1" fill="#e7c1c4" d="M 287.5,203.5 C 288.222,203.918 288.722,204.584 289,205.5C 289.817,211.016 289.651,216.35 288.5,221.5C 288.64,215.464 288.307,209.464 287.5,203.5 Z"/></g>
<g><path style="opacity:1" fill="#c77072" d="M 52.5,212.5 C 54.3999,215.518 55.7333,218.851 56.5,222.5C 54.1034,219.691 52.7701,216.358 52.5,212.5 Z"/></g>
<g><path style="opacity:1" fill="#c97679" d="M 118.5,220.5 C 119.871,222.936 120.871,225.603 121.5,228.5C 119.345,226.383 118.345,223.716 118.5,220.5 Z"/></g>
<g><path style="opacity:1" fill="#cb797d" d="M 234.5,220.5 C 235.871,222.936 236.871,225.603 237.5,228.5C 235.345,226.383 234.345,223.716 234.5,220.5 Z"/></g>
<g><path style="opacity:1" fill="#c76f72" d="M 58.5,229.5 C 60.0652,231.509 61.0652,233.843 61.5,236.5C 59.1663,234.824 58.1663,232.491 58.5,229.5 Z"/></g>
<g><path style="opacity:1" fill="#d69697" d="M 37.5,236.5 C 39.5273,236.338 41.5273,236.505 43.5,237C 44.3802,238.356 44.7135,239.856 44.5,241.5C 37.3134,241.825 30.3134,241.491 23.5,240.5C 30.1998,240.83 36.8665,240.497 43.5,239.5C 41.2549,238.792 39.2549,237.792 37.5,236.5 Z"/></g>
<g><path style="opacity:1" fill="#cb7a7c" d="M 61.5,237.5 C 62.404,238.209 62.7373,239.209 62.5,240.5C 63.8333,240.5 65.1667,240.5 66.5,240.5C 65.0813,241.451 63.4147,241.784 61.5,241.5C 61.5,240.167 61.5,238.833 61.5,237.5 Z"/></g>
<g><path style="opacity:1" fill="#d18c8d" d="M 117.5,237.5 C 118.434,238.568 118.768,239.901 118.5,241.5C 107.321,241.828 96.3206,241.495 85.5,240.5C 96.1667,240.5 106.833,240.5 117.5,240.5C 117.5,239.5 117.5,238.5 117.5,237.5 Z"/></g>
<g><path style="opacity:1" fill="#d28e8f" d="M 168.5,237.5 C 168.5,238.5 168.5,239.5 168.5,240.5C 179.167,240.5 189.833,240.5 200.5,240.5C 189.679,241.495 178.679,241.828 167.5,241.5C 167.232,239.901 167.566,238.568 168.5,237.5 Z"/></g>
<g><path style="opacity:1" fill="#d28e90" d="M 234.5,237.5 C 235.434,238.568 235.768,239.901 235.5,241.5C 224.321,241.828 213.321,241.495 202.5,240.5C 213.167,240.5 223.833,240.5 234.5,240.5C 234.5,239.5 234.5,238.5 234.5,237.5 Z"/></g>
<g><path style="opacity:1" fill="#d0898b" d="M 346.5,194.5 C 347.966,195.347 348.8,196.68 349,198.5C 349.5,211.162 349.667,223.829 349.5,236.5C 352.167,236.5 354.833,236.5 357.5,236.5C 357.5,238.167 357.5,239.833 357.5,241.5C 346.833,241.5 336.167,241.5 325.5,241.5C 325.232,239.901 325.566,238.568 326.5,237.5C 326.5,238.5 326.5,239.5 326.5,240.5C 336.5,240.5 346.5,240.5 356.5,240.5C 356.5,239.5 356.5,238.5 356.5,237.5C 353.833,237.5 351.167,237.5 348.5,237.5C 348.667,224.829 348.5,212.162 348,199.5C 347.392,197.846 346.892,196.179 346.5,194.5 Z"/></g>
<g><path style="opacity:1" fill="#dca4a7" d="M 132.5,239.5 C 138.012,241.123 143.678,241.79 149.5,241.5C 145.354,242.647 141.02,242.814 136.5,242C 134.934,241.392 133.6,240.558 132.5,239.5 Z"/></g>
<g><path style="opacity:1" fill="#d99ea1" d="M 251.5,240.5 C 256.797,241.275 262.13,241.608 267.5,241.5C 265.527,242.163 263.361,242.496 261,242.5C 257.523,242.672 254.356,242.006 251.5,240.5 Z"/></g>
<g><path style="opacity:1" fill="#eaced1" d="M 23.5,258.5 C 34.6544,257.505 45.9877,257.172 57.5,257.5C 57.7373,258.791 57.404,259.791 56.5,260.5C 45.8842,258.523 34.8842,257.856 23.5,258.5 Z"/></g>
<g><path style="opacity:1" fill="#e6c1c4" d="M 96.5,261.5 C 97.6808,259.933 99.3474,259.099 101.5,259C 95.1405,258.169 88.8072,258.336 82.5,259.5C 83.9492,260.172 85.2825,260.839 86.5,261.5C 84.8333,261.5 83.1667,261.5 81.5,261.5C 81.5,260.167 81.5,258.833 81.5,257.5C 88.5,257.5 95.5,257.5 102.5,257.5C 102.5,258.833 102.5,260.167 102.5,261.5C 100.5,261.5 98.5,261.5 96.5,261.5 Z"/></g>
<g><path style="opacity:1" fill="#fcf7f8" d="M 23.5,258.5 C 34.8842,257.856 45.8842,258.523 56.5,260.5C 53.8333,260.5 51.1667,260.5 48.5,260.5C 48.1698,279.341 48.5031,298.007 49.5,316.5C 54.1098,336.883 65.6098,341.883 84,331.5C 86.1939,328.446 87.8605,325.112 89,321.5C 89.6667,302.167 89.6667,282.833 89,263.5C 88.2917,262.619 87.4584,261.953 86.5,261.5C 85.2825,260.839 83.9492,260.172 82.5,259.5C 88.8072,258.336 95.1405,258.169 101.5,259C 99.3474,259.099 97.6808,259.933 96.5,261.5C 95.2101,262.058 94.3768,263.058 94,264.5C 93.6667,283.833 93.3333,303.167 93,322.5C 89.5349,333.493 82.0349,339.66 70.5,341C 57.3817,343.433 46.215,339.933 37,330.5C 34.3979,326.526 32.8979,322.193 32.5,317.5C 32.5,298.5 32.5,279.5 32.5,260.5C 29.5,260.5 26.5,260.5 23.5,260.5C 23.5,259.833 23.5,259.167 23.5,258.5 Z"/></g>
<g><path style="opacity:1" fill="#e7c1c3" d="M 23.5,260.5 C 26.5,260.5 29.5,260.5 32.5,260.5C 32.5,279.5 32.5,298.5 32.5,317.5C 31.5031,299.007 31.1698,280.341 31.5,261.5C 28.6146,261.806 25.9479,261.473 23.5,260.5 Z"/></g>
<g><path style="opacity:1" fill="#deacaf" d="M 56.5,260.5 C 54.3926,261.468 52.0593,261.802 49.5,261.5C 49.5,279.833 49.5,298.167 49.5,316.5C 48.5031,298.007 48.1698,279.341 48.5,260.5C 51.1667,260.5 53.8333,260.5 56.5,260.5 Z"/></g>
<g><path style="opacity:1" fill="#fbf4f5" d="M 502.5,292.5 C 501.081,291.549 499.415,291.216 497.5,291.5C 497.5,290.5 497.5,289.5 497.5,288.5C 503.5,288.5 509.5,288.5 515.5,288.5C 515.5,289.5 515.5,290.5 515.5,291.5C 512.675,291.081 510.509,292.081 509,294.5C 499.254,316.427 489.921,338.427 481,360.5C 477.832,367.168 472.665,369.668 465.5,368C 458.898,362.49 458.898,357.156 465.5,352C 470.844,350.838 474.844,352.671 477.5,357.5C 481.495,351.668 483.995,345.335 485,338.5C 478.031,323.276 471.364,307.943 465,292.5C 459.593,291.527 454.093,291.193 448.5,291.5C 448.333,305.504 448.5,319.504 449,333.5C 449.739,334.574 450.739,335.241 452,335.5C 454.298,334.039 456.465,332.372 458.5,330.5C 459.308,330.808 459.975,331.308 460.5,332C 454.285,340.765 446.285,342.765 436.5,338C 435.117,336.729 434.117,335.229 433.5,333.5C 432.535,319.549 432.201,305.549 432.5,291.5C 430.5,291.5 428.5,291.5 426.5,291.5C 426.5,290.167 426.5,288.833 426.5,287.5C 439.413,284.902 445.747,276.902 445.5,263.5C 446.5,263.5 447.5,263.5 448.5,263.5C 448.5,271.5 448.5,279.5 448.5,287.5C 461.833,287.5 475.167,287.5 488.5,287.5C 488.5,288.833 488.5,290.167 488.5,291.5C 486.396,291.201 484.396,291.534 482.5,292.5C 486.243,300.986 490.243,309.319 494.5,317.5C 497.811,311.41 500.644,305.077 503,298.5C 503.789,296.288 503.622,294.288 502.5,292.5 Z"/></g>
<g><path style="opacity:1" fill="#fcf6f7" d="M 182.5,264.5 C 192.059,263.546 195.559,267.546 193,276.5C 187.837,282.062 183.171,281.729 179,275.5C 177.518,270.774 178.685,267.107 182.5,264.5 Z"/></g>
<g><path style="opacity:1" fill="#faf1f2" d="M 406.5,264.5 C 415.708,262.887 419.875,266.554 419,275.5C 414.306,281.645 409.306,281.979 404,276.5C 401.696,271.855 402.529,267.855 406.5,264.5 Z"/></g>
<g><path style="opacity:1" fill="#fdfbfb" d="M 157.5,293.5 C 157.892,295.179 158.392,296.846 159,298.5C 159.5,311.162 159.667,323.829 159.5,336.5C 162.167,336.5 164.833,336.5 167.5,336.5C 167.5,337.5 167.5,338.5 167.5,339.5C 157.5,339.5 147.5,339.5 137.5,339.5C 137.5,338.5 137.5,337.5 137.5,336.5C 139.735,336.795 141.735,336.461 143.5,335.5C 143.667,321.829 143.5,308.163 143,294.5C 139.974,291.136 136.474,290.636 132.5,293C 129.278,295.956 126.944,299.456 125.5,303.5C 124.883,303.611 124.383,303.944 124,304.5C 123.175,315.341 123.341,326.008 124.5,336.5C 126.833,336.5 129.167,336.5 131.5,336.5C 131.5,337.5 131.5,338.5 131.5,339.5C 121.167,339.5 110.833,339.5 100.5,339.5C 100.5,338.5 100.5,337.5 100.5,336.5C 103.167,336.5 105.833,336.5 108.5,336.5C 108.5,321.5 108.5,306.5 108.5,291.5C 105.833,291.5 103.167,291.5 100.5,291.5C 100.5,290.5 100.5,289.5 100.5,288.5C 108.5,288.5 116.5,288.5 124.5,288.5C 124.336,291.187 124.503,293.854 125,296.5C 132.33,286.194 141.83,283.694 153.5,289C 155.041,290.371 156.375,291.871 157.5,293.5 Z"/></g>
<g><path style="opacity:1" fill="#fcf8f9" d="M 299.5,301.5 C 299.963,304.482 300.296,307.482 300.5,310.5C 289.986,310.172 279.653,310.506 269.5,311.5C 269.179,317.026 269.512,322.36 270.5,327.5C 271.857,335.198 276.524,338.531 284.5,337.5C 286.415,337.216 288.081,337.549 289.5,338.5C 288.833,338.5 288.5,338.833 288.5,339.5C 283.537,340.254 278.537,340.587 273.5,340.5C 264.314,338.991 257.814,333.991 254,325.5C 249.382,311.116 252.882,299.283 264.5,290C 279.751,283.139 291.417,286.973 299.5,301.5 Z"/></g>
<g><path style="opacity:1" fill="#d49498" d="M 328.5,293.5 C 328.217,294.289 327.717,294.956 327,295.5C 326.503,293.19 326.337,290.857 326.5,288.5C 318.833,288.5 311.167,288.5 303.5,288.5C 303.5,289.5 303.5,290.5 303.5,291.5C 302.566,290.432 302.232,289.099 302.5,287.5C 310.833,287.5 319.167,287.5 327.5,287.5C 327.205,289.735 327.539,291.735 328.5,293.5 Z"/></g>
<g><path style="opacity:1" fill="#d59599" d="M 515.5,288.5 C 509.5,288.5 503.5,288.5 497.5,288.5C 497.5,289.5 497.5,290.5 497.5,291.5C 499.415,291.216 501.081,291.549 502.5,292.5C 500.5,292.5 498.5,292.5 496.5,292.5C 496.5,290.833 496.5,289.167 496.5,287.5C 503.022,287.177 509.355,287.51 515.5,288.5 Z"/></g>
<g><path style="opacity:1" fill="#fefdfd" d="M 194.5,336.5 C 197.167,336.5 199.833,336.5 202.5,336.5C 202.5,337.5 202.5,338.5 202.5,339.5C 191.5,339.5 180.5,339.5 169.5,339.5C 169.5,338.5 169.5,337.5 169.5,336.5C 172.167,336.5 174.833,336.5 177.5,336.5C 178.496,321.676 178.829,306.676 178.5,291.5C 175.833,291.5 173.167,291.5 170.5,291.5C 170.5,290.5 170.5,289.5 170.5,288.5C 178.167,288.5 185.833,288.5 193.5,288.5C 193.17,304.675 193.504,320.675 194.5,336.5 Z"/></g>
<g><path style="opacity:1" fill="#faf3f4" d="M 198.5,288.5 C 208.167,288.5 217.833,288.5 227.5,288.5C 227.5,289.5 227.5,290.5 227.5,291.5C 225.396,291.201 223.396,291.534 221.5,292.5C 225.783,300.731 229.783,309.064 233.5,317.5C 237.869,310.597 241.202,303.097 243.5,295C 243.415,293.893 243.081,292.893 242.5,292C 240.527,291.505 238.527,291.338 236.5,291.5C 236.5,290.5 236.5,289.5 236.5,288.5C 242.5,288.5 248.5,288.5 254.5,288.5C 254.5,289.5 254.5,290.5 254.5,291.5C 251.192,290.974 249.026,292.307 248,295.5C 241.984,309.527 235.984,323.527 230,337.5C 228.585,340.218 226.585,340.885 224,339.5C 217.528,323.752 210.862,308.085 204,292.5C 202.301,291.594 200.467,291.261 198.5,291.5C 198.5,290.5 198.5,289.5 198.5,288.5 Z"/></g>
<g><path style="opacity:1" fill="#fdfbfb" d="M 327.5,307.5 C 326.506,316.986 326.173,326.652 326.5,336.5C 330.167,336.5 333.833,336.5 337.5,336.5C 337.5,337.5 337.5,338.5 337.5,339.5C 326.167,339.5 314.833,339.5 303.5,339.5C 303.5,338.5 303.5,337.5 303.5,336.5C 306.167,336.5 308.833,336.5 311.5,336.5C 311.829,321.324 311.496,306.324 310.5,291.5C 308.167,291.5 305.833,291.5 303.5,291.5C 303.5,290.5 303.5,289.5 303.5,288.5C 311.167,288.5 318.833,288.5 326.5,288.5C 326.337,290.857 326.503,293.19 327,295.5C 327.717,294.956 328.217,294.289 328.5,293.5C 335.012,284.385 342.512,283.385 351,290.5C 352.218,299.949 348.052,304.115 338.5,303C 335.266,300.314 333.6,296.814 333.5,292.5C 329.164,296.497 327.164,301.497 327.5,307.5 Z"/></g>
<g><path style="opacity:1" fill="#fefcfd" d="M 419.5,336.5 C 422.167,336.5 424.833,336.5 427.5,336.5C 427.5,337.5 427.5,338.5 427.5,339.5C 416.5,339.5 405.5,339.5 394.5,339.5C 394.5,338.5 394.5,337.5 394.5,336.5C 397.167,336.5 399.833,336.5 402.5,336.5C 403.496,321.676 403.829,306.676 403.5,291.5C 400.833,291.5 398.167,291.5 395.5,291.5C 395.5,290.5 395.5,289.5 395.5,288.5C 403.167,288.5 410.833,288.5 418.5,288.5C 418.17,304.675 418.504,320.675 419.5,336.5 Z"/></g>
<g><path style="opacity:1" fill="#faf2f2" d="M 366.5,286.5 C 371.978,286.247 377.312,286.914 382.5,288.5C 384.924,287.979 387.257,287.312 389.5,286.5C 389.5,292.167 389.5,297.833 389.5,303.5C 388.325,303.719 387.325,303.386 386.5,302.5C 382.347,290.513 374.514,287.18 363,292.5C 361.436,295.462 361.269,298.462 362.5,301.5C 368.227,303.957 374.227,305.457 380.5,306C 390.569,308.624 394.735,315.124 393,325.5C 390.318,335.428 383.818,340.428 373.5,340.5C 369.39,340.462 365.39,339.796 361.5,338.5C 359.159,339.182 356.826,339.849 354.5,340.5C 354.5,334.167 354.5,327.833 354.5,321.5C 355.833,321.5 357.167,321.5 358.5,321.5C 361.566,335.193 369.566,339.693 382.5,335C 385.746,331.486 386.079,327.819 383.5,324C 376.907,322.274 370.24,320.941 363.5,320C 355.387,314.68 352.554,307.18 355,297.5C 357.412,292.252 361.246,288.586 366.5,286.5 Z"/></g>
<g><path style="opacity:1" fill="#ad3033" d="M 282.5,293.5 C 283.383,298.103 283.717,302.77 283.5,307.5C 278.833,307.5 274.167,307.5 269.5,307.5C 269.121,302.703 269.621,298.036 271,293.5C 274.953,289.519 278.786,289.519 282.5,293.5 Z"/></g>
<g><path style="opacity:1" fill="#c87579" d="M 100.5,291.5 C 103.167,291.5 105.833,291.5 108.5,291.5C 108.5,306.5 108.5,321.5 108.5,336.5C 105.833,336.5 103.167,336.5 100.5,336.5C 102.607,335.532 104.941,335.198 107.5,335.5C 107.5,321.167 107.5,306.833 107.5,292.5C 104.941,292.802 102.607,292.468 100.5,291.5 Z"/></g>
<g><path style="opacity:1" fill="#d99ea2" d="M 194.5,336.5 C 193.504,320.675 193.17,304.675 193.5,288.5C 185.833,288.5 178.167,288.5 170.5,288.5C 170.5,289.5 170.5,290.5 170.5,291.5C 173.167,291.5 175.833,291.5 178.5,291.5C 178.829,306.676 178.496,321.676 177.5,336.5C 177.5,321.833 177.5,307.167 177.5,292.5C 174.833,292.5 172.167,292.5 169.5,292.5C 169.5,290.833 169.5,289.167 169.5,287.5C 177.833,287.5 186.167,287.5 194.5,287.5C 194.5,303.833 194.5,320.167 194.5,336.5 Z"/></g>
<g><path style="opacity:1" fill="#d9a4a8" d="M 310.5,291.5 C 311.496,306.324 311.829,321.324 311.5,336.5C 308.833,336.5 306.167,336.5 303.5,336.5C 303.5,337.5 303.5,338.5 303.5,339.5C 302.566,338.432 302.232,337.099 302.5,335.5C 305.167,335.5 307.833,335.5 310.5,335.5C 310.5,320.833 310.5,306.167 310.5,291.5 Z"/></g>
<g><path style="opacity:1" fill="#d89ea1" d="M 419.5,336.5 C 418.504,320.675 418.17,304.675 418.5,288.5C 410.833,288.5 403.167,288.5 395.5,288.5C 395.5,289.5 395.5,290.5 395.5,291.5C 398.167,291.5 400.833,291.5 403.5,291.5C 403.829,306.676 403.496,321.676 402.5,336.5C 402.5,321.833 402.5,307.167 402.5,292.5C 399.833,292.5 397.167,292.5 394.5,292.5C 394.5,290.833 394.5,289.167 394.5,287.5C 402.833,287.5 411.167,287.5 419.5,287.5C 419.5,303.833 419.5,320.167 419.5,336.5 Z"/></g>
<g><path style="opacity:1" fill="#ca787d" d="M 426.5,291.5 C 428.5,291.5 430.5,291.5 432.5,291.5C 432.201,305.549 432.535,319.549 433.5,333.5C 432.883,333.389 432.383,333.056 432,332.5C 431.5,319.171 431.333,305.837 431.5,292.5C 429.585,292.784 427.919,292.451 426.5,291.5 Z"/></g>
<g><path style="opacity:1" fill="#d59597" d="M 282.5,293.5 C 283.117,293.611 283.617,293.944 284,294.5C 284.499,299.155 284.666,303.821 284.5,308.5C 279.305,308.821 274.305,308.487 269.5,307.5C 274.167,307.5 278.833,307.5 283.5,307.5C 283.717,302.77 283.383,298.103 282.5,293.5 Z"/></g>
<g><path style="opacity:1" fill="#c56c6f" d="M 157.5,293.5 C 158.966,294.347 159.8,295.68 160,297.5C 160.5,310.162 160.667,322.829 160.5,335.5C 163.059,335.198 165.393,335.532 167.5,336.5C 164.833,336.5 162.167,336.5 159.5,336.5C 159.667,323.829 159.5,311.162 159,298.5C 158.392,296.846 157.892,295.179 157.5,293.5 Z"/></g>
<g><path style="opacity:1" fill="#edd3d5" d="M 125.5,303.5 C 125.5,304.167 125.5,304.833 125.5,305.5C 124.506,315.653 124.172,325.986 124.5,336.5C 123.341,326.008 123.175,315.341 124,304.5C 124.383,303.944 124.883,303.611 125.5,303.5 Z"/></g>
<g><path style="opacity:1" fill="#ba5158" d="M 125.5,305.5 C 125.5,315.5 125.5,325.5 125.5,335.5C 127.735,335.205 129.735,335.539 131.5,336.5C 129.167,336.5 126.833,336.5 124.5,336.5C 124.172,325.986 124.506,315.653 125.5,305.5 Z"/></g>
<g><path style="opacity:1" fill="#d5989e" d="M 327.5,307.5 C 327.5,316.833 327.5,326.167 327.5,335.5C 331.042,335.187 334.375,335.521 337.5,336.5C 333.833,336.5 330.167,336.5 326.5,336.5C 326.173,326.652 326.506,316.986 327.5,307.5 Z"/></g>
<g><path style="opacity:1" fill="#e6bfc2" d="M 299.5,301.5 C 301.175,304.507 301.841,307.84 301.5,311.5C 290.833,311.5 280.167,311.5 269.5,311.5C 279.653,310.506 289.986,310.172 300.5,310.5C 300.296,307.482 299.963,304.482 299.5,301.5 Z"/></g>
<g><path style="opacity:1" fill="#b74b51" d="M 269.5,311.5 C 280.167,311.5 290.833,311.5 301.5,311.5C 291.347,312.494 281.014,312.828 270.5,312.5C 270.5,317.5 270.5,322.5 270.5,327.5C 269.512,322.36 269.179,317.026 269.5,311.5 Z"/></g>
<g><path style="opacity:1" fill="#f1d9da" d="M 289.5,338.5 C 288.081,337.549 286.415,337.216 284.5,337.5C 291.155,335.272 295.322,330.606 297,323.5C 297.908,321.561 299.408,320.561 301.5,320.5C 300.494,328.517 296.494,334.517 289.5,338.5 Z"/></g>
<g><path style="opacity:1" fill="#b44346" d="M 143.5,335.5 C 141.735,336.461 139.735,336.795 137.5,336.5C 137.5,337.5 137.5,338.5 137.5,339.5C 147.5,339.5 157.5,339.5 167.5,339.5C 167.5,338.5 167.5,337.5 167.5,336.5C 168.167,336.5 168.833,336.5 169.5,336.5C 169.5,337.5 169.5,338.5 169.5,339.5C 180.5,339.5 191.5,339.5 202.5,339.5C 180.673,340.497 158.673,340.831 136.5,340.5C 136.5,338.833 136.5,337.167 136.5,335.5C 138.833,335.5 141.167,335.5 143.5,335.5 Z"/></g>
<g><path style="opacity:1" fill="#bf5b5d" d="M 288.5,339.5 C 288.082,340.222 287.416,340.722 286.5,341C 281.98,341.814 277.646,341.647 273.5,340.5C 278.537,340.587 283.537,340.254 288.5,339.5 Z"/></g>
</svg>
