<?xml version="1.0" encoding="UTF-8"?>
<!DOCTYPE svg PUBLIC "-//W3C//DTD SVG 1.1//EN" "http://www.w3.org/Graphics/SVG/1.1/DTD/svg11.dtd">
<svg xmlns="http://www.w3.org/2000/svg" version="1.1" width="286px" height="285px" style="shape-rendering:geometricPrecision; text-rendering:geometricPrecision; image-rendering:optimizeQuality; fill-rule:evenodd; clip-rule:evenodd" xmlns:xlink="http://www.w3.org/1999/xlink">
<g><path style="opacity:1" fill="#000000" d="M -0.5,-0.5 C 94.8333,-0.5 190.167,-0.5 285.5,-0.5C 285.5,94.5 285.5,189.5 285.5,284.5C 285.167,284.5 284.833,284.5 284.5,284.5C 284.5,237.833 284.5,191.167 284.5,144.5C 284.5,97.1667 284.5,49.8333 284.5,2.5C 190.5,2.5 96.5,2.5 2.5,2.5C 2.5,49.1667 2.5,95.8333 2.5,142.5C 2.5,189.833 2.5,237.167 2.5,284.5C 1.5,284.5 0.5,284.5 -0.5,284.5C -0.5,189.5 -0.5,94.5 -0.5,-0.5 Z"/></g>
<g><path style="opacity:1" fill="#fefefe" d="M 284.5,144.5 C 283.833,144.5 283.167,144.5 282.5,144.5C 280.073,140.895 277.407,137.395 274.5,134C 252.201,113.694 226.868,98.861 198.5,89.5C 197.833,89.5 197.5,89.1667 197.5,88.5C 193.68,78.602 189.846,68.602 186,58.5C 174.985,37.7734 160.652,19.7734 143,4.5C 137.824,8.34286 133.324,12.8429 129.5,18C 149.433,35.9149 164.099,57.2482 173.5,82C 172.552,82.4828 171.552,82.6495 170.5,82.5C 167.167,82.5 163.833,82.5 160.5,82.5C 156.03,81.5139 151.363,81.1805 146.5,81.5C 143.31,72.7885 138.81,64.7885 133,57.5C 126.365,49.8637 119.365,42.5304 112,35.5C 106.839,39.328 102.339,43.828 98.5,49C 104.654,55.8216 110.82,62.655 117,69.5C 120.029,73.5615 122.529,77.8949 124.5,82.5C 118.779,82.3686 113.112,82.8686 107.5,84C 106.944,84.3826 106.611,84.8826 106.5,85.5C 104.194,85.9926 101.861,86.3259 99.5,86.5C 94.2223,79.3878 88.0556,73.0544 81,67.5C 75.1667,70.6667 70.6667,75.1667 67.5,81C 69.9876,84.8209 73.1542,87.9876 77,90.5C 77.4828,91.448 77.6495,92.448 77.5,93.5C 74.7974,94.963 71.7974,95.7963 68.5,96C 47.0269,105.725 28.0269,118.892 11.5,135.5C 8.83333,137.833 6.16667,140.167 3.5,142.5C 3.16667,142.5 2.83333,142.5 2.5,142.5C 2.5,95.8333 2.5,49.1667 2.5,2.5C 96.5,2.5 190.5,2.5 284.5,2.5C 284.5,49.8333 284.5,97.1667 284.5,144.5 Z"/></g>
<g><path style="opacity:1" fill="#898b8e" d="M 197.5,88.5 C 190.027,87.7967 182.693,86.4633 175.5,84.5C 175.167,84.5 174.833,84.5 174.5,84.5C 173.167,83.8333 171.833,83.1667 170.5,82.5C 171.552,82.6495 172.552,82.4828 173.5,82C 164.099,57.2482 149.433,35.9149 129.5,18C 133.324,12.8429 137.824,8.34286 143,4.5C 160.652,19.7734 174.985,37.7734 186,58.5C 189.846,68.602 193.68,78.602 197.5,88.5 Z"/></g>
<g><path style="opacity:1" fill="#8a8b8e" d="M 146.5,81.5 C 139.313,81.1755 132.313,81.5088 125.5,82.5C 125.167,82.5 124.833,82.5 124.5,82.5C 122.529,77.8949 120.029,73.5615 117,69.5C 110.82,62.655 104.654,55.8216 98.5,49C 102.339,43.828 106.839,39.328 112,35.5C 119.365,42.5304 126.365,49.8637 133,57.5C 138.81,64.7885 143.31,72.7885 146.5,81.5 Z"/></g>
<g><path style="opacity:1" fill="#8a8b8e" d="M 99.5,86.5 C 99.5,86.8333 99.5,87.1667 99.5,87.5C 91.9526,88.0002 84.9526,90.0002 78.5,93.5C 78.1667,93.5 77.8333,93.5 77.5,93.5C 77.6495,92.448 77.4828,91.448 77,90.5C 73.1542,87.9876 69.9876,84.8209 67.5,81C 70.6667,75.1667 75.1667,70.6667 81,67.5C 88.0556,73.0544 94.2223,79.3878 99.5,86.5 Z"/></g>
<g><path style="opacity:1" fill="#0a0606" d="M 146.5,81.5 C 150.819,87.4763 153.486,94.143 154.5,101.5C 147.5,101.5 140.5,101.5 133.5,101.5C 131.647,94.797 128.98,88.4637 125.5,82.5C 132.313,81.5088 139.313,81.1755 146.5,81.5 Z"/></g>
<g><path style="opacity:1" fill="#c18081" d="M 160.5,82.5 C 163.833,82.5 167.167,82.5 170.5,82.5C 171.833,83.1667 173.167,83.8333 174.5,84.5C 169.63,84.3104 164.964,83.6437 160.5,82.5 Z"/></g>
<g><path style="opacity:1" fill="#c88c8d" d="M 124.5,82.5 C 118.632,83.4925 112.632,84.4925 106.5,85.5C 106.611,84.8826 106.944,84.3826 107.5,84C 113.112,82.8686 118.779,82.3686 124.5,82.5 Z"/></g>
<g><path style="opacity:1" fill="#95302d" d="M 146.5,81.5 C 151.363,81.1805 156.03,81.5139 160.5,82.5C 164.964,83.6437 169.63,84.3104 174.5,84.5C 174.833,84.5 175.167,84.5 175.5,84.5C 177.5,91.5 179.5,98.5 181.5,105.5C 172.949,103.564 164.283,102.564 155.5,102.5C 154.833,102.5 154.5,102.167 154.5,101.5C 153.486,94.143 150.819,87.4763 146.5,81.5 Z"/></g>
<g><path style="opacity:1" fill="#942d2b" d="M 124.5,82.5 C 124.833,82.5 125.167,82.5 125.5,82.5C 128.98,88.4637 131.647,94.797 133.5,101.5C 133.5,101.833 133.5,102.167 133.5,102.5C 130.833,102.5 128.167,102.5 125.5,102.5C 120.07,102.517 114.737,103.183 109.5,104.5C 109.167,104.5 108.833,104.5 108.5,104.5C 106.787,98.1284 103.787,92.4618 99.5,87.5C 99.5,87.1667 99.5,86.8333 99.5,86.5C 101.861,86.3259 104.194,85.9926 106.5,85.5C 112.632,84.4925 118.632,83.4925 124.5,82.5 Z"/></g>
<g><path style="opacity:1" fill="#070404" d="M 175.5,84.5 C 182.693,86.4633 190.027,87.7967 197.5,88.5C 197.5,89.1667 197.833,89.5 198.5,89.5C 199.627,96.877 200.96,104.21 202.5,111.5C 195.767,110.032 189.101,108.366 182.5,106.5C 181.833,106.5 181.5,106.167 181.5,105.5C 179.5,98.5 177.5,91.5 175.5,84.5 Z"/></g>
<g><path style="opacity:1" fill="#090505" d="M 99.5,87.5 C 103.787,92.4618 106.787,98.1284 108.5,104.5C 102.291,106.636 95.9575,108.302 89.5,109.5C 86.5813,103.594 82.9146,98.2603 78.5,93.5C 84.9526,90.0002 91.9526,88.0002 99.5,87.5 Z"/></g>
<g><path style="opacity:1" fill="#97302d" d="M 198.5,89.5 C 226.868,98.861 252.201,113.694 274.5,134C 277.407,137.395 280.073,140.895 282.5,144.5C 278.369,148.13 274.369,151.963 270.5,156C 269.5,156.667 268.5,156.667 267.5,156C 253.09,140.316 236.424,127.816 217.5,118.5C 214.947,116.416 211.947,115.083 208.5,114.5C 207.833,114.5 207.167,114.5 206.5,114.5C 205.486,113.326 204.153,112.66 202.5,112.5C 202.5,112.167 202.5,111.833 202.5,111.5C 200.96,104.21 199.627,96.877 198.5,89.5 Z"/></g>
<g><path style="opacity:1" fill="#97302e" d="M 77.5,93.5 C 77.8333,93.5 78.1667,93.5 78.5,93.5C 82.9146,98.2603 86.5813,103.594 89.5,109.5C 88.8333,110.167 88.1667,110.833 87.5,111.5C 60.2856,120.518 37.1189,135.851 18,157.5C 13.6976,153.363 9.53092,149.03 5.5,144.5C 7.5,141.5 9.5,138.5 11.5,135.5C 28.0269,118.892 47.0269,105.725 68.5,96C 71.7974,95.7963 74.7974,94.963 77.5,93.5 Z"/></g>
<g><path style="opacity:1" fill="#fbfafa" d="M 125.5,102.5 C 128.167,102.5 130.833,102.5 133.5,102.5C 137.663,109.144 139.663,116.477 139.5,124.5C 131.429,124.403 123.429,125.07 115.5,126.5C 114.355,119.38 112.355,112.38 109.5,105.5C 115.037,104.913 120.37,103.913 125.5,102.5 Z"/></g>
<g><path style="opacity:1" fill="#87888b" d="M 133.5,102.5 C 133.5,102.167 133.5,101.833 133.5,101.5C 140.5,101.5 147.5,101.5 154.5,101.5C 154.5,102.167 154.833,102.5 155.5,102.5C 157.009,110.202 158.675,117.868 160.5,125.5C 160.167,125.5 159.833,125.5 159.5,125.5C 153.203,124.68 146.869,124.347 140.5,124.5C 140.167,124.5 139.833,124.5 139.5,124.5C 139.663,116.477 137.663,109.144 133.5,102.5 Z"/></g>
<g><path style="opacity:1" fill="#f8f6f6" d="M 155.5,102.5 C 164.283,102.564 172.949,103.564 181.5,105.5C 181.5,106.167 181.833,106.5 182.5,106.5C 183.267,113.032 184.267,119.532 185.5,126C 185.492,127.707 185.158,129.207 184.5,130.5C 183.209,130.737 182.209,130.404 181.5,129.5C 174.817,127.165 167.817,125.831 160.5,125.5C 158.675,117.868 157.009,110.202 155.5,102.5 Z"/></g>
<g><path style="opacity:1" fill="#d9b0b1" d="M 125.5,102.5 C 120.37,103.913 115.037,104.913 109.5,105.5C 109.5,105.167 109.5,104.833 109.5,104.5C 114.737,103.183 120.07,102.517 125.5,102.5 Z"/></g>
<g><path style="opacity:1" fill="#85878a" d="M 108.5,104.5 C 108.833,104.5 109.167,104.5 109.5,104.5C 109.5,104.833 109.5,105.167 109.5,105.5C 112.355,112.38 114.355,119.38 115.5,126.5C 115.5,126.833 115.5,127.167 115.5,127.5C 109.004,128.554 102.671,130.221 96.5,132.5C 96.1667,132.5 95.8333,132.5 95.5,132.5C 95.6641,129.813 95.4974,127.146 95,124.5C 93.9749,119.922 92.4749,115.588 90.5,111.5C 89.5,111.5 88.5,111.5 87.5,111.5C 88.1667,110.833 88.8333,110.167 89.5,109.5C 95.9575,108.302 102.291,106.636 108.5,104.5 Z"/></g>
<g><path style="opacity:1" fill="#838588" d="M 182.5,106.5 C 189.101,108.366 195.767,110.032 202.5,111.5C 202.5,111.833 202.5,112.167 202.5,112.5C 203.261,121.159 203.927,129.825 204.5,138.5C 198.574,135.19 192.241,132.857 185.5,131.5C 184.833,131.5 184.5,131.167 184.5,130.5C 185.158,129.207 185.492,127.707 185.5,126C 184.267,119.532 183.267,113.032 182.5,106.5 Z"/></g>
<g><path style="opacity:1" fill="#fdfdfd" d="M 87.5,111.5 C 88.5,111.5 89.5,111.5 90.5,111.5C 92.4749,115.588 93.9749,119.922 95,124.5C 95.4974,127.146 95.6641,129.813 95.5,132.5C 71.8105,141.341 51.8105,155.507 35.5,175C 39.4644,179.327 43.4644,183.66 47.5,188C 48.5,188.667 49.5,188.667 50.5,188C 62.4127,173.915 76.746,163.082 93.5,155.5C 94.6491,155.791 95.3158,156.624 95.5,158C 95.1667,159.667 94.8333,161.333 94.5,163C 90.7463,173.338 86.0796,183.171 80.5,192.5C 76.2022,196.296 72.0356,200.296 68,204.5C 67.3333,205.5 67.3333,206.5 68,207.5C 72.0448,211.881 76.3781,215.881 81,219.5C 85.1664,215.835 89.3331,212.168 93.5,208.5C 100.669,201.246 109.336,196.579 119.5,194.5C 122.846,193.926 126.179,193.26 129.5,192.5C 129.833,192.833 130.167,193.167 130.5,193.5C 122.156,210.027 111.49,224.86 98.5,238C 102.978,242.478 107.478,246.978 112,251.5C 130.582,234.629 144.416,214.629 153.5,191.5C 161.391,192.687 169.058,194.687 176.5,197.5C 176.5,197.833 176.5,198.167 176.5,198.5C 166.383,224.707 151.217,247.707 131,267.5C 130.333,268.5 130.333,269.5 131,270.5C 135.416,275.086 139.916,279.419 144.5,283.5C 144.5,283.833 144.5,284.167 144.5,284.5C 97.1667,284.5 49.8333,284.5 2.5,284.5C 2.5,237.167 2.5,189.833 2.5,142.5C 2.83333,142.5 3.16667,142.5 3.5,142.5C 3.5,143.833 4.16667,144.5 5.5,144.5C 9.53092,149.03 13.6976,153.363 18,157.5C 37.1189,135.851 60.2856,120.518 87.5,111.5 Z"/></g>
<g><path style="opacity:1" fill="#fefdfd" d="M 206.5,114.5 C 207.167,114.5 207.833,114.5 208.5,114.5C 211.053,116.584 214.053,117.917 217.5,118.5C 236.424,127.816 253.09,140.316 267.5,156C 268.5,156.667 269.5,156.667 270.5,156C 274.369,151.963 278.369,148.13 282.5,144.5C 283.167,144.5 283.833,144.5 284.5,144.5C 284.5,191.167 284.5,237.833 284.5,284.5C 237.833,284.5 191.167,284.5 144.5,284.5C 144.5,284.167 144.5,283.833 144.5,283.5C 153.221,273.748 161.721,263.748 170,253.5C 179.171,240.365 186.504,226.365 192,211.5C 192.417,210.244 193.25,209.577 194.5,209.5C 198.298,212.796 201.964,216.296 205.5,220C 206.998,220.585 207.998,220.085 208.5,218.5C 212.833,216.167 216.167,212.833 218.5,208.5C 220.085,207.998 220.585,206.998 220,205.5C 213.628,199.624 207.128,193.958 200.5,188.5C 201.165,179.512 202.832,170.845 205.5,162.5C 209.28,164.44 212.946,166.607 216.5,169C 223.678,175.513 230.845,182.013 238,188.5C 242.5,184 247,179.5 251.5,175C 245.233,168.733 238.9,162.4 232.5,156C 225.273,150.895 217.939,146.061 210.5,141.5C 209.895,139.974 208.729,138.974 207,138.5C 205.948,132.029 205.114,125.529 204.5,119C 204.569,117.014 205.235,115.514 206.5,114.5 Z"/></g>
<g><path style="opacity:1" fill="#c78a8b" d="M 208.5,114.5 C 211.947,115.083 214.947,116.416 217.5,118.5C 214.053,117.917 211.053,116.584 208.5,114.5 Z"/></g>
<g><path style="opacity:1" fill="#bb7574" d="M 139.5,124.5 C 131.664,125.724 123.664,126.724 115.5,127.5C 115.5,127.167 115.5,126.833 115.5,126.5C 123.429,125.07 131.429,124.403 139.5,124.5 Z"/></g>
<g><path style="opacity:1" fill="#942c2a" d="M 139.5,124.5 C 139.833,124.5 140.167,124.5 140.5,124.5C 140.5,131.167 140.5,137.833 140.5,144.5C 136.958,144.187 133.625,144.521 130.5,145.5C 125.833,145.833 121.167,146.167 116.5,146.5C 116.791,140.077 116.458,133.744 115.5,127.5C 123.664,126.724 131.664,125.724 139.5,124.5 Z"/></g>
<g><path style="opacity:1" fill="#0a0505" d="M 140.5,124.5 C 146.869,124.347 153.203,124.68 159.5,125.5C 159.5,126.167 159.833,126.5 160.5,126.5C 160.5,132.833 160.5,139.167 160.5,145.5C 153.841,145.046 147.174,144.713 140.5,144.5C 140.5,137.833 140.5,131.167 140.5,124.5 Z"/></g>
<g><path style="opacity:1" fill="#cc9898" d="M 159.5,125.5 C 159.833,125.5 160.167,125.5 160.5,125.5C 167.817,125.831 174.817,127.165 181.5,129.5C 174.486,128.593 167.486,127.593 160.5,126.5C 159.833,126.5 159.5,126.167 159.5,125.5 Z"/></g>
<g><path style="opacity:1" fill="#932f2d" d="M 160.5,126.5 C 167.486,127.593 174.486,128.593 181.5,129.5C 182.209,130.404 183.209,130.737 184.5,130.5C 184.5,131.167 184.833,131.5 185.5,131.5C 185.5,138.5 185.5,145.5 185.5,152.5C 185.167,152.5 184.833,152.5 184.5,152.5C 177.197,149.237 169.53,147.237 161.5,146.5C 161.5,145.833 161.167,145.5 160.5,145.5C 160.5,139.167 160.5,132.833 160.5,126.5 Z"/></g>
<g><path style="opacity:1" fill="#090505" d="M 115.5,127.5 C 116.458,133.744 116.791,140.077 116.5,146.5C 116.5,146.833 116.5,147.167 116.5,147.5C 109.822,149.28 103.155,151.28 96.5,153.5C 96.5,146.5 96.5,139.5 96.5,132.5C 102.671,130.221 109.004,128.554 115.5,127.5 Z"/></g>
<g><path style="opacity:1" fill="#0a0505" d="M 185.5,131.5 C 192.241,132.857 198.574,135.19 204.5,138.5C 205.167,138.5 205.5,138.833 205.5,139.5C 205.5,146.833 205.5,154.167 205.5,161.5C 199.142,157.991 192.475,154.991 185.5,152.5C 185.5,145.5 185.5,138.5 185.5,131.5 Z"/></g>
<g><path style="opacity:1" fill="#bdbabb" d="M 202.5,112.5 C 204.153,112.66 205.486,113.326 206.5,114.5C 205.235,115.514 204.569,117.014 204.5,119C 205.114,125.529 205.948,132.029 207,138.5C 208.729,138.974 209.895,139.974 210.5,141.5C 208.716,141.107 207.05,140.441 205.5,139.5C 205.5,138.833 205.167,138.5 204.5,138.5C 203.927,129.825 203.261,121.159 202.5,112.5 Z"/></g>
<g><path style="opacity:1" fill="#98322f" d="M 95.5,132.5 C 95.8333,132.5 96.1667,132.5 96.5,132.5C 96.5,139.5 96.5,146.5 96.5,153.5C 95.5,154.167 94.5,154.833 93.5,155.5C 76.746,163.082 62.4127,173.915 50.5,188C 49.5,188.667 48.5,188.667 47.5,188C 43.4644,183.66 39.4644,179.327 35.5,175C 51.8105,155.507 71.8105,141.341 95.5,132.5 Z"/></g>
<g><path style="opacity:1" fill="#b76968" d="M 11.5,135.5 C 9.5,138.5 7.5,141.5 5.5,144.5C 4.16667,144.5 3.5,143.833 3.5,142.5C 6.16667,140.167 8.83333,137.833 11.5,135.5 Z"/></g>
<g><path style="opacity:1" fill="#97302e" d="M 205.5,139.5 C 207.05,140.441 208.716,141.107 210.5,141.5C 217.939,146.061 225.273,150.895 232.5,156C 238.9,162.4 245.233,168.733 251.5,175C 247,179.5 242.5,184 238,188.5C 230.845,182.013 223.678,175.513 216.5,169C 212.946,166.607 209.28,164.44 205.5,162.5C 205.5,162.167 205.5,161.833 205.5,161.5C 205.5,154.167 205.5,146.833 205.5,139.5 Z"/></g>
<g><path style="opacity:1" fill="#88898c" d="M 130.5,145.5 C 133.625,144.521 136.958,144.187 140.5,144.5C 147.174,144.713 153.841,145.046 160.5,145.5C 161.167,145.5 161.5,145.833 161.5,146.5C 160.506,154.359 159.506,162.359 158.5,170.5C 151.833,170.5 145.167,170.5 138.5,170.5C 139.864,162.237 140.53,153.903 140.5,145.5C 137.167,145.5 133.833,145.5 130.5,145.5 Z"/></g>
<g><path style="opacity:1" fill="#faf9f9" d="M 130.5,145.5 C 133.833,145.5 137.167,145.5 140.5,145.5C 140.53,153.903 139.864,162.237 138.5,170.5C 131.778,169.911 125.444,170.911 119.5,173.5C 116.833,174.167 114.167,174.833 111.5,175.5C 113.816,166.245 115.483,156.912 116.5,147.5C 116.5,147.167 116.5,146.833 116.5,146.5C 121.167,146.167 125.833,145.833 130.5,145.5 Z"/></g>
<g><path style="opacity:1" fill="#fbfafa" d="M 161.5,146.5 C 169.53,147.237 177.197,149.237 184.5,152.5C 184.957,160.451 184.29,168.284 182.5,176C 182.164,177.03 181.497,177.53 180.5,177.5C 176.495,176.166 172.495,174.832 168.5,173.5C 165.442,172.271 162.442,170.937 159.5,169.5C 160.98,161.923 161.647,154.256 161.5,146.5 Z"/></g>
<g><path style="opacity:1" fill="#888a8c" d="M 116.5,147.5 C 115.483,156.912 113.816,166.245 111.5,175.5C 110.833,175.5 110.5,175.833 110.5,176.5C 106.028,177.537 101.694,179.037 97.5,181C 91.6788,184.663 86.0121,188.497 80.5,192.5C 86.0796,183.171 90.7463,173.338 94.5,163C 94.8333,161.333 95.1667,159.667 95.5,158C 95.3158,156.624 94.6491,155.791 93.5,155.5C 94.5,154.833 95.5,154.167 96.5,153.5C 103.155,151.28 109.822,149.28 116.5,147.5 Z"/></g>
<g><path style="opacity:1" fill="#86878a" d="M 184.5,152.5 C 184.833,152.5 185.167,152.5 185.5,152.5C 192.475,154.991 199.142,157.991 205.5,161.5C 205.5,161.833 205.5,162.167 205.5,162.5C 202.832,170.845 201.165,179.512 200.5,188.5C 200.167,188.5 199.833,188.5 199.5,188.5C 194.11,184.137 188.11,180.803 181.5,178.5C 180.833,178.5 180.5,178.167 180.5,177.5C 181.497,177.53 182.164,177.03 182.5,176C 184.29,168.284 184.957,160.451 184.5,152.5 Z"/></g>
<g><path style="opacity:1" fill="#d2c7c8" d="M 161.5,146.5 C 161.647,154.256 160.98,161.923 159.5,169.5C 162.442,170.937 165.442,172.271 168.5,173.5C 164.922,173.451 161.589,172.785 158.5,171.5C 158.5,171.167 158.5,170.833 158.5,170.5C 159.506,162.359 160.506,154.359 161.5,146.5 Z"/></g>
<g><path style="opacity:1" fill="#932e2c" d="M 137.5,171.5 C 135.431,177.376 133.764,183.376 132.5,189.5C 128.8,191.26 124.8,192.427 120.5,193C 119.944,193.383 119.611,193.883 119.5,194.5C 109.336,196.579 100.669,201.246 93.5,208.5C 96.6452,203.556 99.8118,198.556 103,193.5C 105.991,188.017 108.491,182.35 110.5,176.5C 110.5,175.833 110.833,175.5 111.5,175.5C 114.167,174.833 116.833,174.167 119.5,173.5C 125.53,173.044 131.53,172.377 137.5,171.5 Z"/></g>
<g><path style="opacity:1" fill="#090606" d="M 138.5,170.5 C 145.167,170.5 151.833,170.5 158.5,170.5C 158.5,170.833 158.5,171.167 158.5,171.5C 156.702,177.687 155.035,184.021 153.5,190.5C 146.313,190.825 139.313,190.491 132.5,189.5C 133.764,183.376 135.431,177.376 137.5,171.5C 138.167,171.5 138.5,171.167 138.5,170.5 Z"/></g>
<g><path style="opacity:1" fill="#b66968" d="M 138.5,170.5 C 138.5,171.167 138.167,171.5 137.5,171.5C 131.53,172.377 125.53,173.044 119.5,173.5C 125.444,170.911 131.778,169.911 138.5,170.5 Z"/></g>
<g><path style="opacity:1" fill="#952f2d" d="M 158.5,171.5 C 161.589,172.785 164.922,173.451 168.5,173.5C 172.495,174.832 176.495,176.166 180.5,177.5C 180.5,178.167 180.833,178.5 181.5,178.5C 179.99,184.874 178.323,191.208 176.5,197.5C 169.058,194.687 161.391,192.687 153.5,191.5C 153.5,191.167 153.5,190.833 153.5,190.5C 155.035,184.021 156.702,177.687 158.5,171.5 Z"/></g>
<g><path style="opacity:1" fill="#090808" d="M 110.5,176.5 C 108.491,182.35 105.991,188.017 103,193.5C 99.8118,198.556 96.6452,203.556 93.5,208.5C 89.3331,212.168 85.1664,215.835 81,219.5C 76.3781,215.881 72.0448,211.881 68,207.5C 67.3333,206.5 67.3333,205.5 68,204.5C 72.0356,200.296 76.2022,196.296 80.5,192.5C 86.0121,188.497 91.6788,184.663 97.5,181C 101.694,179.037 106.028,177.537 110.5,176.5 Z"/></g>
<g><path style="opacity:1" fill="#0a0505" d="M 181.5,178.5 C 188.11,180.803 194.11,184.137 199.5,188.5C 198.087,195.232 196.42,201.899 194.5,208.5C 190.544,206.515 186.878,204.015 183.5,201C 181.146,200.153 178.812,199.32 176.5,198.5C 176.5,198.167 176.5,197.833 176.5,197.5C 178.323,191.208 179.99,184.874 181.5,178.5 Z"/></g>
<g><path style="opacity:1" fill="#898b8e" d="M 132.5,189.5 C 139.313,190.491 146.313,190.825 153.5,190.5C 153.5,190.833 153.5,191.167 153.5,191.5C 144.416,214.629 130.582,234.629 112,251.5C 107.478,246.978 102.978,242.478 98.5,238C 111.49,224.86 122.156,210.027 130.5,193.5C 130.167,193.167 129.833,192.833 129.5,192.5C 126.179,193.26 122.846,193.926 119.5,194.5C 119.611,193.883 119.944,193.383 120.5,193C 124.8,192.427 128.8,191.26 132.5,189.5 Z"/></g>
<g><path style="opacity:1" fill="#97312e" d="M 199.5,188.5 C 199.833,188.5 200.167,188.5 200.5,188.5C 207.128,193.958 213.628,199.624 220,205.5C 220.585,206.998 220.085,207.998 218.5,208.5C 214.833,211.5 211.5,214.833 208.5,218.5C 207.998,220.085 206.998,220.585 205.5,220C 201.964,216.296 198.298,212.796 194.5,209.5C 194.5,209.167 194.5,208.833 194.5,208.5C 196.42,201.899 198.087,195.232 199.5,188.5 Z"/></g>
<g><path style="opacity:1" fill="#898b8e" d="M 176.5,198.5 C 178.812,199.32 181.146,200.153 183.5,201C 186.878,204.015 190.544,206.515 194.5,208.5C 194.5,208.833 194.5,209.167 194.5,209.5C 193.25,209.577 192.417,210.244 192,211.5C 186.504,226.365 179.171,240.365 170,253.5C 161.721,263.748 153.221,273.748 144.5,283.5C 139.916,279.419 135.416,275.086 131,270.5C 130.333,269.5 130.333,268.5 131,267.5C 151.217,247.707 166.383,224.707 176.5,198.5 Z"/></g>
<g><path style="opacity:1" fill="#dfbcbc" d="M 218.5,208.5 C 216.167,212.833 212.833,216.167 208.5,218.5C 211.5,214.833 214.833,211.5 218.5,208.5 Z"/></g>
</svg>
