<?xml version="1.0" encoding="UTF-8"?>
<!DOCTYPE svg PUBLIC "-//W3C//DTD SVG 1.1//EN" "http://www.w3.org/Graphics/SVG/1.1/DTD/svg11.dtd">
<svg xmlns="http://www.w3.org/2000/svg" version="1.1" width="455px" height="242px" style="shape-rendering:geometricPrecision; text-rendering:geometricPrecision; image-rendering:optimizeQuality; fill-rule:evenodd; clip-rule:evenodd" xmlns:xlink="http://www.w3.org/1999/xlink">
<g><path style="opacity:1" fill="#e7eced" d="M -0.5,-0.5 C 151.167,-0.5 302.833,-0.5 454.5,-0.5C 454.5,80.1667 454.5,160.833 454.5,241.5C 302.833,241.5 151.167,241.5 -0.5,241.5C -0.5,160.833 -0.5,80.1667 -0.5,-0.5 Z"/></g>
<g><path style="opacity:1" fill="#eed493" d="M 355.5,12.5 C 354.819,20.423 354.819,28.423 355.5,36.5C 354.194,31.389 353.528,26.0557 353.5,20.5C 353.522,17.4098 354.188,14.7432 355.5,12.5 Z"/></g>
<g><path style="opacity:1" fill="#f4bd3f" d="M 355.5,12.5 C 358.713,12.19 361.713,12.5233 364.5,13.5C 364.5,17.5 364.5,21.5 364.5,25.5C 364.666,30.1785 364.499,34.8452 364,39.5C 362.246,41.25 360.079,41.9167 357.5,41.5C 355.744,40.4479 355.077,38.7812 355.5,36.5C 354.819,28.423 354.819,20.423 355.5,12.5 Z"/></g>
<g><path style="opacity:1" fill="#f0cc76" d="M 364.5,13.5 C 365.88,13.9623 366.547,14.9623 366.5,16.5C 365.698,19.4486 365.364,22.4486 365.5,25.5C 365.167,25.5 364.833,25.5 364.5,25.5C 364.5,21.5 364.5,17.5 364.5,13.5 Z"/></g>
<g><path style="opacity:1" fill="#7da8d1" d="M 80.5,30.5 C 84.5,30.5 88.5,30.5 92.5,30.5C 92.2358,34.4925 91.2358,38.1591 89.5,41.5C 90.0508,38.1933 90.3841,34.8599 90.5,31.5C 86.8215,31.0604 83.4882,31.727 80.5,33.5C 80.5,32.5 80.5,31.5 80.5,30.5 Z"/></g>
<g><path style="opacity:1" fill="#8bb0d4" d="M 141.5,30.5 C 141.5,30.8333 141.5,31.1667 141.5,31.5C 138.5,31.5 135.5,31.5 132.5,31.5C 132.5,48.5 132.5,65.5 132.5,82.5C 132.5,82.8333 132.5,83.1667 132.5,83.5C 130.514,66.1983 129.847,48.5316 130.5,30.5C 134.167,30.5 137.833,30.5 141.5,30.5 Z"/></g>
<g><path style="opacity:1" fill="#82aad1" d="M 141.5,31.5 C 142.497,48.6586 142.83,65.992 142.5,83.5C 139.167,83.5 135.833,83.5 132.5,83.5C 132.5,83.1667 132.5,82.8333 132.5,82.5C 135.5,82.5 138.5,82.5 141.5,82.5C 141.5,65.5 141.5,48.5 141.5,31.5 Z"/></g>
<g><path style="opacity:1" fill="#90b5d7" d="M 301.5,43.5 C 298.5,43.5 295.5,43.5 292.5,43.5C 292.5,39.5 292.5,35.5 292.5,31.5C 289.167,31.5 285.833,31.5 282.5,31.5C 282.5,46.1667 282.5,60.8333 282.5,75.5C 281.504,60.676 281.171,45.676 281.5,30.5C 285.5,30.5 289.5,30.5 293.5,30.5C 293.5,34.5 293.5,38.5 293.5,42.5C 296.385,42.1936 299.052,42.5269 301.5,43.5 Z"/></g>
<g><path style="opacity:1" fill="#f4bd40" d="M 331.5,34.5 C 336.535,38.0349 341.702,41.3682 347,44.5C 348.222,48.2568 347.055,50.9235 343.5,52.5C 341.927,52.2483 340.594,51.5817 339.5,50.5C 333.902,46.2036 327.569,43.2036 320.5,41.5C 320.368,38.4299 320.701,35.4299 321.5,32.5C 322.695,32.3225 323.862,31.9891 325,31.5C 326.875,33.1785 329.042,34.1785 331.5,34.5 Z"/></g>
<g><path style="opacity:1" fill="#f4be41" d="M 396.5,31.5 C 399.875,33.5904 401.041,36.5904 400,40.5C 397.905,42.1247 395.739,43.4581 393.5,44.5C 388.575,45.3572 384.242,47.3572 380.5,50.5C 378.236,51.2186 375.903,51.552 373.5,51.5C 371.525,49.6381 371.192,47.6381 372.5,45.5C 374.749,44.9202 376.415,43.5869 377.5,41.5C 380.198,41.1551 382.198,39.8218 383.5,37.5C 384.833,36.5 386.167,35.5 387.5,34.5C 390.183,32.6643 393.183,31.6643 396.5,31.5 Z"/></g>
<g><path style="opacity:1" fill="#bdd2e2" d="M 141.5,31.5 C 141.5,31.1667 141.5,30.8333 141.5,30.5C 142.832,38.9738 143.498,47.8071 143.5,57C 143.5,66.0064 143.166,74.8398 142.5,83.5C 142.83,65.992 142.497,48.6586 141.5,31.5 Z"/></g>
<g><path style="opacity:1" fill="#2f73bb" d="M 301.5,43.5 C 301.5,46.5 301.5,49.5 301.5,52.5C 298.552,52.2229 295.719,52.5562 293,53.5C 292.179,60.3464 292.346,67.013 293.5,73.5C 293.833,74.1667 294.167,74.8333 294.5,75.5C 296.265,76.4614 298.265,76.7947 300.5,76.5C 300.5,78.5 300.5,80.5 300.5,82.5C 296.167,82.5 291.833,82.5 287.5,82.5C 284.227,81.4042 282.561,79.0709 282.5,75.5C 282.5,60.8333 282.5,46.1667 282.5,31.5C 285.833,31.5 289.167,31.5 292.5,31.5C 292.5,35.5 292.5,39.5 292.5,43.5C 295.5,43.5 298.5,43.5 301.5,43.5 Z"/></g>
<g><path style="opacity:1" fill="#f1cb70" d="M 331.5,34.5 C 329.042,34.1785 326.875,33.1785 325,31.5C 323.862,31.9891 322.695,32.3225 321.5,32.5C 322.134,31.0532 323.301,30.3866 325,30.5C 327.534,31.4153 329.701,32.7487 331.5,34.5 Z"/></g>
<g><path style="opacity:1" fill="#eed595" d="M 396.5,31.5 C 393.183,31.6643 390.183,32.6643 387.5,34.5C 389.762,30.8593 392.762,29.8593 396.5,31.5 Z"/></g>
<g><path style="opacity:1" fill="#3274bb" d="M 42.5,61.5 C 42.1866,64.2469 42.52,66.9135 43.5,69.5C 45.0863,67.8273 45.7529,65.8273 45.5,63.5C 45.5,62.8333 45.5,62.1667 45.5,61.5C 46.6693,58.659 47.6693,55.659 48.5,52.5C 49.9831,50.0757 51.1498,47.409 52,44.5C 52.3042,40.4517 52.8042,36.4517 53.5,32.5C 53.5,32.1667 53.5,31.8333 53.5,31.5C 57.5,31.5 61.5,31.5 65.5,31.5C 65.3347,35.1817 65.5014,38.8484 66,42.5C 66.3826,43.056 66.8826,43.3893 67.5,43.5C 68.6572,46.2727 69.3239,49.2727 69.5,52.5C 69.3642,57.9462 70.0309,63.2796 71.5,68.5C 72.8333,68.5 74.1667,68.5 75.5,68.5C 75.5,66.1667 75.5,63.8333 75.5,61.5C 75.5,60.5 75.5,59.5 75.5,58.5C 76.1174,58.3893 76.6174,58.056 77,57.5C 78.4448,52.2516 79.2781,46.9182 79.5,41.5C 80.2653,38.9039 80.5987,36.2372 80.5,33.5C 83.4882,31.727 86.8215,31.0604 90.5,31.5C 90.3841,34.8599 90.0508,38.1933 89.5,41.5C 88.5392,44.4261 87.8726,47.4261 87.5,50.5C 85.8046,52.7324 84.6379,55.3991 84,58.5C 83.6371,61.544 83.1371,64.544 82.5,67.5C 82.5,68.5 82.5,69.5 82.5,70.5C 80.7868,71.6354 80.1201,73.302 80.5,75.5C 80.5,76.8333 80.5,78.1667 80.5,79.5C 79.7515,80.531 79.0848,81.6976 78.5,83C 74.6382,83.7577 70.9716,83.2577 67.5,81.5C 67.0113,80.0048 66.3446,78.6715 65.5,77.5C 65.139,73.5371 64.139,69.8704 62.5,66.5C 62.4024,61.7337 61.7357,57.0671 60.5,52.5C 60.1667,49.8333 59.8333,47.1667 59.5,44.5C 58.5,44.5 57.5,44.5 56.5,44.5C 56.8767,51.0865 55.8767,57.4199 53.5,63.5C 53.5,64.5 53.5,65.5 53.5,66.5C 52.7784,66.9175 52.2784,67.5842 52,68.5C 51.145,73.5249 50.3116,78.5249 49.5,83.5C 46.5,83.5 43.5,83.5 40.5,83.5C 39.5,82.8333 38.5,82.1667 37.5,81.5C 36.8196,77.4057 35.4863,73.7391 33.5,70.5C 32.2887,65.2361 31.2887,59.9027 30.5,54.5C 29.2626,47.0786 27.5959,39.7453 25.5,32.5C 28.7683,31.513 32.1016,31.1796 35.5,31.5C 37.2039,41.7704 39.5373,51.7704 42.5,61.5 Z"/></g>
<g><path style="opacity:1" fill="#2f72bb" d="M 141.5,31.5 C 141.5,48.5 141.5,65.5 141.5,82.5C 138.5,82.5 135.5,82.5 132.5,82.5C 132.5,65.5 132.5,48.5 132.5,31.5C 135.5,31.5 138.5,31.5 141.5,31.5 Z"/></g>
<g><path style="opacity:1" fill="#bfd2e3" d="M 80.5,30.5 C 80.5,31.5 80.5,32.5 80.5,33.5C 80.5987,36.2372 80.2653,38.9039 79.5,41.5C 78.8686,43.9752 77.8686,46.3085 76.5,48.5C 76.5789,42.0914 77.9122,36.0914 80.5,30.5 Z"/></g>
<g><path style="opacity:1" fill="#7ca6d0" d="M 53.5,31.5 C 57.6344,30.5151 61.9677,30.1818 66.5,30.5C 66.4672,34.8689 66.8005,39.2022 67.5,43.5C 66.8826,43.3893 66.3826,43.056 66,42.5C 65.5014,38.8484 65.3347,35.1817 65.5,31.5C 61.5,31.5 57.5,31.5 53.5,31.5 Z"/></g>
<g><path style="opacity:1" fill="#efd081" d="M 321.5,32.5 C 320.701,35.4299 320.368,38.4299 320.5,41.5C 319.366,39.0336 319.199,36.367 320,33.5C 320.383,32.944 320.883,32.6107 321.5,32.5 Z"/></g>
<g><path style="opacity:1" fill="#5b90c6" d="M 53.5,32.5 C 52.8042,36.4517 52.3042,40.4517 52,44.5C 51.1498,47.409 49.9831,50.0757 48.5,52.5C 48.8333,49.8333 49.1667,47.1667 49.5,44.5C 49.5,44.1667 49.5,43.8333 49.5,43.5C 51.0739,41.8984 51.7406,39.8984 51.5,37.5C 51.1201,35.302 51.7868,33.6354 53.5,32.5 Z"/></g>
<g><path style="opacity:1" fill="#efd187" d="M 383.5,37.5 C 382.198,39.8218 380.198,41.1551 377.5,41.5C 379.147,39.6736 381.147,38.3403 383.5,37.5 Z"/></g>
<g><path style="opacity:1" fill="#ebe0bd" d="M 364.5,25.5 C 364.833,25.5 365.167,25.5 365.5,25.5C 365.666,30.8437 365.499,36.1771 365,41.5C 363.293,42.4585 361.459,43.1252 359.5,43.5C 358.287,43.2528 357.62,42.5862 357.5,41.5C 360.079,41.9167 362.246,41.25 364,39.5C 364.499,34.8452 364.666,30.1785 364.5,25.5 Z"/></g>
<g><path style="opacity:1" fill="#a1bfda" d="M 51.5,37.5 C 51.7406,39.8984 51.0739,41.8984 49.5,43.5C 49.2594,41.1016 49.9261,39.1016 51.5,37.5 Z"/></g>
<g><path style="opacity:1" fill="#a2bfdb" d="M 199.5,43.5 C 195.766,43.3227 192.099,43.6561 188.5,44.5C 188.611,43.8826 188.944,43.3826 189.5,43C 193.027,42.1925 196.36,42.3592 199.5,43.5 Z"/></g>
<g><path style="opacity:1" fill="#f1cb73" d="M 320.5,41.5 C 327.569,43.2036 333.902,46.2036 339.5,50.5C 334.886,48.5722 330.219,46.7388 325.5,45C 323.569,44.0978 321.903,42.9312 320.5,41.5 Z"/></g>
<g><path style="opacity:1" fill="#d5e1e9" d="M 93.5,44.5 C 93.5751,47.2062 93.9084,49.8728 94.5,52.5C 95.8333,52.5 97.1667,52.5 98.5,52.5C 102.5,51.1667 106.5,51.1667 110.5,52.5C 111.167,52.5 111.833,52.5 112.5,52.5C 112.5,53.1667 112.5,53.8333 112.5,54.5C 106.832,53.2142 101.166,53.2142 95.5,54.5C 93.2198,53.2451 92.0532,51.2451 92,48.5C 89.9095,50.4159 88.0761,52.4159 86.5,54.5C 86.8333,53.1667 87.1667,51.8333 87.5,50.5C 87.8726,47.4261 88.5392,44.4261 89.5,41.5C 91.2358,38.1591 92.2358,34.4925 92.5,30.5C 88.5,30.5 84.5,30.5 80.5,30.5C 80.6107,29.8826 80.944,29.3826 81.5,29C 85.4862,28.5012 89.4862,28.3345 93.5,28.5C 92.6476,34.0025 92.6476,39.3359 93.5,44.5 Z"/></g>
<g><path style="opacity:1" fill="#b5ccdf" d="M 159.5,43.5 C 156.287,43.19 153.287,43.5233 150.5,44.5C 149.34,56.9933 149.173,69.6599 150,82.5C 153.057,83.4505 156.223,83.7839 159.5,83.5C 156.101,84.8198 152.601,84.8198 149,83.5C 148.5,69.8374 148.333,56.1707 148.5,42.5C 152.371,42.185 156.038,42.5184 159.5,43.5 Z"/></g>
<g><path style="opacity:1" fill="#3072bb" d="M 188.5,44.5 C 192.099,43.6561 195.766,43.3227 199.5,43.5C 200.167,43.5 200.5,43.8333 200.5,44.5C 202.728,45.3771 204.728,46.7104 206.5,48.5C 206.5,49.1667 206.5,49.8333 206.5,50.5C 207.454,61.1152 207.787,71.7819 207.5,82.5C 204.5,82.5 201.5,82.5 198.5,82.5C 198.826,73.9832 198.493,65.6499 197.5,57.5C 196.995,53.8406 194.828,52.1739 191,52.5C 189.014,52.5687 187.514,53.2353 186.5,54.5C 185.883,54.6107 185.383,54.944 185,55.5C 184.5,64.4938 184.334,73.4938 184.5,82.5C 181.167,82.5 177.833,82.5 174.5,82.5C 174.826,73.6506 174.493,64.9839 173.5,56.5C 172.833,55.1667 171.833,54.1667 170.5,53.5C 168.372,52.3709 166.039,52.2042 163.5,53C 162.177,53.8159 161.511,54.9826 161.5,56.5C 159.53,64.7688 158.864,73.4355 159.5,82.5C 156.833,82.5 154.167,82.5 151.5,82.5C 151.5,70.1667 151.5,57.8333 151.5,45.5C 153.833,45.5 156.167,45.5 158.5,45.5C 158.263,46.791 158.596,47.791 159.5,48.5C 161.632,48.4456 162.965,47.4456 163.5,45.5C 163.918,44.7784 164.584,44.2784 165.5,44C 169.5,43.3333 173.5,43.3333 177.5,44C 179.054,45.892 180.888,47.392 183,48.5C 184.735,46.9174 186.568,45.5841 188.5,44.5 Z"/></g>
<g><path style="opacity:1" fill="#a4c1db" d="M 200.5,44.5 C 203.878,43.8911 205.878,45.2244 206.5,48.5C 204.728,46.7104 202.728,45.3771 200.5,44.5 Z"/></g>
<g><path style="opacity:1" fill="#3173bb" d="M 243.5,48.5 C 243.461,49.7562 243.961,50.7562 245,51.5C 245.333,61.1667 245.667,70.8333 246,80.5C 246.383,81.056 246.883,81.3893 247.5,81.5C 246.082,83.3079 244.082,83.9746 241.5,83.5C 238.996,78.665 235.996,78.3317 232.5,82.5C 227.438,82.7257 222.438,82.3924 217.5,81.5C 216.143,80.4097 215.143,79.0764 214.5,77.5C 212.937,70.5788 214.937,65.0788 220.5,61C 225.841,59.2478 231.174,58.0811 236.5,57.5C 236.633,54.4131 235.3,52.4131 232.5,51.5C 231.036,50.8401 229.369,50.5068 227.5,50.5C 224.02,50.5816 220.687,51.2482 217.5,52.5C 217.5,52.1667 217.5,51.8333 217.5,51.5C 217.5,49.5 217.5,47.5 217.5,45.5C 224.297,43.4542 231.297,42.9542 238.5,44C 240.66,44.9959 242.327,46.4959 243.5,48.5 Z"/></g>
<g><path style="opacity:1" fill="#f0ce7c" d="M 377.5,41.5 C 376.415,43.5869 374.749,44.9202 372.5,45.5C 373.585,43.4131 375.251,42.0798 377.5,41.5 Z"/></g>
<g><path style="opacity:1" fill="#3274bb" d="M 121.5,49.5 C 121.461,50.7562 121.961,51.7562 123,52.5C 123.5,62.4944 123.666,72.4944 123.5,82.5C 121.833,82.5 120.167,82.5 118.5,82.5C 117.185,81.5244 115.852,80.5244 114.5,79.5C 113.817,79.8627 113.15,80.1961 112.5,80.5C 106.167,83.1667 99.8333,83.1667 93.5,80.5C 92.0937,80.0269 91.427,79.0269 91.5,77.5C 91.5,73.5 91.5,69.5 91.5,65.5C 91.8333,64.5 92.5,63.8333 93.5,63.5C 95.7488,62.9202 97.4154,61.5869 98.5,59.5C 99.1667,59.5 99.8333,59.5 100.5,59.5C 105.13,58.7705 109.797,58.4372 114.5,58.5C 114.741,56.1016 114.074,54.1016 112.5,52.5C 111.833,52.5 111.167,52.5 110.5,52.5C 108.952,51.2057 106.952,50.5391 104.5,50.5C 102.048,50.5391 100.048,51.2057 98.5,52.5C 97.1667,52.5 95.8333,52.5 94.5,52.5C 93.9084,49.8728 93.5751,47.2062 93.5,44.5C 100.464,43.4469 107.464,43.2803 114.5,44C 117.572,44.9068 119.905,46.7401 121.5,49.5 Z"/></g>
<g><path style="opacity:1" fill="#b9d0e2" d="M 254.5,43.5 C 254.171,56.6774 254.505,69.6774 255.5,82.5C 258.625,83.4794 261.958,83.8128 265.5,83.5C 261.767,84.821 257.934,84.821 254,83.5C 253.173,69.9936 253.34,56.6603 254.5,43.5 Z"/></g>
<g><path style="opacity:1" fill="#6f9dcd" d="M 254.5,43.5 C 257.833,43.5 261.167,43.5 264.5,43.5C 264.205,45.7354 264.539,47.7354 265.5,49.5C 265.631,50.3764 265.298,51.0431 264.5,51.5C 263.526,49.2573 263.192,46.924 263.5,44.5C 260.833,44.5 258.167,44.5 255.5,44.5C 255.5,57.1667 255.5,69.8333 255.5,82.5C 254.505,69.6774 254.171,56.6774 254.5,43.5 Z"/></g>
<g><path style="opacity:1" fill="#efd38e" d="M 393.5,44.5 C 389.414,46.8701 385.081,48.8701 380.5,50.5C 384.242,47.3572 388.575,45.3572 393.5,44.5 Z"/></g>
<g><path style="opacity:1" fill="#588cc5" d="M 150.5,44.5 C 153.5,44.5 156.5,44.5 159.5,44.5C 159.5,45.8333 159.5,47.1667 159.5,48.5C 158.596,47.791 158.263,46.791 158.5,45.5C 156.167,45.5 153.833,45.5 151.5,45.5C 151.5,57.8333 151.5,70.1667 151.5,82.5C 154.167,82.5 156.833,82.5 159.5,82.5C 159.5,82.8333 159.5,83.1667 159.5,83.5C 156.223,83.7839 153.057,83.4505 150,82.5C 149.173,69.6599 149.34,56.9933 150.5,44.5 Z"/></g>
<g><path style="opacity:1" fill="#83abd3" d="M 150.5,44.5 C 153.287,43.5233 156.287,43.19 159.5,43.5C 160.158,44.3984 160.824,45.3984 161.5,46.5C 162.183,46.1373 162.85,45.8039 163.5,45.5C 162.965,47.4456 161.632,48.4456 159.5,48.5C 159.5,47.1667 159.5,45.8333 159.5,44.5C 156.5,44.5 153.5,44.5 150.5,44.5 Z"/></g>
<g><path style="opacity:1" fill="#2f72bb" d="M 276.5,43.5 C 276.5,46.5 276.5,49.5 276.5,52.5C 273.083,52.023 270.416,53.023 268.5,55.5C 267.833,55.5 267.5,55.8333 267.5,56.5C 265.896,57.287 265.229,58.6203 265.5,60.5C 264.508,67.6476 264.175,74.9809 264.5,82.5C 261.5,82.5 258.5,82.5 255.5,82.5C 255.5,69.8333 255.5,57.1667 255.5,44.5C 258.167,44.5 260.833,44.5 263.5,44.5C 263.192,46.924 263.526,49.2573 264.5,51.5C 265.298,51.0431 265.631,50.3764 265.5,49.5C 267.216,44.1461 270.883,42.1461 276.5,43.5 Z"/></g>
<g><path style="opacity:1" fill="#7fa7d1" d="M 42.5,61.5 C 39.5373,51.7704 37.2039,41.7704 35.5,31.5C 32.1016,31.1796 28.7683,31.513 25.5,32.5C 27.5959,39.7453 29.2626,47.0786 30.5,54.5C 28.4374,49.3125 26.604,43.9792 25,38.5C 24.5026,35.854 24.3359,33.1873 24.5,30.5C 28.8333,30.5 33.1667,30.5 37.5,30.5C 38.7,40.8988 40.3667,51.2321 42.5,61.5 Z"/></g>
<g><path style="opacity:1" fill="#7fa8d1" d="M 217.5,45.5 C 217.5,47.5 217.5,49.5 217.5,51.5C 215.084,49.2949 215.084,47.2949 217.5,45.5 Z"/></g>
<g><path style="opacity:1" fill="#73a0cd" d="M 276.5,43.5 C 278.402,46.3373 279.069,49.6707 278.5,53.5C 274.963,53.3107 271.63,53.9774 268.5,55.5C 270.416,53.023 273.083,52.023 276.5,52.5C 276.5,49.5 276.5,46.5 276.5,43.5 Z"/></g>
<g><path style="opacity:1" fill="#93b5d6" d="M 110.5,52.5 C 106.5,51.1667 102.5,51.1667 98.5,52.5C 100.048,51.2057 102.048,50.5391 104.5,50.5C 106.952,50.5391 108.952,51.2057 110.5,52.5 Z"/></g>
<g><path style="opacity:1" fill="#9abad8" d="M 232.5,51.5 C 227.511,51.0395 222.844,52.0395 218.5,54.5C 217.702,54.0431 217.369,53.3764 217.5,52.5C 220.687,51.2482 224.02,50.5816 227.5,50.5C 229.369,50.5068 231.036,50.8401 232.5,51.5 Z"/></g>
<g><path style="opacity:1" fill="#edd9a6" d="M 380.5,50.5 C 379.688,51.9931 378.355,52.6598 376.5,52.5C 375.274,52.4805 374.274,52.1471 373.5,51.5C 375.903,51.552 378.236,51.2186 380.5,50.5 Z"/></g>
<g><path style="opacity:1" fill="#9bbad8" d="M 301.5,43.5 C 302.482,46.9619 302.815,50.6286 302.5,54.5C 299.5,54.5 296.5,54.5 293.5,54.5C 293.5,60.8333 293.5,67.1667 293.5,73.5C 292.346,67.013 292.179,60.3464 293,53.5C 295.719,52.5562 298.552,52.2229 301.5,52.5C 301.5,49.5 301.5,46.5 301.5,43.5 Z"/></g>
<g><path style="opacity:1" fill="#b4cbe0" d="M 49.5,44.5 C 49.1667,47.1667 48.8333,49.8333 48.5,52.5C 47.6693,55.659 46.6693,58.659 45.5,61.5C 46.4961,56.2717 47.3295,50.9384 48,45.5C 48.3826,44.944 48.8826,44.6107 49.5,44.5 Z"/></g>
<g><path style="opacity:1" fill="#5e91c7" d="M 79.5,41.5 C 79.2781,46.9182 78.4448,52.2516 77,57.5C 76.6174,58.056 76.1174,58.3893 75.5,58.5C 76.0508,55.1933 76.3841,51.8599 76.5,48.5C 77.8686,46.3085 78.8686,43.9752 79.5,41.5 Z"/></g>
<g><path style="opacity:1" fill="#8aafd4" d="M 87.5,50.5 C 87.1667,51.8333 86.8333,53.1667 86.5,54.5C 85.165,58.3053 84.3317,62.3053 84,66.5C 83.6174,67.056 83.1174,67.3893 82.5,67.5C 83.1371,64.544 83.6371,61.544 84,58.5C 84.6379,55.3991 85.8046,52.7324 87.5,50.5 Z"/></g>
<g><path style="opacity:1" fill="#b4cbdf" d="M 246.5,52.5 C 247.117,52.6107 247.617,52.944 248,53.5C 248.5,64.1615 248.667,74.8281 248.5,85.5C 245.612,86.0102 243.279,85.3435 241.5,83.5C 244.082,83.9746 246.082,83.3079 247.5,81.5C 247.782,71.7807 247.449,62.1141 246.5,52.5 Z"/></g>
<g><path style="opacity:1" fill="#6798ca" d="M 112.5,52.5 C 114.074,54.1016 114.741,56.1016 114.5,58.5C 109.797,58.4372 105.13,58.7705 100.5,59.5C 104.183,57.7501 108.183,57.0834 112.5,57.5C 112.5,56.5 112.5,55.5 112.5,54.5C 112.5,53.8333 112.5,53.1667 112.5,52.5 Z"/></g>
<g><path style="opacity:1" fill="#c7d7e4" d="M 170.5,53.5 C 167.635,53.0548 165.135,53.7215 163,55.5C 162.667,64.5 162.333,73.5 162,82.5C 161.329,83.2524 160.496,83.5858 159.5,83.5C 159.5,83.1667 159.5,82.8333 159.5,82.5C 160.221,73.9636 160.888,65.2969 161.5,56.5C 161.511,54.9826 162.177,53.8159 163.5,53C 166.039,52.2042 168.372,52.3709 170.5,53.5 Z"/></g>
<g><path style="opacity:1" fill="#7ea5d0" d="M 173.5,56.5 C 174.493,64.9839 174.826,73.6506 174.5,82.5C 177.833,82.5 181.167,82.5 184.5,82.5C 184.5,82.8333 184.5,83.1667 184.5,83.5C 180.833,83.5 177.167,83.5 173.5,83.5C 173.5,74.5 173.5,65.5 173.5,56.5 Z"/></g>
<g><path style="opacity:1" fill="#74a0cd" d="M 236.5,57.5 C 231.174,58.0811 225.841,59.2478 220.5,61C 214.937,65.0788 212.937,70.5788 214.5,77.5C 211.909,70.4778 213.575,64.6444 219.5,60C 224.932,57.7953 230.598,56.962 236.5,57.5 Z"/></g>
<g><path style="opacity:1" fill="#4b86c3" d="M 243.5,48.5 C 245.262,49.2623 246.262,50.5956 246.5,52.5C 247.449,62.1141 247.782,71.7807 247.5,81.5C 246.883,81.3893 246.383,81.056 246,80.5C 245.667,70.8333 245.333,61.1667 245,51.5C 243.961,50.7562 243.461,49.7562 243.5,48.5 Z"/></g>
<g><path style="opacity:1" fill="#72a0cd" d="M 161.5,56.5 C 160.888,65.2969 160.221,73.9636 159.5,82.5C 158.864,73.4355 159.53,64.7688 161.5,56.5 Z"/></g>
<g><path style="opacity:1" fill="#7aa4cf" d="M 121.5,49.5 C 123.975,50.6874 124.975,52.6874 124.5,55.5C 124.5,64.8333 124.5,74.1667 124.5,83.5C 122.5,83.5 120.5,83.5 118.5,83.5C 118.5,83.1667 118.5,82.8333 118.5,82.5C 120.167,82.5 121.833,82.5 123.5,82.5C 123.666,72.4944 123.5,62.4944 123,52.5C 121.961,51.7562 121.461,50.7562 121.5,49.5 Z"/></g>
<g><path style="opacity:1" fill="#b1cbdf" d="M 124.5,55.5 C 125.658,64.9911 125.825,74.6578 125,84.5C 122.36,86.0997 120.193,85.7664 118.5,83.5C 120.5,83.5 122.5,83.5 124.5,83.5C 124.5,74.1667 124.5,64.8333 124.5,55.5 Z"/></g>
<g><path style="opacity:1" fill="#a0bfdb" d="M 186.5,54.5 C 185.882,64.2963 185.215,73.963 184.5,83.5C 184.5,83.1667 184.5,82.8333 184.5,82.5C 184.334,73.4938 184.5,64.4938 185,55.5C 185.383,54.944 185.883,54.6107 186.5,54.5 Z"/></g>
<g><path style="opacity:1" fill="#87add3" d="M 60.5,52.5 C 59.2502,52.4226 58.4169,51.756 58,50.5C 57.5577,55.3461 56.0577,59.6795 53.5,63.5C 55.8767,57.4199 56.8767,51.0865 56.5,44.5C 57.5,44.5 58.5,44.5 59.5,44.5C 59.8333,47.1667 60.1667,49.8333 60.5,52.5 Z"/></g>
<g><path style="opacity:1" fill="#75a2ce" d="M 98.5,59.5 C 97.4154,61.5869 95.7488,62.9202 93.5,63.5C 94.5846,61.4131 96.2512,60.0798 98.5,59.5 Z"/></g>
<g><path style="opacity:1" fill="#4b88c4" d="M 265.5,60.5 C 265.5,68.1667 265.5,75.8333 265.5,83.5C 261.958,83.8128 258.625,83.4794 255.5,82.5C 258.5,82.5 261.5,82.5 264.5,82.5C 264.175,74.9809 264.508,67.6476 265.5,60.5 Z"/></g>
<g><path style="opacity:1" fill="#f4bd40" d="M 373.5,63.5 C 375.857,63.3367 378.19,63.5034 380.5,64C 383.513,66.1717 386.846,67.6717 390.5,68.5C 391.635,70.2132 393.302,70.8799 395.5,70.5C 396.622,71.9473 398.122,72.9473 400,73.5C 400.678,75.5976 400.511,77.5976 399.5,79.5C 398.5,79.8333 397.833,80.5 397.5,81.5C 395.167,82.8333 392.833,82.8333 390.5,81.5C 389.06,79.6121 387.394,77.9454 385.5,76.5C 384.311,75.5713 382.978,75.238 381.5,75.5C 378.19,73.5179 375.19,71.1846 372.5,68.5C 372.366,66.7085 372.699,65.0418 373.5,63.5 Z"/></g>
<g><path style="opacity:1" fill="#edd9a1" d="M 390.5,68.5 C 386.846,67.6717 383.513,66.1717 380.5,64C 378.19,63.5034 375.857,63.3367 373.5,63.5C 373.866,62.3054 374.699,61.6387 376,61.5C 381.349,62.9921 386.182,65.3254 390.5,68.5 Z"/></g>
<g><path style="opacity:1" fill="#f4be42" d="M 346.5,64.5 C 346.785,66.288 346.452,67.9547 345.5,69.5C 344.099,70.5207 342.765,71.5207 341.5,72.5C 340.833,73.1667 340.167,73.8333 339.5,74.5C 336.865,75.8109 334.531,77.4776 332.5,79.5C 329.341,83.545 325.674,84.2117 321.5,81.5C 320.701,78.5701 320.368,75.5701 320.5,72.5C 323.852,72.47 326.518,71.1367 328.5,68.5C 333.634,66.4325 338.634,64.0992 343.5,61.5C 345.175,61.8684 346.175,62.8684 346.5,64.5 Z"/></g>
<g><path style="opacity:1" fill="#eed597" d="M 373.5,63.5 C 372.699,65.0418 372.366,66.7085 372.5,68.5C 371.861,67.9032 371.528,67.0698 371.5,66C 371.684,64.6244 372.351,63.7911 373.5,63.5 Z"/></g>
<g><path style="opacity:1" fill="#e1e8ec" d="M 113.5,71.5 C 113.262,73.4044 112.262,74.7377 110.5,75.5C 107.833,75.5 105.167,75.5 102.5,75.5C 102.5,72.8333 102.5,70.1667 102.5,67.5C 105.919,65.9133 109.585,65.2467 113.5,65.5C 113.5,67.5 113.5,69.5 113.5,71.5 Z"/></g>
<g><path style="opacity:1" fill="#98b9d9" d="M 42.5,61.5 C 43.2679,62.2625 43.7679,63.2625 44,64.5C 44.3826,63.944 44.8826,63.6107 45.5,63.5C 45.7529,65.8273 45.0863,67.8273 43.5,69.5C 42.52,66.9135 42.1866,64.2469 42.5,61.5 Z"/></g>
<g><path style="opacity:1" fill="#729fcd" d="M 69.5,52.5 C 70.6592,56.7249 71.8258,61.0582 73,65.5C 73.9344,64.1416 74.7677,62.8083 75.5,61.5C 75.5,63.8333 75.5,66.1667 75.5,68.5C 74.1667,68.5 72.8333,68.5 71.5,68.5C 70.0309,63.2796 69.3642,57.9462 69.5,52.5 Z"/></g>
<g><path style="opacity:1" fill="#6f9dcd" d="M 226.5,66.5 C 226.791,65.3509 227.624,64.6842 229,64.5C 231.792,63.7844 234.626,63.4511 237.5,63.5C 239.357,74.8139 234.857,78.8139 224,75.5C 223.333,72.8333 223.333,70.1667 224,67.5C 224.671,66.7476 225.504,66.4142 226.5,66.5 Z"/></g>
<g><path style="opacity:1" fill="#dfe6eb" d="M 226.5,66.5 C 229.728,65.5863 233.061,65.2529 236.5,65.5C 237.19,74.3117 233.357,77.3117 225,74.5C 224.109,71.5024 224.609,68.8357 226.5,66.5 Z"/></g>
<g><path style="opacity:1" fill="#91b3d6" d="M 113.5,71.5 C 113.5,69.5 113.5,67.5 113.5,65.5C 109.585,65.2467 105.919,65.9133 102.5,67.5C 102.5,70.1667 102.5,72.8333 102.5,75.5C 105.167,75.5 107.833,75.5 110.5,75.5C 107.713,76.4767 104.713,76.81 101.5,76.5C 99.4318,66.732 103.432,62.5653 113.5,64C 114.814,66.6047 114.814,69.1047 113.5,71.5 Z"/></g>
<g><path style="opacity:1" fill="#eedaab" d="M 390.5,68.5 C 392.698,68.1201 394.365,68.7868 395.5,70.5C 393.302,70.8799 391.635,70.2132 390.5,68.5 Z"/></g>
<g><path style="opacity:1" fill="#a0bfdb" d="M 267.5,56.5 C 266.886,65.63 266.219,74.63 265.5,83.5C 265.5,75.8333 265.5,68.1667 265.5,60.5C 265.229,58.6203 265.896,57.287 267.5,56.5 Z"/></g>
<g><path style="opacity:1" fill="#efd492" d="M 346.5,64.5 C 348.676,65.7133 349.009,67.38 347.5,69.5C 345.929,71.415 343.929,72.415 341.5,72.5C 342.765,71.5207 344.099,70.5207 345.5,69.5C 346.452,67.9547 346.785,66.288 346.5,64.5 Z"/></g>
<g><path style="opacity:1" fill="#9abbd8" d="M 62.5,66.5 C 64.139,69.8704 65.139,73.5371 65.5,77.5C 64.8826,77.3893 64.3826,77.056 64,76.5C 63.3897,73.1727 62.8897,69.8394 62.5,66.5 Z"/></g>
<g><path style="opacity:1" fill="#6d9bcc" d="M 91.5,65.5 C 91.5,69.5 91.5,73.5 91.5,77.5C 89.9735,76.5081 89.3068,75.0081 89.5,73C 89.6462,70.2402 90.3128,67.7402 91.5,65.5 Z"/></g>
<g><path style="opacity:1" fill="#f0d185" d="M 328.5,68.5 C 326.518,71.1367 323.852,72.47 320.5,72.5C 322.789,70.6127 325.455,69.2794 328.5,68.5 Z"/></g>
<g><path style="opacity:1" fill="#eddaa9" d="M 362.5,72.5 C 360.05,72.298 357.717,72.6314 355.5,73.5C 356.152,72.2749 357.319,71.6083 359,71.5C 360.385,71.5143 361.551,71.8476 362.5,72.5 Z"/></g>
<g><path style="opacity:1" fill="#ebe1c2" d="M 395.5,70.5 C 399.45,70.3915 401.45,72.2249 401.5,76C 401.392,77.6811 400.725,78.8478 399.5,79.5C 400.511,77.5976 400.678,75.5976 400,73.5C 398.122,72.9473 396.622,71.9473 395.5,70.5 Z"/></g>
<g><path style="opacity:1" fill="#a3c0db" d="M 33.5,70.5 C 35.4863,73.7391 36.8196,77.4057 37.5,81.5C 34.6112,78.5091 33.2779,74.8424 33.5,70.5 Z"/></g>
<g><path style="opacity:1" fill="#99bad8" d="M 82.5,70.5 C 82.8799,72.698 82.2132,74.3646 80.5,75.5C 80.1201,73.302 80.7868,71.6354 82.5,70.5 Z"/></g>
<g><path style="opacity:1" fill="#6796ca" d="M 206.5,50.5 C 208.477,61.1158 209.144,72.1158 208.5,83.5C 204.833,83.5 201.167,83.5 197.5,83.5C 197.5,74.8333 197.5,66.1667 197.5,57.5C 198.493,65.6499 198.826,73.9832 198.5,82.5C 201.5,82.5 204.5,82.5 207.5,82.5C 207.787,71.7819 207.454,61.1152 206.5,50.5 Z"/></g>
<g><path style="opacity:1" fill="#f4bc3c" d="M 364.5,79.5 C 364.5,81.8333 364.5,84.1667 364.5,86.5C 364.5,91.1667 364.5,95.8333 364.5,100.5C 364.5,100.833 364.5,101.167 364.5,101.5C 361.465,102.734 358.465,102.734 355.5,101.5C 354.833,101.5 354.5,101.167 354.5,100.5C 354.5,97.5 354.5,94.5 354.5,91.5C 355.117,91.3893 355.617,91.056 356,90.5C 356.333,85.1667 356.667,79.8333 357,74.5C 358.699,73.5939 360.533,73.2606 362.5,73.5C 362.054,76.0101 362.72,78.0101 364.5,79.5 Z"/></g>
<g><path style="opacity:1" fill="#f2c65e" d="M 362.5,72.5 C 363.167,72.5 363.5,72.8333 363.5,73.5C 364.341,75.3792 364.675,77.3792 364.5,79.5C 362.72,78.0101 362.054,76.0101 362.5,73.5C 360.533,73.2606 358.699,73.5939 357,74.5C 356.667,79.8333 356.333,85.1667 356,90.5C 355.617,91.056 355.117,91.3893 354.5,91.5C 355.074,85.5164 355.407,79.5164 355.5,73.5C 357.717,72.6314 360.05,72.298 362.5,72.5 Z"/></g>
<g><path style="opacity:1" fill="#f2c96a" d="M 381.5,75.5 C 382.978,75.238 384.311,75.5713 385.5,76.5C 387.394,77.9454 389.06,79.6121 390.5,81.5C 386.975,80.2411 383.975,78.2411 381.5,75.5 Z"/></g>
<g><path style="opacity:1" fill="#a2bfda" d="M 293.5,73.5 C 296.43,74.299 299.43,74.6323 302.5,74.5C 302.81,77.7131 302.477,80.7131 301.5,83.5C 301.5,80.8333 301.5,78.1667 301.5,75.5C 299.167,75.5 296.833,75.5 294.5,75.5C 294.167,74.8333 293.833,74.1667 293.5,73.5 Z"/></g>
<g><path style="opacity:1" fill="#edd9a5" d="M 339.5,74.5 C 338.052,77.264 335.719,78.9307 332.5,79.5C 334.531,77.4776 336.865,75.8109 339.5,74.5 Z"/></g>
<g><path style="opacity:1" fill="#eed594" d="M 320.5,72.5 C 320.368,75.5701 320.701,78.5701 321.5,81.5C 320.883,81.3893 320.383,81.056 320,80.5C 319.199,77.633 319.366,74.9664 320.5,72.5 Z"/></g>
<g><path style="opacity:1" fill="#ecdcaf" d="M 355.5,73.5 C 355.407,79.5164 355.074,85.5164 354.5,91.5C 354.5,94.5 354.5,97.5 354.5,100.5C 353.835,96.8485 353.501,93.0152 353.5,89C 353.281,83.5676 353.948,78.4009 355.5,73.5 Z"/></g>
<g><path style="opacity:1" fill="#6194c9" d="M 93.5,80.5 C 99.8333,83.1667 106.167,83.1667 112.5,80.5C 112.047,81.4584 111.381,82.2917 110.5,83C 105.487,84.893 100.487,84.893 95.5,83C 94.6195,82.2917 93.9528,81.4584 93.5,80.5 Z"/></g>
<g><path style="opacity:1" fill="#6395c9" d="M 217.5,81.5 C 222.438,82.3924 227.438,82.7257 232.5,82.5C 228.064,84.9617 223.397,85.1284 218.5,83C 217.944,82.6174 217.611,82.1174 217.5,81.5 Z"/></g>
<g><path style="opacity:1" fill="#578dc6" d="M 294.5,75.5 C 296.833,75.5 299.167,75.5 301.5,75.5C 301.5,78.1667 301.5,80.8333 301.5,83.5C 301.167,83.5 300.833,83.5 300.5,83.5C 296.468,84.7663 292.468,84.7663 288.5,83.5C 287.833,83.5 287.5,83.1667 287.5,82.5C 291.833,82.5 296.167,82.5 300.5,82.5C 300.5,80.5 300.5,78.5 300.5,76.5C 298.265,76.7947 296.265,76.4614 294.5,75.5 Z"/></g>
<g><path style="opacity:1" fill="#eed491" d="M 390.5,81.5 C 392.833,82.8333 395.167,82.8333 397.5,81.5C 396.848,82.7251 395.681,83.3917 394,83.5C 392.319,83.3917 391.152,82.7251 390.5,81.5 Z"/></g>
<g><path style="opacity:1" fill="#ecddb1" d="M 363.5,73.5 C 365.43,77.3727 366.097,81.706 365.5,86.5C 365.167,86.5 364.833,86.5 364.5,86.5C 364.5,84.1667 364.5,81.8333 364.5,79.5C 364.675,77.3792 364.341,75.3792 363.5,73.5 Z"/></g>
<g><path style="opacity:1" fill="#b0c8df" d="M 53.5,66.5 C 52.8721,72.5998 51.7055,78.5998 50,84.5C 47.2628,85.6105 44.4294,85.7772 41.5,85C 40.944,84.6174 40.6107,84.1174 40.5,83.5C 43.5,83.5 46.5,83.5 49.5,83.5C 50.3116,78.5249 51.145,73.5249 52,68.5C 52.2784,67.5842 52.7784,66.9175 53.5,66.5 Z"/></g>
<g><path style="opacity:1" fill="#b9cee1" d="M 80.5,79.5 C 81.0352,82.2385 80.0352,84.0718 77.5,85C 74.7728,85.8184 72.1062,85.6517 69.5,84.5C 68.3881,83.7348 67.7214,82.7348 67.5,81.5C 70.9716,83.2577 74.6382,83.7577 78.5,83C 79.0848,81.6976 79.7515,80.531 80.5,79.5 Z"/></g>
<g><path style="opacity:1" fill="#b6cde1" d="M 288.5,83.5 C 292.468,84.7663 296.468,84.7663 300.5,83.5C 300.389,84.1174 300.056,84.6174 299.5,85C 297.667,85.1667 295.833,85.3333 294,85.5C 291.705,85.4535 289.871,84.7868 288.5,83.5 Z"/></g>
<g><path style="opacity:1" fill="#f0ce7d" d="M 364.5,86.5 C 364.833,86.5 365.167,86.5 365.5,86.5C 366.368,90.8076 366.534,95.141 366,99.5C 365.617,100.056 365.117,100.389 364.5,100.5C 364.5,95.8333 364.5,91.1667 364.5,86.5 Z"/></g>
<g><path style="opacity:1" fill="#ebdfb8" d="M 355.5,101.5 C 358.465,102.734 361.465,102.734 364.5,101.5C 364.389,102.117 364.056,102.617 363.5,103C 362.167,103.167 360.833,103.333 359.5,103.5C 357.667,103.415 356.334,102.748 355.5,101.5 Z"/></g>
<g><path style="opacity:1" fill="#7da4d2" d="M 391.5,219.5 C 391.5,187.167 391.5,154.833 391.5,122.5C 303.998,122.167 216.665,122.501 129.5,123.5C 129.5,154.833 129.5,186.167 129.5,217.5C 129.5,218.167 129.5,218.833 129.5,219.5C 128.502,187.004 128.168,154.338 128.5,121.5C 216.5,121.5 304.5,121.5 392.5,121.5C 392.832,154.338 392.498,187.004 391.5,219.5 Z"/></g>
<g><path style="opacity:1" fill="#296fcc" d="M 129.5,123.5 C 216.5,123.5 303.5,123.5 390.5,123.5C 390.5,154.833 390.5,186.167 390.5,217.5C 303.5,217.5 216.5,217.5 129.5,217.5C 129.5,186.167 129.5,154.833 129.5,123.5 Z"/></g>
<g><path style="opacity:1" fill="#2b72c9" d="M 132.5,124.5 C 218.308,124.003 303.975,124.503 389.5,126C 303.915,127.661 218.248,127.994 132.5,127C 131.402,126.23 131.402,125.397 132.5,124.5 Z"/></g>
<g><path style="opacity:1" fill="#2b70c9" d="M 131.5,128.5 C 217.5,128.5 303.5,128.5 389.5,128.5C 389.831,136.196 389.497,143.862 388.5,151.5C 385.833,152.833 385.833,154.167 388.5,155.5C 388.833,157.833 389.167,160.167 389.5,162.5C 389.724,166.766 389.058,170.099 387.5,172.5C 387.528,176.899 388.028,177.232 389,173.5C 389.171,187.916 389.338,202.249 389.5,216.5C 370.164,216.667 350.83,216.5 331.5,216C 330.5,214 329.5,214 328.5,216C 262.834,216.5 197.168,216.667 131.5,216.5C 131.5,187.167 131.5,157.833 131.5,128.5 Z"/></g>
<g><path style="opacity:1" fill="#608b95" d="M 372.5,137.5 C 354.155,137.167 335.821,137.5 317.5,138.5C 316.691,140.071 316.357,141.738 316.5,143.5C 316.5,144.167 316.167,144.5 315.5,144.5C 315.292,142.08 315.626,139.747 316.5,137.5C 335.329,136.172 353.996,136.172 372.5,137.5 Z"/></g>
<g><path style="opacity:1" fill="#b1b86d" d="M 372.5,137.5 C 374.027,137.427 375.027,138.094 375.5,139.5C 375.5,141.167 375.5,142.833 375.5,144.5C 374.833,144.5 374.5,144.167 374.5,143.5C 374.714,141.856 374.38,140.356 373.5,139C 355.17,138.5 336.836,138.333 318.5,138.5C 318.5,140.167 318.5,141.833 318.5,143.5C 317.833,143.5 317.167,143.5 316.5,143.5C 316.357,141.738 316.691,140.071 317.5,138.5C 335.821,137.5 354.155,137.167 372.5,137.5 Z"/></g>
<g><path style="opacity:1" fill="#edc945" d="M 374.5,143.5 C 372.744,144.552 372.077,146.219 372.5,148.5C 355.163,148.667 337.83,148.5 320.5,148C 319.901,146.378 319.234,144.878 318.5,143.5C 318.5,141.833 318.5,140.167 318.5,138.5C 336.836,138.333 355.17,138.5 373.5,139C 374.38,140.356 374.714,141.856 374.5,143.5 Z"/></g>
<g><path style="opacity:1" fill="#567f94" d="M 375.5,139.5 C 376.309,141.028 376.976,142.694 377.5,144.5C 377.167,144.5 376.833,144.5 376.5,144.5C 376.167,144.5 375.833,144.5 375.5,144.5C 375.5,142.833 375.5,141.167 375.5,139.5 Z"/></g>
<g><path style="opacity:1" fill="#e6b63d" d="M 328.5,140.5 C 330.5,140.5 332.5,140.5 334.5,140.5C 334.238,141.978 334.571,143.311 335.5,144.5C 342.108,143.538 348.774,143.205 355.5,143.5C 355.5,142.5 355.5,141.5 355.5,140.5C 358.167,140.5 360.833,140.5 363.5,140.5C 363.5,141.833 363.5,143.167 363.5,144.5C 366.167,144.5 368.833,144.5 371.5,144.5C 371.5,145.5 371.5,146.5 371.5,147.5C 354.82,147.833 338.153,147.499 321.5,146.5C 321.709,145.914 322.043,145.414 322.5,145C 324.473,144.505 326.473,144.338 328.5,144.5C 328.5,143.167 328.5,141.833 328.5,140.5 Z"/></g>
<g><path style="opacity:1" fill="#f1e76a" d="M 316.5,143.5 C 317.167,143.5 317.833,143.5 318.5,143.5C 319.234,144.878 319.901,146.378 320.5,148C 337.83,148.5 355.163,148.667 372.5,148.5C 372.077,146.219 372.744,144.552 374.5,143.5C 374.5,144.167 374.833,144.5 375.5,144.5C 375.833,144.5 376.167,144.5 376.5,144.5C 376.893,146.284 377.559,147.95 378.5,149.5C 373.167,149.5 367.833,149.5 362.5,149.5C 362.795,151.735 362.461,153.735 361.5,155.5C 361.719,154.325 361.386,153.325 360.5,152.5C 359.828,153.949 359.161,155.282 358.5,156.5C 358.5,154.5 358.5,152.5 358.5,150.5C 350.16,150.334 341.827,150.5 333.5,151C 334.406,152.699 334.739,154.533 334.5,156.5C 332.787,155.365 332.12,153.698 332.5,151.5C 331.5,151.5 330.5,151.5 329.5,151.5C 329.629,153.216 329.962,154.883 330.5,156.5C 328.72,155.01 328.054,153.01 328.5,150.5C 323.5,150.5 318.5,150.5 313.5,150.5C 313.833,149.167 314.167,147.833 314.5,146.5C 314.5,146.167 314.5,145.833 314.5,145.5C 314.5,144.833 314.833,144.5 315.5,144.5C 316.167,144.5 316.5,144.167 316.5,143.5 Z"/></g>
<g><path style="opacity:1" fill="#bcc061" d="M 314.5,146.5 C 314.167,147.833 313.833,149.167 313.5,150.5C 313.5,164.167 313.5,177.833 313.5,191.5C 313.2,196.099 313.533,200.599 314.5,205C 324.494,205.5 334.494,205.666 344.5,205.5C 334.342,206.659 324.008,206.825 313.5,206C 312.956,205.283 312.289,204.783 311.5,204.5C 311.333,185.497 311.5,166.497 312,147.5C 312.671,146.748 313.504,146.414 314.5,146.5 Z"/></g>
<g><path style="opacity:1" fill="#eee550" d="M 313.5,150.5 C 318.5,150.5 323.5,150.5 328.5,150.5C 328.054,153.01 328.72,155.01 330.5,156.5C 332.565,160.597 335.565,163.93 339.5,166.5C 339.62,167.586 340.287,168.253 341.5,168.5C 344.783,169.327 348.116,169.66 351.5,169.5C 351.5,170.5 351.5,171.5 351.5,172.5C 350.89,173.391 350.557,174.391 350.5,175.5C 349.699,177.042 349.366,178.708 349.5,180.5C 348.549,181.919 348.216,183.585 348.5,185.5C 342.5,185.5 336.5,185.5 330.5,185.5C 329.167,185.5 327.833,185.5 326.5,185.5C 326.384,188.91 328.05,190.244 331.5,189.5C 331.5,190.5 331.5,191.5 331.5,192.5C 329.5,192.5 327.5,192.5 325.5,192.5C 322.287,192.19 319.287,192.523 316.5,193.5C 315.883,193.611 315.383,193.944 315,194.5C 314.768,193.263 314.268,192.263 313.5,191.5C 313.5,177.833 313.5,164.167 313.5,150.5 Z"/></g>
<g><path style="opacity:1" fill="#ede654" d="M 358.5,156.5 C 351.625,164.505 343.791,165.505 335,159.5C 334.517,158.552 334.351,157.552 334.5,156.5C 334.739,154.533 334.406,152.699 333.5,151C 341.827,150.5 350.16,150.334 358.5,150.5C 358.5,152.5 358.5,154.5 358.5,156.5 Z"/></g>
<g><path style="opacity:1" fill="#689394" d="M 380.5,146.5 C 381.662,165.996 381.829,185.662 381,205.5C 380.5,206 380,206.5 379.5,207C 372.174,207.5 364.841,207.666 357.5,207.5C 357.5,207.167 357.5,206.833 357.5,206.5C 364.687,206.825 371.687,206.491 378.5,205.5C 379.117,205.389 379.617,205.056 380,204.5C 380.5,185.17 380.667,165.836 380.5,146.5 Z"/></g>
<g><path style="opacity:1" fill="#6f9fc7" d="M 145.5,156.5 C 152.833,155.167 160.167,155.167 167.5,156.5C 167.795,158.735 167.461,160.735 166.5,162.5C 166.5,160.5 166.5,158.5 166.5,156.5C 159.5,156.5 152.5,156.5 145.5,156.5 Z"/></g>
<g><path style="opacity:1" fill="#f5fafa" d="M 152.5,162.5 C 150.882,165.171 150.215,168.171 150.5,171.5C 153.625,172.479 156.958,172.813 160.5,172.5C 160.5,173.833 160.5,175.167 160.5,176.5C 156.5,176.5 152.5,176.5 148.5,176.5C 148.423,180.877 147.923,185.21 147,189.5C 144.959,190.423 142.792,190.756 140.5,190.5C 140.366,188.708 140.699,187.042 141.5,185.5C 142.972,181.081 143.638,176.414 143.5,171.5C 143.5,170.167 143.5,168.833 143.5,167.5C 145.175,164.493 145.841,161.16 145.5,157.5C 152.167,157.5 158.833,157.5 165.5,157.5C 165.5,158.833 165.5,160.167 165.5,161.5C 160.968,161.182 156.634,161.515 152.5,162.5 Z"/></g>
<g><path style="opacity:1" fill="#f6faf9" d="M 176.5,157.5 C 175.756,161.119 175.423,164.785 175.5,168.5C 175.5,170.167 175.5,171.833 175.5,173.5C 173.197,178.574 172.864,183.908 174.5,189.5C 172.167,189.5 169.833,189.5 167.5,189.5C 167.502,183.477 167.835,177.477 168.5,171.5C 168.5,171.167 168.5,170.833 168.5,170.5C 169.895,166.409 170.562,162.076 170.5,157.5C 172.5,157.5 174.5,157.5 176.5,157.5 Z"/></g>
<g><path style="opacity:1" fill="#eef5f6" d="M 190.5,156.5 C 191.167,156.5 191.5,156.833 191.5,157.5C 191.938,161.908 189.938,163.575 185.5,162.5C 184.425,158.062 186.092,156.062 190.5,156.5 Z"/></g>
<g><path style="opacity:1" fill="#f4f9f8" d="M 236.5,168.5 C 238.456,166.852 240.789,166.185 243.5,166.5C 243.371,168.216 243.038,169.883 242.5,171.5C 241.833,172.833 241.167,174.167 240.5,175.5C 238.707,175.884 237.707,177.05 237.5,179C 237.99,181.346 238.657,183.513 239.5,185.5C 239.5,186.833 239.5,188.167 239.5,189.5C 238.127,189.657 236.793,189.49 235.5,189C 234.588,186.795 233.255,184.962 231.5,183.5C 230.868,180.508 229.201,179.841 226.5,181.5C 225.52,184.086 225.187,186.753 225.5,189.5C 224.167,189.5 222.833,189.5 221.5,189.5C 221.5,185.167 221.5,180.833 221.5,176.5C 222.268,175.737 222.768,174.737 223,173.5C 223.684,168.178 224.184,162.844 224.5,157.5C 226.5,157.5 228.5,157.5 230.5,157.5C 229.997,163.521 229.331,169.521 228.5,175.5C 233,175.337 235.666,173.004 236.5,168.5 Z"/></g>
<g><path style="opacity:1" fill="#a6c4de" d="M 190.5,155.5 C 190.5,155.833 190.5,156.167 190.5,156.5C 186.092,156.062 184.425,158.062 185.5,162.5C 185.167,162.5 184.833,162.5 184.5,162.5C 182.953,157.293 184.953,154.96 190.5,155.5 Z"/></g>
<g><path style="opacity:1" fill="#598cc8" d="M 306.5,165.5 C 305.5,165.5 304.5,165.5 303.5,165.5C 303.5,163.5 303.5,161.5 303.5,159.5C 301.585,159.216 299.919,159.549 298.5,160.5C 297.1,161.1 296.1,162.1 295.5,163.5C 295.238,162.022 295.571,160.689 296.5,159.5C 299.084,158.607 301.751,158.274 304.5,158.5C 304.185,161.211 304.852,163.544 306.5,165.5 Z"/></g>
<g><path style="opacity:1" fill="#b2cfe3" d="M 144.5,156.5 C 144.833,156.5 145.167,156.5 145.5,156.5C 152.5,156.5 159.5,156.5 166.5,156.5C 166.5,158.5 166.5,160.5 166.5,162.5C 161.833,162.5 157.167,162.5 152.5,162.5C 156.634,161.515 160.968,161.182 165.5,161.5C 165.5,160.167 165.5,158.833 165.5,157.5C 158.833,157.5 152.167,157.5 145.5,157.5C 145.841,161.16 145.175,164.493 143.5,167.5C 143.724,163.821 144.058,160.154 144.5,156.5 Z"/></g>
<g><path style="opacity:1" fill="#e6dea0" d="M 334.5,156.5 C 334.351,157.552 334.517,158.552 335,159.5C 343.791,165.505 351.625,164.505 358.5,156.5C 359.161,155.282 359.828,153.949 360.5,152.5C 361.386,153.325 361.719,154.325 361.5,155.5C 361.5,156.5 361.5,157.5 361.5,158.5C 355.988,165.518 348.655,168.185 339.5,166.5C 335.565,163.93 332.565,160.597 330.5,156.5C 329.962,154.883 329.629,153.216 329.5,151.5C 330.5,151.5 331.5,151.5 332.5,151.5C 332.12,153.698 332.787,155.365 334.5,156.5 Z"/></g>
<g><path style="opacity:1" fill="#87b0d4" d="M 177.5,156.5 C 177.5,156.833 177.5,157.167 177.5,157.5C 177.167,157.5 176.833,157.5 176.5,157.5C 174.5,157.5 172.5,157.5 170.5,157.5C 170.562,162.076 169.895,166.409 168.5,170.5C 168.586,166.143 168.92,161.81 169.5,157.5C 171.993,155.416 174.66,155.083 177.5,156.5 Z"/></g>
<g><path style="opacity:1" fill="#c3d7e7" d="M 176.5,157.5 C 176.833,157.5 177.167,157.5 177.5,157.5C 177.57,161.425 176.903,165.091 175.5,168.5C 175.423,164.785 175.756,161.119 176.5,157.5 Z"/></g>
<g><path style="opacity:1" fill="#a9c4dd" d="M 298.5,160.5 C 298.25,162.674 297.25,164.341 295.5,165.5C 295.5,164.833 295.5,164.167 295.5,163.5C 296.1,162.1 297.1,161.1 298.5,160.5 Z"/></g>
<g><path style="opacity:1" fill="#acc678" d="M 362.5,163.5 C 366.042,163.187 369.375,163.521 372.5,164.5C 369.482,164.335 366.482,164.502 363.5,165C 362.944,165.383 362.611,165.883 362.5,166.5C 361.041,166.433 359.708,166.766 358.5,167.5C 359.625,166 360.959,164.667 362.5,163.5 Z"/></g>
<g><path style="opacity:1" fill="#3173c6" d="M 167.5,156.5 C 168.167,156.833 168.833,157.167 169.5,157.5C 168.92,161.81 168.586,166.143 168.5,170.5C 168.5,170.833 168.5,171.167 168.5,171.5C 167.883,171.611 167.383,171.944 167,172.5C 166.501,177.489 166.334,182.489 166.5,187.5C 164.846,185.44 163.846,182.94 163.5,180C 158.845,179.501 154.179,179.334 149.5,179.5C 153.232,177.869 157.232,176.869 161.5,176.5C 161.5,174.833 161.5,173.167 161.5,171.5C 158.375,170.521 155.042,170.187 151.5,170.5C 151.993,168.194 152.326,165.861 152.5,163.5C 157.363,163.819 162.03,163.486 166.5,162.5C 167.461,160.735 167.795,158.735 167.5,156.5 Z"/></g>
<g><path style="opacity:1" fill="#87afd5" d="M 200.5,165.5 C 200.5,165.833 200.5,166.167 200.5,166.5C 198.712,166.215 197.045,166.548 195.5,167.5C 194.933,169.982 194.266,172.316 193.5,174.5C 193.336,171.813 193.503,169.146 194,166.5C 196.041,165.577 198.208,165.244 200.5,165.5 Z"/></g>
<g><path style="opacity:1" fill="#96b8d8" d="M 269.5,165.5 C 269.5,165.833 269.5,166.167 269.5,166.5C 262.544,165.845 255.877,166.678 249.5,169C 247.106,172.611 245.44,176.444 244.5,180.5C 244.5,178.833 244.5,177.167 244.5,175.5C 246.782,167.571 252.115,163.904 260.5,164.5C 263.517,164.768 266.517,165.102 269.5,165.5 Z"/></g>
<g><path style="opacity:1" fill="#7da6cc" d="M 283.5,167.5 C 283.179,169.048 282.179,169.715 280.5,169.5C 280.5,168.5 280.5,167.5 280.5,166.5C 278.833,166.5 277.167,166.5 275.5,166.5C 275.737,167.791 275.404,168.791 274.5,169.5C 274.5,168.167 274.5,166.833 274.5,165.5C 277.855,165.091 280.855,165.758 283.5,167.5 Z"/></g>
<g><path style="opacity:1" fill="#9abcda" d="M 303.5,165.5 C 304.5,165.5 305.5,165.5 306.5,165.5C 307.461,167.265 307.795,169.265 307.5,171.5C 305.833,171.5 304.167,171.5 302.5,171.5C 303.568,170.566 304.901,170.232 306.5,170.5C 306.5,169.167 306.5,167.833 306.5,166.5C 305.209,166.737 304.209,166.404 303.5,165.5 Z"/></g>
<g><path style="opacity:1" fill="#4e89a4" d="M 372.5,164.5 C 372.833,165.167 373.167,165.833 373.5,166.5C 369.833,166.5 366.167,166.5 362.5,166.5C 362.611,165.883 362.944,165.383 363.5,165C 366.482,164.502 369.482,164.335 372.5,164.5 Z"/></g>
<g><path style="opacity:1" fill="#f4f8f8" d="M 188.5,176.5 C 188.5,178.167 188.5,179.833 188.5,181.5C 187.883,181.611 187.383,181.944 187,182.5C 186.503,184.81 186.337,187.143 186.5,189.5C 184.833,189.5 183.167,189.5 181.5,189.5C 181.5,185.833 181.5,182.167 181.5,178.5C 181.5,177.167 181.5,175.833 181.5,174.5C 183.223,172.22 183.889,169.553 183.5,166.5C 185.5,166.5 187.5,166.5 189.5,166.5C 189.167,169.833 188.833,173.167 188.5,176.5 Z"/></g>
<g><path style="opacity:1" fill="#eef4f6" d="M 200.5,166.5 C 201.36,168.97 202.694,169.137 204.5,167C 207.817,166.502 211.15,166.335 214.5,166.5C 217.287,173.637 216.953,180.637 213.5,187.5C 208.853,191.049 203.52,192.382 197.5,191.5C 197.5,194.167 197.5,196.833 197.5,199.5C 195.283,200.369 192.95,200.702 190.5,200.5C 190.467,196.131 190.8,191.798 191.5,187.5C 192.525,184.026 193.192,180.36 193.5,176.5C 193.5,175.833 193.5,175.167 193.5,174.5C 194.266,172.316 194.933,169.982 195.5,167.5C 197.045,166.548 198.712,166.215 200.5,166.5 Z"/></g>
<g><path style="opacity:1" fill="#8bb0d6" d="M 214.5,166.5 C 211.15,166.335 207.817,166.502 204.5,167C 202.694,169.137 201.36,168.97 200.5,166.5C 201.117,166.611 201.617,166.944 202,167.5C 206.024,164.052 210.191,163.718 214.5,166.5 Z"/></g>
<g><path style="opacity:1" fill="#f1f6f7" d="M 269.5,166.5 C 270.756,168.726 270.756,171.059 269.5,173.5C 267.241,178.127 266.241,183.127 266.5,188.5C 264.453,188.489 262.453,188.156 260.5,187.5C 259.287,187.747 258.62,188.414 258.5,189.5C 257.508,189.328 256.842,189.662 256.5,190.5C 252.885,190.845 249.552,190.178 246.5,188.5C 244.949,186.087 244.283,183.421 244.5,180.5C 245.44,176.444 247.106,172.611 249.5,169C 255.877,166.678 262.544,165.845 269.5,166.5 Z"/></g>
<g><path style="opacity:1" fill="#eff5f7" d="M 290.5,166.5 C 290.982,170.522 289.148,172.522 285,172.5C 283.69,173.13 282.856,174.13 282.5,175.5C 278.113,179.036 276.446,183.703 277.5,189.5C 276.167,189.5 274.833,189.5 273.5,189.5C 272.632,186.673 272.632,183.673 273.5,180.5C 273.724,176.821 274.058,173.154 274.5,169.5C 275.404,168.791 275.737,167.791 275.5,166.5C 277.167,166.5 278.833,166.5 280.5,166.5C 280.5,167.5 280.5,168.5 280.5,169.5C 282.179,169.715 283.179,169.048 283.5,167.5C 284.893,166.74 286.393,166.074 288,165.5C 289.07,165.528 289.903,165.861 290.5,166.5 Z"/></g>
<g><path style="opacity:1" fill="#84aed5" d="M 242.5,171.5 C 243.038,169.883 243.371,168.216 243.5,166.5C 240.789,166.185 238.456,166.852 236.5,168.5C 236.5,167.5 236.5,166.5 236.5,165.5C 239.167,165.5 241.833,165.5 244.5,165.5C 244.975,168.082 244.308,170.082 242.5,171.5 Z"/></g>
<g><path style="opacity:1" fill="#6091cb" d="M 269.5,166.5 C 269.5,166.167 269.5,165.833 269.5,165.5C 270.765,166.514 271.431,168.014 271.5,170C 271.592,172.821 270.926,175.321 269.5,177.5C 269.5,176.167 269.5,174.833 269.5,173.5C 270.756,171.059 270.756,168.726 269.5,166.5 Z"/></g>
<g><path style="opacity:1" fill="#a4c1da" d="M 295.5,165.5 C 293.338,167.169 293.005,169.169 294.5,171.5C 293.833,171.5 293.167,171.5 292.5,171.5C 292.5,170.167 292.5,168.833 292.5,167.5C 292.821,165.952 293.821,165.285 295.5,165.5 Z"/></g>
<g><path style="opacity:1" fill="#d6d258" d="M 361.5,158.5 C 361.52,160.143 360.853,161.476 359.5,162.5C 360.325,163.386 361.325,163.719 362.5,163.5C 360.959,164.667 359.625,166 358.5,167.5C 357.5,167.833 356.833,168.5 356.5,169.5C 354.596,169.738 353.262,170.738 352.5,172.5C 352.167,172.5 351.833,172.5 351.5,172.5C 351.5,171.5 351.5,170.5 351.5,169.5C 348.116,169.66 344.783,169.327 341.5,168.5C 340.287,168.253 339.62,167.586 339.5,166.5C 348.655,168.185 355.988,165.518 361.5,158.5 Z"/></g>
<g><path style="opacity:1" fill="#4b82c5" d="M 177.5,156.5 C 178.163,158.473 178.496,160.639 178.5,163C 177.21,169.816 176.377,176.65 176,183.5C 176.419,184.672 177.085,185.672 178,186.5C 178.749,181.511 179.415,176.511 180,171.5C 180.757,169.685 181.59,168.019 182.5,166.5C 182.167,169.167 181.833,171.833 181.5,174.5C 181.5,175.833 181.5,177.167 181.5,178.5C 179.75,182.183 179.083,186.183 179.5,190.5C 178.038,189.529 176.705,189.862 175.5,191.5C 174.384,185.706 174.384,179.706 175.5,173.5C 175.5,171.833 175.5,170.167 175.5,168.5C 176.903,165.091 177.57,161.425 177.5,157.5C 177.5,157.167 177.5,156.833 177.5,156.5 Z"/></g>
<g><path style="opacity:1" fill="#3271c1" d="M 190.5,156.5 C 190.5,156.167 190.5,155.833 190.5,155.5C 194.392,156.742 195.392,159.242 193.5,163C 196.361,162.97 198.695,163.803 200.5,165.5C 198.208,165.244 196.041,165.577 194,166.5C 193.503,169.146 193.336,171.813 193.5,174.5C 193.5,175.167 193.5,175.833 193.5,176.5C 192.778,176.918 192.278,177.584 192,178.5C 191.502,181.482 191.335,184.482 191.5,187.5C 190.833,188.167 190.167,188.833 189.5,189.5C 189.649,188.448 189.483,187.448 189,186.5C 188.79,188.058 188.29,189.391 187.5,190.5C 187.704,187.482 188.037,184.482 188.5,181.5C 188.5,179.833 188.5,178.167 188.5,176.5C 190.024,171.229 191.357,165.729 192.5,160C 192.472,158.93 192.139,158.097 191.5,157.5C 191.5,156.833 191.167,156.5 190.5,156.5 Z"/></g>
<g><path style="opacity:1" fill="#b7d2e6" d="M 260.5,180.5 C 261.299,177.57 261.632,174.57 261.5,171.5C 259.265,171.205 257.265,171.539 255.5,172.5C 255.167,172.5 254.833,172.5 254.5,172.5C 254.414,171.504 254.748,170.671 255.5,170C 257.81,169.503 260.143,169.337 262.5,169.5C 263.08,173.649 262.414,177.316 260.5,180.5 Z"/></g>
<g><path style="opacity:1" fill="#6397cb" d="M 152.5,162.5 C 157.167,162.5 161.833,162.5 166.5,162.5C 162.03,163.486 157.363,163.819 152.5,163.5C 152.326,165.861 151.993,168.194 151.5,170.5C 155.042,170.187 158.375,170.521 161.5,171.5C 157.833,171.5 154.167,171.5 150.5,171.5C 150.215,168.171 150.882,165.171 152.5,162.5 Z"/></g>
<g><path style="opacity:1" fill="#719ec9" d="M 290.5,166.5 C 291.167,166.833 291.833,167.167 292.5,167.5C 292.5,168.833 292.5,170.167 292.5,171.5C 289.234,173.032 285.901,174.366 282.5,175.5C 282.856,174.13 283.69,173.13 285,172.5C 289.148,172.522 290.982,170.522 290.5,166.5 Z"/></g>
<g><path style="opacity:1" fill="#c2d8e8" d="M 150.5,171.5 C 154.167,171.5 157.833,171.5 161.5,171.5C 161.5,173.167 161.5,174.833 161.5,176.5C 161.167,176.5 160.833,176.5 160.5,176.5C 160.5,175.167 160.5,173.833 160.5,172.5C 156.958,172.813 153.625,172.479 150.5,171.5 Z"/></g>
<g><path style="opacity:1" fill="#6b9bcd" d="M 222.5,168.5 C 222.167,171.167 221.833,173.833 221.5,176.5C 221.167,176.5 220.833,176.5 220.5,176.5C 220.294,173.505 220.96,170.838 222.5,168.5 Z"/></g>
<g><path style="opacity:1" fill="#6c9e92" d="M 356.5,169.5 C 355.5,171.167 354.167,172.5 352.5,173.5C 352.5,173.167 352.5,172.833 352.5,172.5C 353.262,170.738 354.596,169.738 356.5,169.5 Z"/></g>
<g><path style="opacity:1" fill="#cfd162" d="M 376.5,144.5 C 376.833,144.5 377.167,144.5 377.5,144.5C 377.973,145.906 378.973,146.573 380.5,146.5C 380.667,165.836 380.5,185.17 380,204.5C 379.617,205.056 379.117,205.389 378.5,205.5C 378.5,200.833 378.5,196.167 378.5,191.5C 378.5,177.5 378.5,163.5 378.5,149.5C 377.559,147.95 376.893,146.284 376.5,144.5 Z"/></g>
<g><path style="opacity:1" fill="#f2f8f7" d="M 303.5,165.5 C 304.209,166.404 305.209,166.737 306.5,166.5C 306.5,167.833 306.5,169.167 306.5,170.5C 304.901,170.232 303.568,170.566 302.5,171.5C 301.567,174.642 300.901,177.976 300.5,181.5C 301.276,183.883 302.609,185.883 304.5,187.5C 304.547,189.038 303.88,190.038 302.5,190.5C 299.518,190.896 296.851,190.229 294.5,188.5C 293.495,184.521 293.495,180.521 294.5,176.5C 294.5,174.833 294.5,173.167 294.5,171.5C 293.005,169.169 293.338,167.169 295.5,165.5C 297.25,164.341 298.25,162.674 298.5,160.5C 299.919,159.549 301.585,159.216 303.5,159.5C 303.5,161.5 303.5,163.5 303.5,165.5 Z"/></g>
<g><path style="opacity:1" fill="#72a79f" d="M 373.5,166.5 C 374.725,167.152 375.392,168.319 375.5,170C 375.486,171.385 375.152,172.551 374.5,173.5C 370.885,173.155 367.552,173.822 364.5,175.5C 364.953,174.542 365.619,173.708 366.5,173C 368.81,172.503 371.143,172.337 373.5,172.5C 373.5,170.5 373.5,168.5 373.5,166.5 Z"/></g>
<g><path style="opacity:1" fill="#a0c0de" d="M 214.5,166.5 C 215.89,167.899 216.89,169.566 217.5,171.5C 217.5,174.5 217.5,177.5 217.5,180.5C 217.002,183.326 215.669,185.66 213.5,187.5C 216.953,180.637 217.287,173.637 214.5,166.5 Z"/></g>
<g><path style="opacity:1" fill="#8eb3d5" d="M 236.5,168.5 C 235.666,173.004 233,175.337 228.5,175.5C 229.331,169.521 229.997,163.521 230.5,157.5C 228.5,157.5 226.5,157.5 224.5,157.5C 224.184,162.844 223.684,168.178 223,173.5C 222.768,174.737 222.268,175.737 221.5,176.5C 221.833,173.833 222.167,171.167 222.5,168.5C 222.344,164.418 222.844,160.418 224,156.5C 226.333,155.167 228.667,155.167 231,156.5C 231,162.5 231,168.5 231,174.5C 233.068,172.604 234.901,170.604 236.5,168.5 Z"/></g>
<g><path style="opacity:1" fill="#88aed4" d="M 209.5,180.5 C 209.5,177.833 209.5,175.167 209.5,172.5C 207.435,172.517 205.435,172.85 203.5,173.5C 203.611,172.883 203.944,172.383 204.5,172C 206.473,171.505 208.473,171.338 210.5,171.5C 210.81,174.713 210.477,177.713 209.5,180.5 Z"/></g>
<g><path style="opacity:1" fill="#548bc8" d="M 274.5,169.5 C 274.058,173.154 273.724,176.821 273.5,180.5C 273.167,180.5 272.833,180.5 272.5,180.5C 272.335,177.482 272.502,174.482 273,171.5C 273.278,170.584 273.778,169.918 274.5,169.5 Z"/></g>
<g><path style="opacity:1" fill="#96b974" d="M 351.5,172.5 C 351.833,172.5 352.167,172.5 352.5,172.5C 352.5,172.833 352.5,173.167 352.5,173.5C 352.5,173.833 352.5,174.167 352.5,174.5C 351.833,174.833 351.167,175.167 350.5,175.5C 350.557,174.391 350.89,173.391 351.5,172.5 Z"/></g>
<g><path style="opacity:1" fill="#eee350" d="M 378.5,149.5 C 378.5,163.5 378.5,177.5 378.5,191.5C 377.5,191.5 376.5,191.5 375.5,191.5C 374.978,198.136 374.145,198.136 373,191.5C 372.506,193.134 372.34,194.801 372.5,196.5C 370.027,196.912 368.694,195.912 368.5,193.5C 368.802,190.941 368.468,188.607 367.5,186.5C 366.432,185.566 365.099,185.232 363.5,185.5C 363.093,181.719 364.426,178.719 367.5,176.5C 370.217,176.026 372.55,175.026 374.5,173.5C 375.152,172.551 375.486,171.385 375.5,170C 375.392,168.319 374.725,167.152 373.5,166.5C 373.167,165.833 372.833,165.167 372.5,164.5C 369.375,163.521 366.042,163.187 362.5,163.5C 361.325,163.719 360.325,163.386 359.5,162.5C 360.853,161.476 361.52,160.143 361.5,158.5C 361.5,157.5 361.5,156.5 361.5,155.5C 362.461,153.735 362.795,151.735 362.5,149.5C 367.833,149.5 373.167,149.5 378.5,149.5 Z"/></g>
<g><path style="opacity:1" fill="#75a1cf" d="M 191.5,157.5 C 192.139,158.097 192.472,158.93 192.5,160C 191.357,165.729 190.024,171.229 188.5,176.5C 188.833,173.167 189.167,169.833 189.5,166.5C 187.5,166.5 185.5,166.5 183.5,166.5C 183.889,169.553 183.223,172.22 181.5,174.5C 181.833,171.833 182.167,169.167 182.5,166.5C 183.806,165.533 184.473,164.199 184.5,162.5C 184.833,162.5 185.167,162.5 185.5,162.5C 189.938,163.575 191.938,161.908 191.5,157.5 Z"/></g>
<g><path style="opacity:1" fill="#3474c6" d="M 260.5,180.5 C 259.094,180.973 258.427,181.973 258.5,183.5C 256.666,184.494 254.999,184.494 253.5,183.5C 253.113,179.556 253.78,175.889 255.5,172.5C 257.265,171.539 259.265,171.205 261.5,171.5C 261.632,174.57 261.299,177.57 260.5,180.5 Z"/></g>
<g><path style="opacity:1" fill="#3c8dcb" d="M 362.5,166.5 C 366.167,166.5 369.833,166.5 373.5,166.5C 373.5,168.5 373.5,170.5 373.5,172.5C 371.143,172.337 368.81,172.503 366.5,173C 365.619,173.708 364.953,174.542 364.5,175.5C 363.094,175.973 362.427,176.973 362.5,178.5C 361.252,179.334 360.585,180.667 360.5,182.5C 360.511,184.045 360.844,185.378 361.5,186.5C 363.5,186.5 365.5,186.5 367.5,186.5C 367.599,189.237 367.265,191.904 366.5,194.5C 364.393,195.468 362.059,195.802 359.5,195.5C 357.926,197.102 357.259,199.102 357.5,201.5C 357.5,203.167 357.5,204.833 357.5,206.5C 357.5,206.833 357.5,207.167 357.5,207.5C 354.266,206.424 350.932,205.757 347.5,205.5C 347.813,201.958 347.479,198.625 346.5,195.5C 343.713,194.523 340.713,194.19 337.5,194.5C 337.784,192.585 337.451,190.919 336.5,189.5C 340.232,187.869 344.232,186.869 348.5,186.5C 348.5,186.167 348.5,185.833 348.5,185.5C 348.216,183.585 348.549,181.919 349.5,180.5C 350.492,178.544 351.492,176.544 352.5,174.5C 352.5,174.167 352.5,173.833 352.5,173.5C 354.167,172.5 355.5,171.167 356.5,169.5C 356.833,168.5 357.5,167.833 358.5,167.5C 359.708,166.766 361.041,166.433 362.5,166.5 Z"/></g>
<g><path style="opacity:1" fill="#89b0d4" d="M 160.5,176.5 C 160.833,176.5 161.167,176.5 161.5,176.5C 157.232,176.869 153.232,177.869 149.5,179.5C 149.737,183.273 149.237,186.94 148,190.5C 145.281,191.444 142.448,191.777 139.5,191.5C 139.5,189.167 139.5,186.833 139.5,184.5C 140.167,183.833 140.833,183.167 141.5,182.5C 141.5,183.5 141.5,184.5 141.5,185.5C 140.699,187.042 140.366,188.708 140.5,190.5C 142.792,190.756 144.959,190.423 147,189.5C 147.923,185.21 148.423,180.877 148.5,176.5C 152.5,176.5 156.5,176.5 160.5,176.5 Z"/></g>
<g><path style="opacity:1" fill="#709dcd" d="M 254.5,172.5 C 254.833,172.5 255.167,172.5 255.5,172.5C 253.78,175.889 253.113,179.556 253.5,183.5C 252.275,182.848 251.608,181.681 251.5,180C 251.452,176.956 252.452,174.456 254.5,172.5 Z"/></g>
<g><path style="opacity:1" fill="#628f93" d="M 314.5,145.5 C 314.5,145.833 314.5,146.167 314.5,146.5C 313.504,146.414 312.671,146.748 312,147.5C 311.5,166.497 311.333,185.497 311.5,204.5C 310.338,185.338 310.171,166.004 311,146.5C 312.011,145.663 313.178,145.33 314.5,145.5 Z"/></g>
<g><path style="opacity:1" fill="#81b394" d="M 364.5,175.5 C 364.573,177.027 363.906,178.027 362.5,178.5C 362.427,176.973 363.094,175.973 364.5,175.5 Z"/></g>
<g><path style="opacity:1" fill="#bad4e6" d="M 143.5,171.5 C 143.638,176.414 142.972,181.081 141.5,185.5C 141.5,184.5 141.5,183.5 141.5,182.5C 141.251,178.542 141.918,174.876 143.5,171.5 Z"/></g>
<g><path style="opacity:1" fill="#2b6fc8" d="M 209.5,180.5 C 207.952,180.821 207.285,181.821 207.5,183.5C 205.143,183.663 202.81,183.497 200.5,183C 201.403,179.792 202.403,176.625 203.5,173.5C 205.435,172.85 207.435,172.517 209.5,172.5C 209.5,175.167 209.5,177.833 209.5,180.5 Z"/></g>
<g><path style="opacity:1" fill="#5e90c8" d="M 240.5,175.5 C 239.586,178.728 239.253,182.061 239.5,185.5C 238.657,183.513 237.99,181.346 237.5,179C 237.707,177.05 238.707,175.884 240.5,175.5 Z"/></g>
<g><path style="opacity:1" fill="#6091c7" d="M 302.5,171.5 C 302.495,175.534 302.162,179.534 301.5,183.5C 302.833,183.5 304.167,183.5 305.5,183.5C 305.5,186.167 305.5,188.833 305.5,191.5C 304.5,191.5 303.5,191.5 302.5,191.5C 302.5,191.167 302.5,190.833 302.5,190.5C 303.88,190.038 304.547,189.038 304.5,187.5C 302.609,185.883 301.276,183.883 300.5,181.5C 300.901,177.976 301.567,174.642 302.5,171.5 Z"/></g>
<g><path style="opacity:1" fill="#d3db64" d="M 374.5,173.5 C 372.55,175.026 370.217,176.026 367.5,176.5C 364.426,178.719 363.093,181.719 363.5,185.5C 362.549,184.081 362.216,182.415 362.5,180.5C 362.5,179.833 362.5,179.167 362.5,178.5C 363.906,178.027 364.573,177.027 364.5,175.5C 367.552,173.822 370.885,173.155 374.5,173.5 Z"/></g>
<g><path style="opacity:1" fill="#83abd5" d="M 168.5,171.5 C 167.835,177.477 167.502,183.477 167.5,189.5C 166.662,189.158 166.328,188.492 166.5,187.5C 166.334,182.489 166.501,177.489 167,172.5C 167.383,171.944 167.883,171.611 168.5,171.5 Z"/></g>
<g><path style="opacity:1" fill="#c8dbe7" d="M 269.5,173.5 C 269.5,174.833 269.5,176.167 269.5,177.5C 269.5,178.833 269.5,180.167 269.5,181.5C 267.631,183.635 266.964,186.302 267.5,189.5C 264.579,190.372 261.579,190.372 258.5,189.5C 258.62,188.414 259.287,187.747 260.5,187.5C 262.453,188.156 264.453,188.489 266.5,188.5C 266.241,183.127 267.241,178.127 269.5,173.5 Z"/></g>
<g><path style="opacity:1" fill="#7aa187" d="M 352.5,174.5 C 351.492,176.544 350.492,178.544 349.5,180.5C 349.366,178.708 349.699,177.042 350.5,175.5C 351.167,175.167 351.833,174.833 352.5,174.5 Z"/></g>
<g><path style="opacity:1" fill="#81aad5" d="M 193.5,176.5 C 193.192,180.36 192.525,184.026 191.5,187.5C 191.335,184.482 191.502,181.482 192,178.5C 192.278,177.584 192.778,176.918 193.5,176.5 Z"/></g>
<g><path style="opacity:1" fill="#95b5d5" d="M 260.5,180.5 C 260.573,182.027 259.906,183.027 258.5,183.5C 258.427,181.973 259.094,180.973 260.5,180.5 Z"/></g>
<g><path style="opacity:1" fill="#4680c6" d="M 144.5,156.5 C 144.058,160.154 143.724,163.821 143.5,167.5C 143.5,168.833 143.5,170.167 143.5,171.5C 141.918,174.876 141.251,178.542 141.5,182.5C 140.833,183.167 140.167,183.833 139.5,184.5C 141.402,175.615 142.569,166.615 143,157.5C 143.383,156.944 143.883,156.611 144.5,156.5 Z"/></g>
<g><path style="opacity:1" fill="#c8dbe9" d="M 282.5,175.5 C 280.985,180.401 279.651,185.401 278.5,190.5C 276.585,190.784 274.919,190.451 273.5,189.5C 274.833,189.5 276.167,189.5 277.5,189.5C 276.446,183.703 278.113,179.036 282.5,175.5 Z"/></g>
<g><path style="opacity:1" fill="#6595c8" d="M 203.5,173.5 C 202.403,176.625 201.403,179.792 200.5,183C 202.81,183.497 205.143,183.663 207.5,183.5C 207.285,181.821 207.952,180.821 209.5,180.5C 207.826,185.026 204.493,186.692 199.5,185.5C 199.336,182.813 199.503,180.146 200,177.5C 200.66,175.676 201.827,174.343 203.5,173.5 Z"/></g>
<g><path style="opacity:1" fill="#94b8da" d="M 294.5,176.5 C 293.495,180.521 293.495,184.521 294.5,188.5C 296.851,190.229 299.518,190.896 302.5,190.5C 302.5,190.833 302.5,191.167 302.5,191.5C 295.57,192.73 292.236,189.896 292.5,183C 292.533,180.39 293.2,178.223 294.5,176.5 Z"/></g>
<g><path style="opacity:1" fill="#669fa5" d="M 362.5,178.5 C 362.5,179.167 362.5,179.833 362.5,180.5C 361.539,182.265 361.205,184.265 361.5,186.5C 360.844,185.378 360.511,184.045 360.5,182.5C 360.585,180.667 361.252,179.334 362.5,178.5 Z"/></g>
<g><path style="opacity:1" fill="#8db079" d="M 330.5,185.5 C 336.5,185.5 342.5,185.5 348.5,185.5C 348.5,185.833 348.5,186.167 348.5,186.5C 343.821,186.334 339.155,186.501 334.5,187C 335.252,187.671 335.586,188.504 335.5,189.5C 335.5,190.833 335.5,192.167 335.5,193.5C 334.5,193.5 333.5,193.5 332.5,193.5C 334.136,190.268 333.136,188.101 329.5,187C 330.056,186.617 330.389,186.117 330.5,185.5 Z"/></g>
<g><path style="opacity:1" fill="#99b677" d="M 362.5,180.5 C 362.216,182.415 362.549,184.081 363.5,185.5C 365.099,185.232 366.432,185.566 367.5,186.5C 365.5,186.5 363.5,186.5 361.5,186.5C 361.205,184.265 361.539,182.265 362.5,180.5 Z"/></g>
<g><path style="opacity:1" fill="#c2d8e8" d="M 175.5,173.5 C 174.384,179.706 174.384,185.706 175.5,191.5C 173.143,191.663 170.81,191.497 168.5,191C 167.944,190.617 167.611,190.117 167.5,189.5C 169.833,189.5 172.167,189.5 174.5,189.5C 172.864,183.908 173.197,178.574 175.5,173.5 Z"/></g>
<g><path style="opacity:1" fill="#b2cce1" d="M 220.5,176.5 C 220.833,176.5 221.167,176.5 221.5,176.5C 221.5,180.833 221.5,185.167 221.5,189.5C 222.833,189.5 224.167,189.5 225.5,189.5C 225.187,186.753 225.52,184.086 226.5,181.5C 229.201,179.841 230.868,180.508 231.5,183.5C 230.391,183.443 229.391,183.11 228.5,182.5C 227.087,185.219 226.42,188.219 226.5,191.5C 224.167,191.5 221.833,191.5 219.5,191.5C 220.08,187.19 220.414,182.857 220.5,178.5C 220.5,177.833 220.5,177.167 220.5,176.5 Z"/></g>
<g><path style="opacity:1" fill="#407d94" d="M 348.5,186.5 C 344.232,186.869 340.232,187.869 336.5,189.5C 336.167,189.5 335.833,189.5 335.5,189.5C 335.586,188.504 335.252,187.671 334.5,187C 339.155,186.501 343.821,186.334 348.5,186.5 Z"/></g>
<g><path style="opacity:1" fill="#4b82c7" d="M 244.5,175.5 C 244.5,177.167 244.5,178.833 244.5,180.5C 244.283,183.421 244.949,186.087 246.5,188.5C 246.833,189.167 247.167,189.833 247.5,190.5C 246.883,190.611 246.383,190.944 246,191.5C 245.751,190.376 245.251,189.376 244.5,188.5C 243.378,189.63 242.044,190.297 240.5,190.5C 240.5,188.833 240.5,187.167 240.5,185.5C 241.151,186.091 241.818,186.757 242.5,187.5C 243.167,183.353 243.834,179.353 244.5,175.5 Z"/></g>
<g><path style="opacity:1" fill="#6595cc" d="M 269.5,181.5 C 269.435,184.428 268.768,187.095 267.5,189.5C 266.964,186.302 267.631,183.635 269.5,181.5 Z"/></g>
<g><path style="opacity:1" fill="#b6cfe4" d="M 231.5,183.5 C 233.255,184.962 234.588,186.795 235.5,189C 236.793,189.49 238.127,189.657 239.5,189.5C 239.5,188.167 239.5,186.833 239.5,185.5C 239.833,185.5 240.167,185.5 240.5,185.5C 240.5,187.167 240.5,188.833 240.5,190.5C 238.393,191.468 236.059,191.802 233.5,191.5C 232.833,188.833 232.167,186.167 231.5,183.5 Z"/></g>
<g><path style="opacity:1" fill="#8bb1d5" d="M 181.5,178.5 C 181.5,182.167 181.5,185.833 181.5,189.5C 183.167,189.5 184.833,189.5 186.5,189.5C 186.337,187.143 186.503,184.81 187,182.5C 187.383,181.944 187.883,181.611 188.5,181.5C 188.037,184.482 187.704,187.482 187.5,190.5C 184.833,191.833 182.167,191.833 179.5,190.5C 179.083,186.183 179.75,182.183 181.5,178.5 Z"/></g>
<g><path style="opacity:1" fill="#9bbddb" d="M 246.5,188.5 C 249.552,190.178 252.885,190.845 256.5,190.5C 256.5,190.833 256.5,191.167 256.5,191.5C 253.287,191.81 250.287,191.477 247.5,190.5C 247.167,189.833 246.833,189.167 246.5,188.5 Z"/></g>
<g><path style="opacity:1" fill="#5d8fc7" d="M 258.5,189.5 C 261.579,190.372 264.579,190.372 267.5,189.5C 267.03,190.693 266.03,191.36 264.5,191.5C 261.79,190.361 259.124,190.361 256.5,191.5C 256.5,191.167 256.5,190.833 256.5,190.5C 256.842,189.662 257.508,189.328 258.5,189.5 Z"/></g>
<g><path style="opacity:1" fill="#85aed3" d="M 272.5,180.5 C 272.833,180.5 273.167,180.5 273.5,180.5C 272.632,183.673 272.632,186.673 273.5,189.5C 274.919,190.451 276.585,190.784 278.5,190.5C 276.44,191.811 274.274,191.811 272,190.5C 271.457,187.132 271.624,183.799 272.5,180.5 Z"/></g>
<g><path style="opacity:1" fill="#bec85c" d="M 330.5,185.5 C 330.389,186.117 330.056,186.617 329.5,187C 333.136,188.101 334.136,190.268 332.5,193.5C 330.167,193.5 327.833,193.5 325.5,193.5C 325.5,193.167 325.5,192.833 325.5,192.5C 327.5,192.5 329.5,192.5 331.5,192.5C 331.5,191.5 331.5,190.5 331.5,189.5C 328.05,190.244 326.384,188.91 326.5,185.5C 327.833,185.5 329.167,185.5 330.5,185.5 Z"/></g>
<g><path style="opacity:1" fill="#6495cb" d="M 191.5,187.5 C 190.8,191.798 190.467,196.131 190.5,200.5C 192.95,200.702 195.283,200.369 197.5,199.5C 196.666,200.748 195.333,201.415 193.5,201.5C 191.9,201.449 190.4,201.116 189,200.5C 189.11,196.871 189.276,193.204 189.5,189.5C 190.167,188.833 190.833,188.167 191.5,187.5 Z"/></g>
<g><path style="opacity:1" fill="#f1ce3c" d="M 378.5,191.5 C 378.5,196.167 378.5,200.833 378.5,205.5C 371.833,205.5 365.167,205.5 358.5,205.5C 358.5,204.167 358.5,202.833 358.5,201.5C 359.15,199.565 359.483,197.565 359.5,195.5C 362.059,195.802 364.393,195.468 366.5,194.5C 367.167,194.167 367.833,193.833 368.5,193.5C 368.694,195.912 370.027,196.912 372.5,196.5C 372.34,194.801 372.506,193.134 373,191.5C 374.145,198.136 374.978,198.136 375.5,191.5C 376.5,191.5 377.5,191.5 378.5,191.5 Z"/></g>
<g><path style="opacity:1" fill="#3f7bc5" d="M 217.5,171.5 C 219.02,173.588 220.02,175.922 220.5,178.5C 220.414,182.857 220.08,187.19 219.5,191.5C 221.833,191.5 224.167,191.5 226.5,191.5C 226.42,188.219 227.087,185.219 228.5,182.5C 228.467,186.869 228.8,191.202 229.5,195.5C 228.448,195.649 227.448,195.483 226.5,195C 225.167,194.333 225.167,193.667 226.5,193C 223.5,192.667 220.5,192.333 217.5,192C 218.821,188.066 218.821,184.233 217.5,180.5C 217.5,177.5 217.5,174.5 217.5,171.5 Z"/></g>
<g><path style="opacity:1" fill="#7ba88f" d="M 367.5,186.5 C 368.468,188.607 368.802,190.941 368.5,193.5C 367.833,193.833 367.167,194.167 366.5,194.5C 367.265,191.904 367.599,189.237 367.5,186.5 Z"/></g>
<g><path style="opacity:1" fill="#f3ce3a" d="M 313.5,191.5 C 314.268,192.263 314.768,193.263 315,194.5C 315.383,193.944 315.883,193.611 316.5,193.5C 317.249,194.531 317.915,195.698 318.5,197C 327.16,197.5 335.827,197.666 344.5,197.5C 344.5,198.833 344.5,200.167 344.5,201.5C 344.5,202.833 344.5,204.167 344.5,205.5C 334.494,205.666 324.494,205.5 314.5,205C 313.533,200.599 313.2,196.099 313.5,191.5 Z"/></g>
<g><path style="opacity:1" fill="#e6d246" d="M 316.5,193.5 C 319.287,192.523 322.287,192.19 325.5,192.5C 325.5,192.833 325.5,193.167 325.5,193.5C 324.022,193.238 322.689,193.571 321.5,194.5C 322.5,194.833 323.5,195.167 324.5,195.5C 331.327,196.052 337.994,196.719 344.5,197.5C 335.827,197.666 327.16,197.5 318.5,197C 317.915,195.698 317.249,194.531 316.5,193.5 Z"/></g>
<g><path style="opacity:1" fill="#8eab69" d="M 325.5,193.5 C 327.833,193.5 330.167,193.5 332.5,193.5C 333.5,194.167 334.5,194.833 335.5,195.5C 331.922,195.451 328.589,194.785 325.5,193.5 Z"/></g>
<g><path style="opacity:1" fill="#78a58a" d="M 335.5,189.5 C 335.833,189.5 336.167,189.5 336.5,189.5C 337.451,190.919 337.784,192.585 337.5,194.5C 340.713,194.19 343.713,194.523 346.5,195.5C 346.795,197.735 346.461,199.735 345.5,201.5C 345.5,199.5 345.5,197.5 345.5,195.5C 342.167,195.5 338.833,195.5 335.5,195.5C 334.5,194.833 333.5,194.167 332.5,193.5C 333.5,193.5 334.5,193.5 335.5,193.5C 335.5,192.167 335.5,190.833 335.5,189.5 Z"/></g>
<g><path style="opacity:1" fill="#bfc45c" d="M 325.5,193.5 C 328.589,194.785 331.922,195.451 335.5,195.5C 338.833,195.5 342.167,195.5 345.5,195.5C 345.5,197.5 345.5,199.5 345.5,201.5C 345.167,201.5 344.833,201.5 344.5,201.5C 344.5,200.167 344.5,198.833 344.5,197.5C 337.994,196.719 331.327,196.052 324.5,195.5C 323.5,195.167 322.5,194.833 321.5,194.5C 322.689,193.571 324.022,193.238 325.5,193.5 Z"/></g>
<g><path style="opacity:1" fill="#78a087" d="M 359.5,195.5 C 359.483,197.565 359.15,199.565 358.5,201.5C 358.167,201.5 357.833,201.5 357.5,201.5C 357.259,199.102 357.926,197.102 359.5,195.5 Z"/></g>
<g><path style="opacity:1" fill="#4b8bab" d="M 346.5,195.5 C 347.479,198.625 347.813,201.958 347.5,205.5C 346.833,205.5 346.167,205.5 345.5,205.5C 345.5,204.167 345.5,202.833 345.5,201.5C 346.461,199.735 346.795,197.735 346.5,195.5 Z"/></g>
<g><path style="opacity:1" fill="#9ca564" d="M 357.5,201.5 C 357.833,201.5 358.167,201.5 358.5,201.5C 358.5,202.833 358.5,204.167 358.5,205.5C 365.167,205.5 371.833,205.5 378.5,205.5C 371.687,206.491 364.687,206.825 357.5,206.5C 357.5,204.833 357.5,203.167 357.5,201.5 Z"/></g>
<g><path style="opacity:1" fill="#628788" d="M 344.5,201.5 C 344.833,201.5 345.167,201.5 345.5,201.5C 345.5,202.833 345.5,204.167 345.5,205.5C 340.376,206.829 334.876,207.495 329,207.5C 323.5,207.333 318,207.167 312.5,207C 311.748,206.329 311.414,205.496 311.5,204.5C 312.289,204.783 312.956,205.283 313.5,206C 324.008,206.825 334.342,206.659 344.5,205.5C 344.5,204.167 344.5,202.833 344.5,201.5 Z"/></g>
<g><path style="opacity:1" fill="#4a80c7" d="M 129.5,123.5 C 216.665,122.501 303.998,122.167 391.5,122.5C 391.5,154.833 391.5,187.167 391.5,219.5C 304.167,220.833 216.833,220.833 129.5,219.5C 129.5,218.833 129.5,218.167 129.5,217.5C 216.5,217.5 303.5,217.5 390.5,217.5C 390.5,186.167 390.5,154.833 390.5,123.5C 303.5,123.5 216.5,123.5 129.5,123.5 Z"/></g>
</svg>
